<?xml version="1.0" encoding="utf-8"?>
<!-- Generator: Adobe Illustrator 27.5.0, SVG Export Plug-In . SVG Version: 6.00 Build 0)  -->
<svg version="1.1" xmlns="http://www.w3.org/2000/svg" xmlns:xlink="http://www.w3.org/1999/xlink" x="0px" y="0px"
	 viewBox="0 0 500 500" style="enable-background:new 0 0 500 500;" xml:space="preserve">
<g id="BACKGROUND">
	<rect style="fill:#FFE6E2;" width="500" height="500"/>
</g>
<g id="OBJECTS">
	<g>
		<rect x="16.908" y="415.59" style="fill:#6E448C;" width="466.092" height="3.818"/>
		<g>
			
				<rect x="106.471" y="300.297" transform="matrix(-1 -3.696300e-11 3.696300e-11 -1 227.5582 650.8171)" style="fill:#A1A1E7;" width="14.616" height="50.223"/>
			
				<rect x="88.949" y="290" transform="matrix(-1 -3.696300e-11 3.696300e-11 -1 192.5129 640.52)" style="fill:#6E448C;" width="14.616" height="60.52"/>
			
				<rect x="71.426" y="307.037" transform="matrix(-1 -3.708779e-11 3.708779e-11 -1 157.4677 657.5569)" style="fill:#A1A1E7;" width="14.616" height="43.483"/>
			
				<rect x="53.903" y="317.765" transform="matrix(-1 -3.696300e-11 3.696300e-11 -1 122.4224 668.2854)" style="fill:#6E448C;" width="14.616" height="32.755"/>
			<rect x="47.795" y="290.134" style="fill:#6E448C;" width="2" height="61.517"/>
			<rect x="47.795" y="349.5" style="fill:#6E448C;" width="80.406" height="2.151"/>
		</g>
		<g>
			<rect x="296.832" y="57.024" style="fill:#B6B6EF;" width="62.767" height="82.118"/>
			<rect x="304.339" y="79.938" style="fill:#6E448C;" width="47.754" height="1.453"/>
			<rect x="327.489" y="64.392" style="fill:#6E448C;" width="24.603" height="8.718"/>
			<rect x="304.339" y="91.925" style="fill:#6E448C;" width="47.754" height="1.453"/>
			<rect x="304.339" y="103.912" style="fill:#6E448C;" width="47.754" height="1.453"/>
			<rect x="304.339" y="115.899" style="fill:#6E448C;" width="47.754" height="1.453"/>
			<rect x="304.339" y="127.885" style="fill:#6E448C;" width="47.754" height="1.453"/>
		</g>
		<g>
			<g>
				<g>
					<path style="fill:#FFB6C6;" d="M440.684,112.011c-6.446,0-11.672,5.225-11.672,11.672c0,6.446,5.225,11.672,11.672,11.672
						c6.446,0,11.672-5.225,11.672-11.672C452.356,117.237,447.13,112.011,440.684,112.011z M440.684,130.725
						c-3.889,0-7.042-3.153-7.042-7.042s3.153-7.042,7.042-7.042c3.889,0,7.042,3.153,7.042,7.042S444.573,130.725,440.684,130.725z
						"/>
					<rect x="438.876" y="108.523" style="fill:#FFB6C6;" width="4.522" height="6.116"/>
					<rect x="425.381" y="120.862" style="fill:#FFB6C6;" width="6.116" height="4.522"/>
					<rect x="449.671" y="121.422" style="fill:#FFB6C6;" width="6.116" height="4.522"/>
					
						<rect x="446.09" y="112.377" transform="matrix(0.7338 -0.6793 0.6793 0.7338 41.6727 335.6357)" style="fill:#FFB6C6;" width="6.116" height="4.522"/>
					
						<rect x="430.216" y="111.15" transform="matrix(0.6793 -0.7338 0.7338 0.6793 54.871 353.9857)" style="fill:#FFB6C6;" width="4.522" height="6.116"/>
					<rect x="438.748" y="132.975" style="fill:#FFB6C6;" width="4.522" height="6.116"/>
					
						<rect x="447.561" y="129.05" transform="matrix(0.6793 -0.7338 0.7338 0.6793 47.2971 372.4541)" style="fill:#FFB6C6;" width="4.522" height="6.116"/>
					
						<rect x="428.738" y="130.547" transform="matrix(0.7338 -0.6793 0.6793 0.7338 24.711 328.6844)" style="fill:#FFB6C6;" width="6.116" height="4.522"/>
				</g>
			</g>
			<g>
				<g>
					<path style="fill:#FFB6C6;" d="M329.555,215.14c-4.237,0-7.672,3.435-7.672,7.672c0,4.237,3.435,7.672,7.672,7.672
						s7.672-3.435,7.672-7.672C337.227,218.575,333.793,215.14,329.555,215.14z M329.555,227.441c-2.556,0-4.629-2.072-4.629-4.629
						c0-2.556,2.072-4.629,4.629-4.629c2.556,0,4.629,2.072,4.629,4.629C334.184,225.369,332.112,227.441,329.555,227.441z"/>
					<rect x="328.366" y="212.847" style="fill:#FFB6C6;" width="2.973" height="4.02"/>
					<rect x="319.496" y="220.958" style="fill:#FFB6C6;" width="4.02" height="2.973"/>
					<rect x="335.463" y="221.326" style="fill:#FFB6C6;" width="4.02" height="2.973"/>
					
						<rect x="333.108" y="215.381" transform="matrix(0.7338 -0.6793 0.6793 0.7338 -58.1264 285.3821)" style="fill:#FFB6C6;" width="4.02" height="2.973"/>
					
						<rect x="322.674" y="214.574" transform="matrix(0.6793 -0.7338 0.7338 0.6793 -54.9887 307.3286)" style="fill:#FFB6C6;" width="2.973" height="4.02"/>
					<rect x="328.282" y="228.92" style="fill:#FFB6C6;" width="2.973" height="4.02"/>
					
						<rect x="334.076" y="226.34" transform="matrix(0.6793 -0.7338 0.7338 0.6793 -59.9672 319.4681)" style="fill:#FFB6C6;" width="2.973" height="4.02"/>
					
						<rect x="321.703" y="227.324" transform="matrix(0.7338 -0.6793 0.6793 0.7338 -69.2756 280.8129)" style="fill:#FFB6C6;" width="4.02" height="2.973"/>
				</g>
			</g>
			<g>
				<g>
					<path style="fill:#FFB6C6;" d="M205.628,119.395c-4.237,0-7.672,3.435-7.672,7.672s3.435,7.672,7.672,7.672
						s7.672-3.435,7.672-7.672S209.865,119.395,205.628,119.395z M205.628,131.695c-2.556,0-4.629-2.072-4.629-4.629
						s2.072-4.629,4.629-4.629s4.629,2.072,4.629,4.629S208.184,131.695,205.628,131.695z"/>
					<rect x="204.439" y="117.102" style="fill:#FFB6C6;" width="2.973" height="4.02"/>
					<rect x="195.568" y="125.213" style="fill:#FFB6C6;" width="4.02" height="2.973"/>
					<rect x="211.535" y="125.581" style="fill:#FFB6C6;" width="4.02" height="2.973"/>
					
						<rect x="209.181" y="119.636" transform="matrix(0.7338 -0.6793 0.6793 0.7338 -26.0693 175.7087)" style="fill:#FFB6C6;" width="4.02" height="2.973"/>
					
						<rect x="198.747" y="118.829" transform="matrix(0.6793 -0.7338 0.7338 0.6793 -24.4673 185.685)" style="fill:#FFB6C6;" width="2.973" height="4.02"/>
					<rect x="204.355" y="133.175" style="fill:#FFB6C6;" width="2.973" height="4.02"/>
					
						<rect x="210.148" y="130.595" transform="matrix(0.6793 -0.7338 0.7338 0.6793 -29.4458 197.8245)" style="fill:#FFB6C6;" width="2.973" height="4.02"/>
					
						<rect x="197.775" y="131.579" transform="matrix(0.7338 -0.6793 0.6793 0.7338 -37.2185 171.1395)" style="fill:#FFB6C6;" width="4.02" height="2.973"/>
				</g>
			</g>
			<g>
				<g>
					<path style="fill:#FFB6C6;" d="M155.054,257.341c-7.148,0-12.942,5.794-12.942,12.942c0,7.148,5.794,12.942,12.942,12.942
						s12.942-5.794,12.942-12.942C167.996,263.136,162.202,257.341,155.054,257.341z M155.054,278.092
						c-4.312,0-7.808-3.496-7.808-7.808c0-4.312,3.496-7.808,7.808-7.808s7.808,3.496,7.808,7.808
						C162.863,274.596,159.367,278.092,155.054,278.092z"/>
					<rect x="153.049" y="253.473" style="fill:#FFB6C6;" width="5.014" height="6.781"/>
					<rect x="138.085" y="267.155" style="fill:#FFB6C6;" width="6.781" height="5.014"/>
					<rect x="165.02" y="267.776" style="fill:#FFB6C6;" width="6.781" height="5.014"/>
					
						<rect x="161.048" y="257.747" transform="matrix(0.7338 -0.6793 0.6793 0.7338 -133.0313 180.9817)" style="fill:#FFB6C6;" width="6.781" height="5.014"/>
					
						<rect x="143.446" y="256.386" transform="matrix(0.6793 -0.7338 0.7338 0.6793 -143.8294 190.4057)" style="fill:#FFB6C6;" width="5.014" height="6.781"/>
					<rect x="152.907" y="280.587" style="fill:#FFB6C6;" width="5.014" height="6.781"/>
					
						<rect x="162.68" y="276.235" transform="matrix(0.6793 -0.7338 0.7338 0.6793 -152.2279 210.8846)" style="fill:#FFB6C6;" width="5.014" height="6.781"/>
					
						<rect x="141.807" y="277.895" transform="matrix(0.7338 -0.6793 0.6793 0.7338 -151.8395 173.2737)" style="fill:#FFB6C6;" width="6.781" height="5.014"/>
				</g>
			</g>
		</g>
		<g>
			<g>
				<ellipse style="fill:#FF8AA0;" cx="116.758" cy="222.957" rx="43.058" ry="26.819"/>
				<polygon style="fill:#FF8AA0;" points="104.852,248.734 90.379,257.565 91.226,244.554 				"/>
			</g>
			<g>
				<circle style="fill:#FFFFFF;" cx="142.877" cy="223.105" r="6.002"/>
				<circle style="fill:#FFFFFF;" cx="116.212" cy="223.105" r="6.002"/>
				<circle style="fill:#FFFFFF;" cx="89.548" cy="223.105" r="6.002"/>
			</g>
		</g>
		<g>
			<g>
				<path style="fill:#71A8C6;" d="M401.621,405.963c0,0-9.707-20.395-2.655-42.934c7.052-22.539,13.335-28.901,20.443-22.275
					c7.108,6.626,3.725,40.955,0.29,53.7C416.262,407.198,413.203,411.124,401.621,405.963z"/>
				<path style="fill:#FFFFFF;" d="M404.183,355.958c-0.703,0.571-6.21-6.23-6.21-6.23S404.929,355.352,404.183,355.958z"/>
				<path style="fill:#FFFFFF;" d="M410.431,359.5c-0.703,0.571-6.21-6.23-6.21-6.23S411.177,358.895,410.431,359.5z"/>
				<path style="fill:#FFFFFF;" d="M406.891,349.933c-0.703,0.571-6.21-6.23-6.21-6.23S407.637,349.328,406.891,349.933z"/>
				<path style="fill:#FFFFFF;" d="M413.792,348.171c-0.846,0.429-4.278-7.2-4.278-7.2S414.689,347.717,413.792,348.171z"/>
				<path style="fill:#FFFFFF;" d="M408.571,344.584c-0.636,0.516-5.616-5.634-5.616-5.634S409.245,344.036,408.571,344.584z"/>
				<path style="fill:#FFFFFF;" d="M411.479,341.251c-0.85,0.249-2.054-7.025-2.054-7.025S412.38,340.987,411.479,341.251z"/>
				<path style="fill:#FFFFFF;" d="M417.288,341.321c-0.824-0.297,4.664-6.19,4.664-6.19S418.161,341.636,417.288,341.321z"/>
				<path style="fill:#FFFFFF;" d="M418.508,347.48c-0.634-0.515,7.131-4.435,7.131-4.435S419.181,348.026,418.508,347.48z"/>
				<path style="fill:#FFFFFF;" d="M420.581,352.682c-0.634-0.515,7.131-4.435,7.131-4.435S421.253,353.228,420.581,352.682z"/>
				<path style="fill:#FFFFFF;" d="M411.777,354.019c-0.634-0.515,7.131-4.435,7.131-4.435S412.449,354.565,411.777,354.019z"/>
				<path style="fill:#FFFFFF;" d="M422.195,360.253c-0.634-0.515,7.131-4.435,7.131-4.435S422.868,360.799,422.195,360.253z"/>
				<path style="fill:#FFFFFF;" d="M414.601,359.462c-0.634-0.515,7.131-4.435,7.131-4.435S415.273,360.008,414.601,359.462z"/>
				<path style="fill:#FFFFFF;" d="M421.323,367.143c-0.634-0.515,7.131-4.435,7.131-4.435S421.995,367.689,421.323,367.143z"/>
				<path style="fill:#FFFFFF;" d="M420.636,372.89c-0.367-0.661,8.615-2.149,8.615-2.149S421.025,373.591,420.636,372.89z"/>
				<path style="fill:#FFFFFF;" d="M413.249,376.382c-0.367-0.661,8.615-2.149,8.615-2.149S413.638,377.083,413.249,376.382z"/>
				<path style="fill:#FFFFFF;" d="M414.653,370.728c-0.367-0.661,8.615-2.149,8.615-2.149S415.042,371.429,414.653,370.728z"/>
				<path style="fill:#FFFFFF;" d="M413.812,365.841c-0.722-0.434,6.241-5.226,6.241-5.226S414.578,366.302,413.812,365.841z"/>
				<path style="fill:#FFFFFF;" d="M420.898,378.453c-0.488-0.609,8.114-3.168,8.114-3.168S421.415,379.098,420.898,378.453z"/>
				<path style="fill:#FFFFFF;" d="M414.369,383.421c-0.488-0.609,8.114-3.168,8.114-3.168S414.886,384.067,414.369,383.421z"/>
				<path style="fill:#FFFFFF;" d="M411.083,392.459c-0.687-0.469,6.629-4.91,6.629-4.91S411.812,392.956,411.083,392.459z"/>
				<path style="fill:#FFFFFF;" d="M419.699,384.978c-0.488-0.609,8.114-3.168,8.114-3.168S420.217,385.623,419.699,384.978z"/>
				<path style="fill:#FFFFFF;" d="M418.486,390.809c-0.322-0.676,8.746-1.775,8.746-1.775S418.827,391.526,418.486,390.809z"/>
				<path style="fill:#FFFFFF;" d="M415.931,397.365c-0.322-0.676,8.746-1.775,8.746-1.775S416.273,398.082,415.931,397.365z"/>
				<path style="fill:#FFFFFF;" d="M401.642,362.714c-0.703,0.571-6.21-6.23-6.21-6.23S402.388,362.108,401.642,362.714z"/>
				<path style="fill:#FFFFFF;" d="M409.677,371.325c-0.703,0.571-6.21-6.23-6.21-6.23S410.423,370.719,409.677,371.325z"/>
				<path style="fill:#FFFFFF;" d="M405.669,379.38c-0.703,0.571-6.21-6.23-6.21-6.23S406.415,378.774,405.669,379.38z"/>
				<path style="fill:#FFFFFF;" d="M405.724,387.407c-0.703,0.571-6.21-6.23-6.21-6.23S406.47,386.802,405.724,387.407z"/>
				<path style="fill:#FFFFFF;" d="M399.39,371.396c-0.703,0.571-6.21-6.23-6.21-6.23S400.136,370.79,399.39,371.396z"/>
				<path style="fill:#FFFFFF;" d="M398.122,379.586c-0.703,0.571-6.21-6.23-6.21-6.23S398.868,378.981,398.122,379.586z"/>
				<path style="fill:#FFFFFF;" d="M399.193,388.142c-0.463,0.711-8.23-4.485-8.23-4.485S399.683,387.388,399.193,388.142z"/>
				<path style="fill:#FFFFFF;" d="M406.271,397.1c-0.886,0.373-3.541-7.454-3.541-7.454S407.211,396.705,406.271,397.1z"/>
				<path style="fill:#FFFFFF;" d="M399.229,393.391c-0.463,0.711-8.23-4.485-8.23-4.485S399.72,392.636,399.229,393.391z"/>
				<path style="fill:#FFFFFF;" d="M401.619,399.835c-0.463,0.711-8.23-4.485-8.23-4.485S402.11,399.081,401.619,399.835z"/>
			</g>
			<g>
				<path style="fill:#7FBDD3;" d="M416.196,398.92c0,0,0.826-30.955,13.944-34.974s12.548,10.305,9.781,19.538
					C437.153,392.716,429.454,406.776,416.196,398.92z"/>
				<path style="fill:#FFFFFF;" d="M427.837,368.865c-0.703,0.571-6.21-6.23-6.21-6.23S428.583,368.26,427.837,368.865z"/>
				<path style="fill:#FFFFFF;" d="M431.071,369.814c-0.922,0.313-2.754-7.666-2.754-7.666S432.048,369.482,431.071,369.814z"/>
				<path style="fill:#FFFFFF;" d="M434.258,365.638c-0.908,0.338-3.077-7.586-3.077-7.586S435.221,365.279,434.258,365.638z"/>
				<path style="fill:#FFFFFF;" d="M423.905,375.785c-0.703,0.571-6.21-6.23-6.21-6.23S424.651,375.179,423.905,375.785z"/>
				<path style="fill:#FFFFFF;" d="M427.008,374.488c-0.703,0.571-6.21-6.23-6.21-6.23S427.753,373.882,427.008,374.488z"/>
				<path style="fill:#FFFFFF;" d="M424.821,382.833c-0.703,0.571-6.21-6.23-6.21-6.23S425.567,382.227,424.821,382.833z"/>
				<path style="fill:#FFFFFF;" d="M425.954,383.579c-0.946-0.257,4.317-7.207,4.317-7.207S426.957,383.851,425.954,383.579z"/>
				<path style="fill:#FFFFFF;" d="M424.464,392.83c-0.984,0.143-0.577-7.968-0.577-7.968S425.508,392.678,424.464,392.83z"/>
				<path style="fill:#FFFFFF;" d="M421.767,391.249c-0.703,0.571-6.21-6.23-6.21-6.23S422.513,390.643,421.767,391.249z"/>
				<path style="fill:#FFFFFF;" d="M420.311,384.742c-0.703,0.571-6.21-6.23-6.21-6.23S421.057,384.137,420.311,384.742z"/>
				<path style="fill:#FFFFFF;" d="M417.793,392.008c-0.703,0.571-6.21-6.23-6.21-6.23S418.539,391.402,417.793,392.008z"/>
				<path style="fill:#FFFFFF;" d="M437.944,369.953c-0.634-0.515,7.131-4.435,7.131-4.435S438.616,370.499,437.944,369.953z"/>
				<path style="fill:#FFFFFF;" d="M438.227,376.776c-0.458-0.623,8.258-2.917,8.258-2.917S438.713,377.438,438.227,376.776z"/>
				<path style="fill:#FFFFFF;" d="M431.686,375.35c-0.458-0.623,8.258-2.917,8.258-2.917S432.172,376.011,431.686,375.35z"/>
				<path style="fill:#FFFFFF;" d="M430.387,381.348c-0.458-0.623,8.258-2.917,8.258-2.917S430.873,382.009,430.387,381.348z"/>
				<path style="fill:#FFFFFF;" d="M429.671,388.737c-0.458-0.623,8.258-2.917,8.258-2.917S430.157,389.398,429.671,388.737z"/>
				<path style="fill:#FFFFFF;" d="M425.962,393.163c-0.073-0.722,9.009,0.248,9.009,0.248S426.04,393.928,425.962,393.163z"/>
				<path style="fill:#FFFFFF;" d="M435.875,383.399c-0.192-0.707,8.975-0.711,8.975-0.711S436.078,384.149,435.875,383.399z"/>
				<path style="fill:#FFFFFF;" d="M433.825,391.655c-0.192-0.707,8.975-0.711,8.975-0.711S434.028,392.405,433.825,391.655z"/>
			</g>
			<g>
				<path style="fill:#7FBDD3;" d="M397.862,402.04c0,0-13.643-11.885-14.541-28.276c-0.899-16.392,2.27-21.805,9.855-18.668
					c7.585,3.137,14.822,26.755,15.77,35.922S408.592,403.376,397.862,402.04z"/>
				<path style="fill:#FFFFFF;" d="M388.609,359.519c-0.67,0.609-6.546-5.876-6.546-5.876S389.32,358.873,388.609,359.519z"/>
				<path style="fill:#FFFFFF;" d="M388.211,365.025c-0.345,0.76-8.879-3.425-8.879-3.425S388.577,364.219,388.211,365.025z"/>
				<path style="fill:#FFFFFF;" d="M386.296,371.704c-0.345,0.76-8.878-3.425-8.878-3.425S386.661,370.898,386.296,371.704z"/>
				<path style="fill:#FFFFFF;" d="M390.492,369.413c-0.345,0.76-8.878-3.425-8.878-3.425S390.857,368.607,390.492,369.413z"/>
				<path style="fill:#FFFFFF;" d="M387.185,379.029c-0.135,0.797-9.643-1.792-9.643-1.792S387.329,378.184,387.185,379.029z"/>
				<path style="fill:#FFFFFF;" d="M389.3,375.421c-0.135,0.797-9.643-1.792-9.643-1.792S389.443,374.575,389.3,375.421z"/>
				<path style="fill:#FFFFFF;" d="M392.239,383.617c-0.135,0.797-9.643-1.792-9.643-1.792S392.382,382.772,392.239,383.617z"/>
				<path style="fill:#FFFFFF;" d="M390.18,386.004c0.104,0.795-9.961,0.111-9.961,0.111S390.07,385.161,390.18,386.004z"/>
				<path style="fill:#FFFFFF;" d="M391.667,392.433c0.104,0.795-9.961,0.111-9.961,0.111S391.557,391.59,391.667,392.433z"/>
				<path style="fill:#FFFFFF;" d="M396.512,390.802c-0.192,0.791-9.482-2.238-9.482-2.238S396.716,389.964,396.512,390.802z"/>
				<path style="fill:#FFFFFF;" d="M394.694,360.503c-0.662-0.479,6.874-4.824,6.874-4.824S395.395,361.011,394.694,360.503z"/>
				<path style="fill:#FFFFFF;" d="M392.109,357.294c-0.9-0.048,1.904-7.104,1.904-7.104S393.063,357.345,392.109,357.294z"/>
				<path style="fill:#FFFFFF;" d="M398.619,366.055c-0.734-0.407,6.088-5.462,6.088-5.462S399.397,366.486,398.619,366.055z"/>
				<path style="fill:#FFFFFF;" d="M393.501,366.375c-0.734-0.407,6.088-5.462,6.088-5.462S394.28,366.806,393.501,366.375z"/>
				<path style="fill:#FFFFFF;" d="M395.433,372.649c-0.734-0.407,6.088-5.462,6.088-5.462S396.211,373.081,395.433,372.649z"/>
				<path style="fill:#FFFFFF;" d="M394.997,376.597c-0.633,0.531-5.639-5.508-5.639-5.508S395.669,376.034,394.997,376.597z"/>
				<path style="fill:#FFFFFF;" d="M396.232,383.89c-0.633,0.531-5.639-5.508-5.639-5.508S396.904,383.326,396.232,383.89z"/>
				<path style="fill:#FFFFFF;" d="M398.375,393.413c-0.901,0.078,0.343-7.227,0.343-7.227S399.331,393.33,398.375,393.413z"/>
				<path style="fill:#FFFFFF;" d="M397.599,380.109c-0.734-0.407,6.088-5.462,6.088-5.462S398.377,380.541,397.599,380.109z"/>
				<path style="fill:#FFFFFF;" d="M401.336,388.092c-0.734-0.407,6.088-5.462,6.088-5.462S402.115,388.524,401.336,388.092z"/>
				<path style="fill:#FFFFFF;" d="M401.496,373.843c-0.734-0.407,6.088-5.462,6.088-5.462S402.274,374.274,401.496,373.843z"/>
				<path style="fill:#FFFFFF;" d="M404.316,381.055c-0.762-0.373,5.715-5.713,5.715-5.713S405.123,381.45,404.316,381.055z"/>
				<path style="fill:#FFFFFF;" d="M405.822,388.343c-0.762-0.373,5.715-5.713,5.715-5.713S406.63,388.739,405.822,388.343z"/>
				<path style="fill:#FFFFFF;" d="M405.962,395.182c-0.583-0.541,7.526-4.14,7.526-4.14S406.58,395.756,405.962,395.182z"/>
			</g>
			<polygon style="fill:#B6B6EF;" points="430.713,440.189 394.38,440.189 389.812,394.809 435.38,394.809 			"/>
		</g>
		<g>
			<g>
				<circle style="fill:#FF8AA0;" cx="403.467" cy="191.589" r="43.379"/>
				<circle style="fill:#FFB6C6;" cx="403.467" cy="191.589" r="37.116"/>
			</g>
			<g>
				<g>
					<rect x="402.337" y="155.543" style="fill:#FFFFFF;" width="2.261" height="10.5"/>
					<rect x="402.337" y="216.69" style="fill:#FFFFFF;" width="2.261" height="10.5"/>
					
						<rect x="371.764" y="186.117" transform="matrix(4.505380e-11 -1 1 4.505380e-11 181.5274 564.2606)" style="fill:#FFFFFF;" width="2.261" height="10.5"/>
					
						<rect x="432.91" y="186.117" transform="matrix(4.505380e-11 -1 1 4.505380e-11 242.6743 625.4075)" style="fill:#FFFFFF;" width="2.261" height="10.5"/>
					<polygon style="fill:#FFFFFF;" points="383.441,171.972 382.17,173.871 376.128,168.412 377.644,166.735 					"/>
					<polygon style="fill:#FFFFFF;" points="430.807,214.766 429.291,216.444 423.679,211.373 425.356,209.842 					"/>
					<polygon style="fill:#FFFFFF;" points="421.709,170.421 423.055,172.262 428.973,166.586 427.408,164.954 					"/>
					<polygon style="fill:#FFFFFF;" points="375.701,214.55 377.266,216.181 383.24,210.451 381.596,208.895 					"/>
				</g>
				<g>
					
						<rect x="393.244" y="171.633" transform="matrix(-0.681 0.7323 -0.7323 -0.681 797.3396 19.7176)" style="fill:#FFFFFF;" width="2.261" height="23.807"/>
					<rect x="402.337" y="190.236" style="fill:#FFFFFF;" width="15.245" height="2.261"/>
				</g>
			</g>
		</g>
		<g>
			<g>
				<rect x="65.087" y="98.083" style="fill:#A1A1E7;" width="114" height="73.333"/>
				<rect x="67.42" y="100.417" style="fill:#B6B6EF;" width="108.833" height="68.167"/>
			</g>
			<g>
				<g>
					<rect x="126.087" y="112.886" style="fill:#6E448C;" width="43.386" height="1.864"/>
					<rect x="126.087" y="120.017" style="fill:#6E448C;" width="43.386" height="1.864"/>
					<rect x="126.087" y="127.148" style="fill:#6E448C;" width="43.386" height="1.864"/>
				</g>
				<g>
					<rect x="67.42" y="100.417" style="fill:#6E448C;" width="108.833" height="6.583"/>
					<circle style="fill:#FFFFFF;" cx="73.774" cy="103.708" r="1.729"/>
					<circle style="fill:#FFFFFF;" cx="81.649" cy="103.708" r="1.729"/>
					<circle style="fill:#FFFFFF;" cx="89.524" cy="103.708" r="1.729"/>
					<g>
						<polygon style="fill:#FFFFFF;" points="169.472,102.103 170.722,102.103 173.702,105.691 172.493,105.691 						"/>
						<polygon style="fill:#FFFFFF;" points="173.702,102.103 172.452,102.103 169.472,105.691 170.785,105.691 						"/>
					</g>
				</g>
				<rect x="70.92" y="111.917" style="fill:#FFFFFF;" width="49.397" height="19.333"/>
				<g>
					<rect x="70.92" y="135.583" style="fill:#FFFFFF;" width="22.888" height="30.333"/>
					<rect x="70.92" y="135.583" style="fill:#6E448C;" width="22.888" height="10.167"/>
				</g>
				<g>
					<rect x="97.43" y="135.583" style="fill:#FFFFFF;" width="22.888" height="30.333"/>
					<rect x="97.43" y="135.583" style="fill:#6E448C;" width="22.888" height="10.167"/>
				</g>
				<g>
					<rect x="123.939" y="135.583" style="fill:#FFFFFF;" width="22.888" height="30.333"/>
					<rect x="123.939" y="135.583" style="fill:#6E448C;" width="22.888" height="10.167"/>
				</g>
				<g>
					<rect x="150.449" y="135.583" style="fill:#FFFFFF;" width="22.888" height="30.333"/>
					<rect x="150.449" y="135.583" style="fill:#6E448C;" width="22.888" height="10.167"/>
				</g>
			</g>
		</g>
		<g>
			<polygon style="fill:#FF8AA0;" points="113.061,436.501 79.318,436.501 75.076,378.72 117.395,378.72 			"/>
			<polygon style="fill:#71A8C6;" points="76.325,402.748 116.002,403.272 114.429,421.27 77.912,421.27 			"/>
			<rect x="72.92" y="375.045" style="fill:#71A8C6;" width="45.667" height="6.162"/>
			<rect x="80.273" y="370.185" style="fill:#71A8C6;" width="31.854" height="6.162"/>
		</g>
		<g>
			<circle style="fill:#FFB6C6;" cx="237.345" cy="84.92" r="24.586"/>
			<path style="fill:#FF8AA0;" d="M237.345,84.92l8.318-23.14c-2.598-0.934-5.398-1.446-8.318-1.446
				c-7.638,0-14.462,3.482-18.971,8.946L237.345,84.92z"/>
			<path style="fill:#B6B6EF;" d="M237.345,84.92l-18.971-15.64l0,0c-3.508,4.25-5.615,9.699-5.615,15.64
				c0,4.488,1.208,8.691,3.309,12.313L237.345,84.92z"/>
		</g>
		<g>
			<circle style="fill:#FFFFFF;" cx="381.699" cy="86.811" r="3.555"/>
			<circle style="fill:#FFFFFF;" cx="271.679" cy="114.638" r="3.555"/>
			<circle style="fill:#FFFFFF;" cx="329.489" cy="170.303" r="3.555"/>
			<circle style="fill:#FFFFFF;" cx="67.42" cy="262.106" r="3.555"/>
			<circle style="fill:#FFFFFF;" cx="173.702" cy="195" r="3.555"/>
			<circle style="fill:#FFFFFF;" cx="144.866" cy="320.893" r="3.555"/>
			<circle style="fill:#FFFFFF;" cx="36.92" cy="370.185" r="3.555"/>
			<circle style="fill:#FFFFFF;" cx="52.35" cy="191.589" r="3.555"/>
			<circle style="fill:#FFFFFF;" cx="370.825" cy="245.406" r="3.555"/>
			<circle style="fill:#FFFFFF;" cx="446.847" cy="343.703" r="3.555"/>
			<circle style="fill:#FFFFFF;" cx="318.006" cy="265.661" r="3.555"/>
		</g>
		<g>
			<rect x="363.254" y="105.833" style="fill:#FFFFFF;" width="3" height="3"/>
			<path style="fill:#FFFFFF;" d="M406.098,135.733h-3v-6.324h3V135.733z M406.098,125.193h-3v-6.324h3V125.193z M403.063,114.809
				c-0.18-1.738-1.023-3.314-2.375-4.438l1.918-2.308c1.958,1.628,3.181,3.914,3.441,6.437L403.063,114.809z M397.603,108.937
				c-0.385-0.069-0.781-0.104-1.177-0.104h-4.876v-3h4.876c0.572,0,1.146,0.051,1.704,0.15L397.603,108.937z M387.334,108.833
				h-6.324v-3h6.324V108.833z M376.794,108.833h-6.324v-3h6.324V108.833z"/>
			<rect x="403.098" y="139.964" style="fill:#FFFFFF;" width="3" height="3"/>
		</g>
		<path style="fill:#FFFFFF;" d="M56.92,147.25h-3.658v-3h3.658V147.25z M49.262,147.25h-6v-3h6V147.25z M39.262,147.25H35.42
			v-5.158h3v2.158h0.842V147.25z M38.42,138.092h-3v-6h3V138.092z M38.42,128.092h-3v-6h3V128.092z M38.42,118.092h-3v-6h3V118.092z
			 M38.42,108.092h-3v-6h3V108.092z M38.42,98.092h-3v-6h3V98.092z M38.496,88.304l-2.972-0.413c0.324-2.329,1.368-4.45,3.021-6.135
			l2.142,2.101C39.488,85.079,38.73,86.617,38.496,88.304z M208.84,82.165l-6-0.025l0.013-3l6,0.025L208.84,82.165z M198.84,82.123
			l-6-0.025l0.013-3l6,0.025L198.84,82.123z M188.84,82.081l-6-0.025l0.013-3l6,0.025L188.84,82.081z M178.841,82.038l-6-0.025
			l0.013-3l6,0.025L178.841,82.038z M43.472,82.016l-1.088-2.796c1.264-0.492,2.597-0.741,3.962-0.741l2.508,0.01l-0.013,3
			l-2.461-0.01C45.354,81.479,44.387,81.659,43.472,82.016z M168.841,81.996l-6-0.025l0.013-3l6,0.025L168.841,81.996z
			 M158.841,81.954l-6-0.025l0.013-3l6,0.025L158.841,81.954z M148.841,81.912l-6-0.025l0.013-3l6,0.025L148.841,81.912z
			 M138.841,81.869l-6-0.025l0.013-3l6,0.025L138.841,81.869z M128.841,81.827l-6-0.025l0.013-3l6,0.025L128.841,81.827z
			 M118.841,81.785l-6-0.025l0.013-3l6,0.025L118.841,81.785z M108.841,81.743l-6-0.025l0.013-3l6,0.025L108.841,81.743z
			 M98.841,81.7l-6-0.025l0.013-3l6,0.025L98.841,81.7z M88.841,81.658l-6-0.025l0.013-3l6,0.025L88.841,81.658z M78.841,81.616
			l-6-0.025l0.013-3l6,0.025L78.841,81.616z M68.841,81.573l-6-0.025l0.013-3l6,0.025L68.841,81.573z M58.842,81.531l-6-0.025
			l0.013-3l6,0.025L58.842,81.531z"/>
		<path style="fill:#FFFFFF;" d="M42.087,326.908h-6v-3h6V326.908z M32.087,326.908h-4.833v-4.166h3v1.166h1.833V326.908z
			 M30.253,318.742h-3v-6h3V318.742z M30.253,308.742h-3v-6h3V308.742z M30.253,298.742h-3v-6h3V298.742z M30.253,288.742h-3v-6h3
			V288.742z M30.253,278.742h-3v-6h3V278.742z M30.253,268.742h-3v-6h3V268.742z M30.253,258.742h-3v-6h3V258.742z M30.253,248.742
			h-3v-6h3V248.742z M30.253,238.742h-3v-2.477c0-1.369,0.243-2.707,0.721-3.977l2.808,1.058c-0.351,0.931-0.528,1.913-0.528,2.919
			V238.742z M32.582,230.504l-2.157-2.084c1.628-1.686,3.699-2.808,5.988-3.246l0.563,2.946
			C35.297,228.441,33.778,229.266,32.582,230.504z M66.659,228.353l-5.999-0.082l0.041-3l5.999,0.082L66.659,228.353z
			 M56.66,228.217l-5.999-0.082l0.041-3l5.999,0.082L56.66,228.217z M46.661,228.081l-6-0.082l0.041-3l6,0.082L46.661,228.081z"/>
		<path style="fill:#FFFFFF;" d="M462.919,314h-5.539v-3h5.539c0.126,0,0.251-0.003,0.375-0.01l0.172,2.994
			C463.285,313.995,463.104,314,462.919,314z M453.38,314h-6v-3h6V314z M443.38,314h-6v-3h6V314z M433.38,314h-6v-3h6V314z
			 M467.936,312.625l-1.533-2.578c1.429-0.85,2.498-2.184,3.011-3.757l2.852,0.93C471.527,309.485,469.989,311.405,467.936,312.625z
			 M469.72,302.829l-0.124-5.998l3-0.063l0.124,5.998L469.72,302.829z M469.513,292.831l-0.124-5.998l3-0.063l0.124,5.998
			L469.513,292.831z M469.306,282.834l-0.124-5.999l3-0.063l0.124,5.999L469.306,282.834z M469.1,272.836l-0.124-5.999l3-0.063
			l0.124,5.999L469.1,272.836z M468.893,262.838l-0.124-5.999l3-0.063l0.124,5.999L468.893,262.838z M468.686,252.84l-0.124-5.999
			l3-0.062l0.124,5.999L468.686,252.84z M468.479,242.842l-0.124-5.999l3-0.063l0.124,5.999L468.479,242.842z M468.272,232.844
			l-0.124-5.999l3-0.063l0.124,5.999L468.272,232.844z M468.065,222.847l-0.124-6l3-0.062l0.124,5.999L468.065,222.847z
			 M467.859,212.848l-0.124-5.998l3-0.062l0.124,5.999L467.859,212.848z M467.652,202.851l-0.097-4.677
			c-0.006-0.344-0.046-0.684-0.12-1.017l2.93-0.649c0.116,0.528,0.181,1.069,0.19,1.609l0.097,4.671L467.652,202.851z
			 M465.923,194.5c-0.967-0.91-2.23-1.411-3.558-1.411h-0.945v-3h0.945c2.095,0,4.088,0.791,5.614,2.226L465.923,194.5z
			 M457.42,193.089h-6v-3h6V193.089z"/>
		<g>
			<g>
				<path style="fill:#E29B8D;" d="M266.15,256.55c-0.469,0.295-0.944,0.583-1.429,0.862c-8.012,4.603-17.795,4.645-26.049,0.492
					c-1.221-0.614-2.503-1.378-3.813-2.252c-0.09,6.379-1.253,13.709-5.442,18.134c-2.56,2.704,0.114,7.28,5.416,10.599
					l33.123-1.062c4.487-2.361,6.715-4.595,6.715-4.595S266.502,272.368,266.15,256.55z"/>
				<g>
					<g>
						<g>
							<g>
								<path style="fill:#EAB2A5;" d="M300.151,209.149c-1.434-4.954-6.867-2.433-6.867-2.433
									c1.564-16.948-0.955-64.836-47.887-61.446c-46.932,3.39-39.023,61.62-39.023,61.62c-6.019-2.955-9.534,3.567-5.275,14.428
									c3.884,9.907,12.488,8.168,12.488,8.168c5.242,12.069,13.792,21.175,21.271,26.166c1.311,0.875,2.592,1.638,3.813,2.252
									c8.254,4.154,18.037,4.112,26.049-0.492c0.485-0.279,0.961-0.567,1.429-0.862c15.253-9.603,21.747-27.412,21.747-27.412
									C298.674,231.92,301.585,214.103,300.151,209.149z"/>
							</g>
							<path style="fill:#BC6262;" d="M297.704,209.776c0.28,0.319-1.102-1.679-2.614-0.649c-1.512,1.031-2.162,4.739-1.269,5.975
								s1.993,3.985,0.069,5.222c-1.924,1.237-1.368,1.855-1.368,1.855s0.819-1.099,2.227-1.58c1.408-0.481,1.414-2.946,0-4.878
								C293.335,213.789,295.292,207.027,297.704,209.776z"/>
							<path style="fill:#BC6262;" d="M202.309,210.054c-0.244,0.347,0.915-1.788,2.529-0.926c1.614,0.862,2.66,4.478,1.905,5.804
								s-1.552,4.176,0.494,5.199c2.046,1.022,1.559,1.697,1.559,1.697s-0.932-1.005-2.384-1.331
								c-1.452-0.326-1.723-2.777-0.525-4.85S204.411,207.06,202.309,210.054z"/>
						</g>
					</g>
					<g>
						<path style="fill:#BC6262;" d="M245.891,225.193c0,0,0.779,3.318,4.993,3.318c4.855,0,5.863-3.318,5.863-3.318
							s-1.892,2.153-5.84,2.13C248.182,227.307,245.891,225.193,245.891,225.193z"/>
						<ellipse style="fill:#E29F91;" cx="227.808" cy="222.835" rx="4.707" ry="3.696"/>
						<g>
							<path style="fill:#772238;" d="M223.94,204.623c0.423-1.261,1.348-2.159,2.412-2.581c0.944-0.374,2.369-0.81,4.356-1.101
								c6.194-0.909,7.505,2.34,6.131,3.565c-1.374,1.225-2.254-0.262-6.156,0.45C227.16,205.598,222.984,207.469,223.94,204.623z"
								/>
							<g>
								<circle style="fill:#772238;" cx="231.423" cy="212.981" r="4.109"/>
								<path style="fill:#772238;" d="M230.369,209.013c0,0-2.878,0.33-3.055-0.659c-0.177-0.989-0.643,0.257-0.262,0.955
									c0.404,0.741,0.939,1.426,2.332,1.157C230.777,210.197,230.859,209.447,230.369,209.013z"/>
								<path style="fill:#772238;" d="M229.403,210.429c0,0-2.878,0.33-3.055-0.659c-0.177-0.989-0.643,0.257-0.262,0.955
									c0.404,0.741,0.939,1.426,2.332,1.157C229.811,211.612,229.893,210.863,229.403,210.429z"/>
							</g>
						</g>
						<ellipse style="fill:#E29F91;" cx="273.546" cy="222.835" rx="4.707" ry="3.696"/>
						<g>
							<path style="fill:#772238;" d="M277.415,204.623c-0.423-1.261-1.348-2.159-2.412-2.581c-0.944-0.374-2.369-0.81-4.356-1.101
								c-6.194-0.909-7.505,2.34-6.131,3.565s2.254-0.262,6.156,0.45C274.195,205.598,278.37,207.469,277.415,204.623z"/>
							<g>
								<circle style="fill:#772238;" cx="269.931" cy="212.981" r="4.109"/>
								<path style="fill:#772238;" d="M270.986,209.013c0,0,2.878,0.33,3.055-0.659c0.177-0.989,0.643,0.257,0.262,0.955
									c-0.404,0.741-0.939,1.426-2.332,1.157C270.577,210.197,270.495,209.447,270.986,209.013z"/>
								<path style="fill:#772238;" d="M271.952,210.429c0,0,2.878,0.33,3.055-0.659c0.177-0.989,0.643,0.257,0.262,0.955
									c-0.404,0.741-0.939,1.426-2.332,1.157C271.543,211.612,271.461,210.863,271.952,210.429z"/>
							</g>
						</g>
						<path style="fill:#772238;" d="M243.73,239.66c3.749,4.798,11.916,4.967,15.374-0.253c0.891-1.345-1.273-2.598-2.159-1.262
							c-2.637,3.98-8.755,3.192-11.448-0.253C244.508,236.625,242.75,238.406,243.73,239.66L243.73,239.66z"/>
					</g>
				</g>
				<path style="fill:#FF4C69;" d="M283.416,155.384c-2.15-1.863-4.38-3.034-6.477-3.671c-1.185-0.385-2.325-0.592-3.392-0.603
					c-0.445-0.618-0.92-1.237-1.456-1.86c-8.288-9.622-28.546-6.277-39.574-2.549l-0.001,0c0,0-25.658,1.632-33.293,39.965
					c-7.635,38.333,0.549,98.842,0.549,98.842l35.061-1.124c-5.303-3.32-7.976-7.895-5.416-10.599
					c4.189-4.425,5.352-11.755,5.442-18.134c-3.836-2.56-7.951-6.209-11.76-10.778c-7.98-18.117-0.931-39.87-0.93-39.874
					c3.945-8.811,10.829-15.521,22.446-16.404c19.997-1.52,25.422-8.102,26.777-12.505c0.904,3.544,3.126,8.944,8.529,11.911
					c5.573,3.06,6.386,12.398,6.286,18.467c-0.259,1.865-0.366,3.717-0.352,5.427c-0.003,0.027-0.006,0.047-0.006,0.047l0.006-0.004
					c0.044,4.455,0.912,7.913,2.085,7.913c1.144,0,2.339-4.474,3.075-7.835c0.206-0.87,1.279-4.679,4.473-5.893
					c1.679-0.2,3.837,0.165,4.665,3.026c1.434,4.954-1.478,22.771-12.254,19.99c0,0-6.494,17.809-21.747,27.412
					c0.352,15.818,8.522,22.178,8.522,22.178s-2.228,2.234-6.715,4.595l30.876-0.99c0,0,3.572-41.357,3.83-76.179
					C302.852,180.625,293.004,163.015,283.416,155.384z M201.099,221.318c-4.259-10.862-0.744-17.383,5.275-14.428v0
					c0,0,4.386,3.605,4.465,14.111c0,0.002,0,0.003,0,0.004c-0.004,2.751,0.015,5.616,0.052,8.534
					C208.032,229.237,203.594,227.68,201.099,221.318z"/>
			</g>
			<g>
				<g>
					<path style="fill:#EAB2A5;" d="M359.323,337.001l2.064,2.817c0,0,4.336,2.728,12.702-0.888
						c8.366-3.615,15.88-20.328,17.866-26.459c1.986-6.13,1.55-8.845,2.806-13.519c1.256-4.674-4.262-15.676-7.1-22.663
						c-2.838-6.988-7.998-6.104-10.173-5.647s-10.255,24.973-11.555,27.217C364.634,300.104,355.516,319.993,359.323,337.001z"/>
					<g>
						
							<rect x="345.292" y="269.611" transform="matrix(0.9754 0.2205 -0.2205 0.9754 74.0373 -76.9943)" style="fill:#CACAFC;" width="73.349" height="47.184"/>
						<polygon style="fill:#D7D7FF;" points="351.396,262.106 381.967,293.203 422.94,278.277 						"/>
						<polygon style="fill:#D7D7FF;" points="381.967,293.203 340.993,308.129 412.538,324.299 						"/>
					</g>
					<path style="fill:#EAB2A5;" d="M356.235,336.614c0,0-2.594-16.961-2.767-19.531c-0.172-2.57,1.917-9.026,2.17-12.119
						c0.252-3.093,4.34-3.013,8.548-10.813c1.6-2.966,5.607,1.562,3.138,6.19c-2.469,4.628-4.882,7.774-2.958,10.41
						s5.204,5.054,6.337,10.763C371.835,327.223,364.991,347.603,356.235,336.614z"/>
				</g>
				<g>
					<g>
						<path style="fill:#3A1751;" d="M304.772,365.094c0,0,10.215,38.596,14.529,49.38c4.314,10.785,9.903,10.938,16.267,9.347
							c11.863-2.966,39.734-78.906,42.161-85.646c0,0-17.832-1.825-23.224-6.679c0,0-13.979,25.011-15.432,25.82
							c-1.453,0.809-10.439-41.021-10.439-41.021S300.398,331.441,304.772,365.094z"/>
						<path style="fill:#3A1751;" d="M197.076,317.773c0,0,6.341,12.608,6.7,20.157c0.359,7.549-0.637,16.085,6.78,32.494
							c6.83,15.111,2.516,38.118,2.516,38.118l40.083,2.337l-0.429-122.713C252.726,288.166,197.794,306.988,197.076,317.773z"/>
						<path style="fill:#3A1751;" d="M305.937,317.773c0,0-6.341,12.608-6.7,20.157c-0.359,7.549,0.637,16.085-6.78,32.494
							c-6.83,15.111-2.516,38.118-2.516,38.118l-40.083,2.337l0.429-122.713C250.286,288.166,305.218,306.988,305.937,317.773z"/>
						<path style="fill:#3A1751;" d="M231.786,270.421c0,0-23.746,9.695-40.192,15.088c-16.446,5.392-24.805,39.903-27.501,46.913
							c-2.696,7.01-14.02,73.065-14.02,81.963s17.525,12.133,58.776,11.054s44.217-2.966,44.217-2.966s-6.201-7.28-3.505-22.378
							c0,0-62.011-10.695-63.629-11.504s17.795-51.856,18.334-54.013c0.539-2.157,41.008-33.622,51.227-48.396
							C255.492,286.183,236.119,283.373,231.786,270.421z"/>
						<path style="fill:#3A1751;" d="M269.375,268.215c0,0,23.746,9.695,40.192,15.088c16.446,5.392,22.318,47.306,23.936,54.64
							c2.022,9.167-20.95,51.773-21.393,50.02c-0.944-3.73-17.255-52.844-17.795-55.001c-0.539-2.157-38.429-34.211-48.647-48.985
							C245.669,283.976,265.042,281.167,269.375,268.215z"/>
						<path style="fill:#441D63;" d="M233.554,265.897l-6.101,6.269c0,0,5.526,13.343,21.118,13.343
							c15.952,0,22.053-11.095,23.518-16.197l-5.215-5.775c0,0-4.632,11.306-16.102,11.592
							C239.147,275.418,233.554,265.897,233.554,265.897z"/>
						<path style="fill:#230B33;" d="M159.914,389.849c0,0,14.421-3.576,26.018-1.258l0.584-3.515
							C186.515,385.076,167.867,386.21,159.914,389.849z"/>
						<path style="fill:#230B33;" d="M341.778,353.277c0,0-6.66,11.228-11.873,20.755c-5.213,9.526-5.752,18.334-5.752,18.334
							s-0.1-16.345,13.251-39.088c0,0,0.867,3.324,1.488,3.589S341.778,353.277,341.778,353.277z"/>
						<path style="fill:#441D63;" d="M355.247,330.053l-4.042,6.211c0,0,0.337,4.179,10.245,7.077
							c9.908,2.898,14.509,1.711,14.509,1.711l2.342-8.249C378.301,336.803,363.805,336.581,355.247,330.053z"/>
						<path style="fill:#441D63;" d="M249.897,399.353c0,0-2.415,16.068,3.989,23.685l-11.332,1.081c0,0-2.273-5.218-1.802-15.127
							c0.472-9.908,0.315-10.65,0.315-10.65L249.897,399.353z"/>
						<polygon style="fill:#1D0828;" points="214.403,393.947 241.091,398.928 241.068,398.342 214.415,392.007 						"/>
						<path style="fill:#1D0828;" d="M233.024,376.548c0,0,12.762-5.778,18.873-6.124s26,6.124,26,6.124
							S254.953,370.078,233.024,376.548z"/>
						<path style="fill:#230B33;" d="M203.776,337.93c0,0,0.309-13.147-4.004-19.438
							C199.772,318.492,206.342,318.005,203.776,337.93z"/>
						<path style="fill:#230B33;" d="M298.832,345.296c0,0,2.442-19.672,7.66-26.793
							C306.493,318.502,299.25,320.769,298.832,345.296z"/>
					</g>
					<g>
						<path style="fill:#EAB2A5;" d="M286.947,402.971c1.438-0.359,20.491,3.415,25.164,2.876c4.673-0.539,2.794-4.648,1.618-5.752
							s-16.716-3.595-19.951-4.314c-3.235-0.719-23.546,0-27.501,0c-3.631,0-14.682,3.635-16.465,4.23
							c-0.367,3.078-1.555,16.276,4.045,22.99c5.594,3.432,18.04,2.705,22.665,2.638c4.853-0.07,7.145,0.744,12.133,1.553
							c4.988,0.809,5.999-0.202,6.066-1.483c0.067-1.281-3.101-3.101-8.223-3.977c-5.123-0.876-6.471-2.224-6.74-2.404
							c-0.27-0.18,3.056-0.809,4.943-0.449c1.887,0.359,7.819,1.528,11.324,2.966c3.505,1.438,8.268-0.899,7.909-2.606
							c-0.359-1.708-5.033-3.685-5.932-3.773c-0.899-0.088-6.291-2.069-7.01-2.158c-0.719-0.09-7.819-1.168-7.729-1.528
							c0.09-0.359,5.392-0.629,6.388-0.539c0.995,0.09,10.508,1.528,11.407,1.618c0.899,0.09,3.415,2.516,7.549,2.606
							c4.134,0.09,3.954-3.775,3.146-3.864c-0.809-0.09-2.876-2.516-4.314-3.056c-1.438-0.539-6.74-2.337-12.133-3.325
							C289.913,404.229,285.509,403.33,286.947,402.971z"/>
					</g>
				</g>
			</g>
		</g>
		<g>
			<polygon style="fill:#FF8AA0;" points="322.442,440.03 184.556,440.03 182.072,356.654 324.238,356.654 			"/>
			<polygon style="fill:#FF4C69;" points="322.628,431.397 184.299,431.397 184.556,440.03 322.442,440.03 			"/>
			<ellipse style="fill:#FF4C69;" cx="253.005" cy="392.333" rx="11.915" ry="8.667"/>
		</g>
	</g>
</g>
</svg>
