<?xml version="1.0" encoding="utf-8"?>
<!-- Generator: Adobe Illustrator 27.5.0, SVG Export Plug-In . SVG Version: 6.00 Build 0)  -->
<svg version="1.1" xmlns="http://www.w3.org/2000/svg" xmlns:xlink="http://www.w3.org/1999/xlink" x="0px" y="0px"
	 viewBox="0 0 500 500.001" style="enable-background:new 0 0 500 500.001;" xml:space="preserve">
<g id="BACKGROUND">
	<g>
		<rect y="0.07" style="fill:#E6F0FC;" width="499.999" height="500"/>
		<path style="fill:#FFFFFF;" d="M349.045,398.398c74.404,0,106.127-36.41,113.754-71.314
			c18.74-85.756-44.351-131.184-86.197-126.638c0,0-17.489-70.197-76.827-94.038s-108.681-6.351-108.681-6.351
			S150.719,32.035,78.039,68.203c-77.366,38.499-41.41,145.85,17.656,155.278c0,0-54.85,114.734,40.573,174.917H349.045z"/>
		<path style="fill:#212250;" d="M394.667,398.266c0,14.572-64.77,26.386-144.668,26.386c-79.896,0-144.666-11.814-144.666-26.386
			c0-14.572,64.77-26.385,144.666-26.385C329.897,371.881,394.667,383.693,394.667,398.266z"/>
	</g>
</g>
<g id="OBJECTS">
	<g>
		<g>
			<path style="fill:#84D4D8;" d="M78.667,348.637c-5.913-10.563-14.127-21.122-16.126-33.337c-0.75-3.572-0.815-8.949,3.908-9.699
				c2.953-0.469,5.875,1.551,8.115,3.071c-3.673-6.743-9.058-15.875-6.36-24.05c2.325-7.09,8.885-3.893,13.362-0.852
				c-3.859-6.772-9.398-16.123-5.426-23.896c3.412-6.715,9.849-2.773,14.079,0.611c-1.249-6.34-0.638-20.419,9.309-19.152
				c9.231,0.955,9.709,15.406,9.155,22.215c2.392-1.713,5.529-4.451,8.638-3.552c2.953,0.682,3.95,3.914,3.704,6.556
				c-0.151,5.531-5.215,9.483-8.723,13.308c2.547-0.342,6.899-1.154,9.044,0.927c1.991,1.863,0.814,5.5-0.148,7.833
				c-2.7,5.874-7.794,10.014-12.981,13.56c5.781,0.959,12.062,3.531,8.431,10.404c-2.545,4.944-7.639,7.932-11.957,10.856
				c4.132-0.655,13.112-2.807,14.423,3.158c1.062,5.159-4.28,10.789-7.821,13.651c-6.367,4.884-14.755,8.093-22.15,11.082
				L78.667,348.637z"/>
			<g>
				<path style="opacity:0.7;fill:#42A5B8;" d="M86.515,344.858c-5.436-6.729-12.172-13.599-13.88-22.396
					c-0.582-3-0.246-5.93,2.321-7.855c1.904-1.43,4.46-1.859,6.785-1.857c1.912,0.002,4.247,0.357,5.713,1.69
					c1.616,1.468-0.546,3.65-2.171,3.729c-2.451,0.115-4.527-3.04-5.663-4.789c-1.857-2.858-3.144-6.11-4.045-9.385
					c-0.85-3.09-1.353-6.516-0.571-9.668c1.122-4.521,5.549-8.113,10.255-7.029c2.568,0.593,9.884,4.951,4.959,7.433
					c-2.898,1.461-4.895-3.607-5.602-5.488c-2.253-6.006-2.849-12.859-0.669-18.955c0.879-2.462,2.61-5.818,5.678-5.62
					c1.985,0.13,3.591,1.761,4.702,3.242c1.335,1.778,2.961,5.877,0.886,7.741c-0.888,0.798-1.299-2.637-1.336-3.065
					c-0.117-1.309-0.141-2.628-0.145-3.94c-0.006-3.191,0.226-6.41,0.85-9.542c0.396-1.983,1.192-5.777,3.678-6.139
					c2.758-0.401,3.963,3.794,4.487,5.732c0.801,2.956,1.082,6.071,1.246,9.12c0.151,2.782,0.303,5.791-0.652,8.446
					c-0.238,0.664-1.06,1.866-0.813,0.423c0.271-1.58,1.577-2.971,2.651-4.063c0.806-0.819,2.4-2.538,2.973-0.676
					c0.39,1.274,0.221,2.802,0.116,4.101c-0.185,2.292-0.586,4.541-1.31,6.719c-0.569,1.71-1.262,3.425-2.324,4.891
					c-0.396,0.546-2.132,2.013-1.662,0.322c0.674-2.428,3.381-2.314,4.627-0.549c1.866,2.65,1.214,7.087,0.438,9.994
					c-0.957,3.579-2.74,7.019-4.9,10.014c-1.351,1.87-3.812,5.085-6.478,4.711c-1.082-0.152-2.003-1.447-2.122-2.465
					c-0.118-0.999,1.007-1.729,1.756-2.12c4.108-2.145,12.018-1.445,12.628,4.206c0.292,2.713-1.052,5.565-2.331,7.868
					c-1.491,2.681-3.527,5.193-5.976,7.052c-1.796,1.366-4.481,2.523-6.048,0.245c-1.306-1.899,1.018-2.879,2.538-3.163
					c4.159-0.777,10.518,0.864,11.316,5.686c0.672,4.051-1.899,8.048-4.43,10.937c-2.566,2.931-5.8,5.306-9.144,7.272
					c-0.392,0.231,0.022,0.805,0.411,0.575c6.37-3.748,13.999-9.946,13.928-18.061c-0.044-5.094-5.704-7.161-9.978-7.271
					c-1.626-0.043-3.918,0.165-5.111,1.442c-1.045,1.116-0.6,2.681,0.436,3.663c3.917,3.712,9.669-3.488,11.558-6.244
					c2.586-3.775,5.808-10.54,1.344-14.183c-3.129-2.554-8.973-2.392-12.238-0.189c-3.195,2.156,0.078,6.366,3.279,5.197
					c2.409-0.879,4.262-3.357,5.67-5.367c1.888-2.695,3.403-5.757,4.356-8.907c0.89-2.943,1.217-5.949,0.58-8.98
					c-0.456-2.162-2.721-5.371-5.307-3.601c-1.122,0.768-1.704,1.963-1.696,3.331c0.006,0.962,1.236,0.51,1.678,0.298
					c2.441-1.172,3.475-5.053,4.191-7.398c0.637-2.08,0.913-4.292,1.064-6.457c0.089-1.261,0.449-4.3-1.001-5.043
					c-1.882-0.965-4.439,2.746-5.236,3.953c-0.505,0.765-1.735,2.973-0.517,3.698c1.3,0.776,2.084-2.728,2.2-3.292
					c0.518-2.5,0.352-5.188,0.204-7.725c-0.171-2.916-0.53-5.834-1.254-8.664c-0.505-1.975-1.355-4.658-3.272-5.732
					c-7.373-4.136-8.41,19.243-6.18,23.127c0.375,0.652,1.076,0.72,1.669,0.385c1.115-0.629,1.149-2.612,1.15-3.678
					c0.005-3.405-2.651-6.989-5.747-8.261c-5.163-2.12-7.765,5.076-8.614,8.769c-1.348,5.839-0.225,12.482,2.142,17.916
					c0.817,1.877,2.126,4.27,4.338,4.664c1.846,0.331,3.856-1.506,3.694-3.331c-0.244-2.752-4.095-4.647-6.304-5.434
					c-3.09-1.1-6.396-0.339-8.745,1.958c-4.947,4.845-3.918,11.793-1.903,17.767c0.996,2.953,2.386,5.826,4.208,8.36
					c1.18,1.644,2.761,3.39,4.811,3.856c2.963,0.674,5.492-3.258,2.849-5.244c-2.157-1.623-5.469-1.713-8.025-1.381
					c-2.933,0.383-5.863,1.793-7.194,4.559c-1.989,4.132,0.536,9.928,2.543,13.552c3.03,5.469,7.206,10.133,11.116,14.971
					C86.226,345.621,86.8,345.213,86.515,344.858L86.515,344.858z"/>
			</g>
			<path style="fill:#46AFCF;" d="M88.345,358.377c2.669-3.713,17.686-18.488,7.854-20.486c-3.803-0.819-7.262,0.074-5.407-5.013
				c1.425-3.707,6.165-9.987,3.954-14.278c-2.071-3.854-7.47-1.203-10.186,0.224c1.621-4.917,7.566-12.246,6.358-17.618
				c-1.239-5.174-8.853-1.634-11.94-0.475c1.986-5.893,7.296-18.297-0.826-21.882c-6.171-2.857-13.065,2.66-14.613,8.419
				c-0.99,3.569-0.534,7.165-0.043,10.558c-4.313-1.522-11.613-2.491-9.222,4.524c1.571,4.396,6.366,8.067,9.109,11.616
				c-5.146-0.207-8.363,1.761-5.507,7.191c2.041,4.058,6.157,6.791,9.603,9.833c-8.408-0.525-5.885,5.682-1.858,10.267
				c3.825,4.55,12.413,12.34,16.972,16.18L88.345,358.377z"/>
			<path style="fill:#42A5B8;" d="M94.862,340.705c-2.706,3.894-6.793,6.38-10.257,9.516c-2.993-4.899-5.441-10.292-7.313-15.836
				c0.069-0.011,0.135-0.032,0.199-0.084c2.21-1.86,4.483-3.65,6.695-5.51c2.145-1.802,4.508-3.306,6.528-5.257
				c0.355-0.342-0.185-0.882-0.54-0.54c-1.862,1.799-4.007,3.246-6.032,4.85c-2.393,1.895-4.745,3.858-7.08,5.822
				c-0.558-1.7-1.07-3.412-1.519-5.129c0.001-0.078-0.02-0.153-0.062-0.219c-0.302-1.172-0.582-2.343-0.832-3.511
				c-0.415-1.933-0.752-3.881-1.035-5.835c0.02-0.02,0.042-0.033,0.057-0.059c3.237-4.962,7.402-9.238,11.75-13.232
				c0.363-0.334-0.178-0.872-0.539-0.54c-4.205,3.862-8.219,7.996-11.426,12.737c-1.283-9.697-1.109-19.614-0.672-29.338
				c0.024-0.493-0.739-0.49-0.763,0c-0.35,7.751-0.454,15.527,0.128,23.253c-4.125-3.494-8.189-7.057-12.209-10.671
				c-0.366-0.327-0.907,0.21-0.54,0.541c4.185,3.762,8.415,7.474,12.715,11.105c0.038,0.029,0.075,0.046,0.114,0.061
				c0.32,3.831,0.811,7.648,1.534,11.444c0.225,1.186,0.485,2.372,0.773,3.563c-2.01-0.918-3.882-2.423-5.741-3.559
				c-2.573-1.576-5.057-3.295-7.414-5.185c-0.381-0.304-0.925,0.234-0.54,0.54c2.228,1.784,4.56,3.409,6.972,4.932
				c2.216,1.4,4.508,3.208,6.955,4.193c1.48,5.793,3.673,11.58,6.412,16.926c-4.031-2.147-8.021-4.359-11.825-6.897
				c-0.41-0.275-0.793,0.389-0.384,0.658c4.083,2.726,8.381,5.079,12.715,7.376c0.037,0.018,0.069,0.024,0.103,0.029
				c0.76,1.423,1.556,2.814,2.387,4.157c0.074,0.118,0.179,0.167,0.288,0.175c0.034,0.005,0.068,0.002,0.103-0.002
				c0.002,0,0.002,0,0.002,0c0.071-0.011,0.143-0.034,0.208-0.096c3.592-3.346,7.898-5.905,10.74-9.995
				C95.804,340.686,95.141,340.303,94.862,340.705z"/>
			<g>
				<path style="fill:#FC6D89;" d="M113.739,351.696v26.787c0,8.352-6.771,15.124-15.124,15.124H81.866
					c-8.353,0-15.124-6.773-15.124-15.124v-26.787H113.739z"/>
				<path style="fill:#CF5D7F;" d="M83.12,378.159c-6.169-7.609-9.503-16.855-11.677-26.463h-4.701v26.787
					c0,8.352,6.771,15.124,15.124,15.124h16.749c2.08,0,4.062-0.421,5.864-1.181C96.296,389.872,88.833,385.7,83.12,378.159z"/>
				<path style="fill:#CF5D7F;" d="M66.742,351.696v7.018c0.716,0.47,1.57,0.746,2.491,0.746h42.016c0.92,0,1.775-0.276,2.491-0.746
					v-7.018H66.742z"/>
				<path style="fill:#FC6D89;" d="M115.786,352.118c0,2.507-2.032,4.536-4.538,4.536H69.232c-2.506,0-4.537-2.029-4.537-4.536
					v-4.07c0-2.505,2.031-4.536,4.537-4.536h42.016c2.506,0,4.538,2.031,4.538,4.536V352.118z"/>
			</g>
		</g>
		<g>
			<g>
				<polygon style="opacity:0.3;fill:#212250;" points="335.964,158.346 309.045,156.944 308.078,131.799 334.337,131.799 				"/>
				<rect x="308.078" y="130.652" style="fill:#CBEAED;" width="26.259" height="25.361"/>
				<path style="opacity:0.2;fill:#6DC5D3;" d="M317.291,144.444c-3.436-3.994-6.872-8.814-9.213-13.792v25.36h26.259v-0.381
					C327.598,154.176,321.674,149.541,317.291,144.444z"/>
			</g>
			<g>
				<polygon style="opacity:0.3;fill:#212250;" points="415.136,266.647 388.306,265.164 387.51,240.355 413.767,240.702 				"/>
				
					<rect x="387.805" y="238.931" transform="matrix(0.0132 -0.9999 0.9999 0.0132 143.1444 649.174)" style="fill:#CBEAED;" width="25.361" height="26.259"/>
				<path style="opacity:0.2;fill:#6DC5D3;" d="M396.556,253.12c-3.383-4.038-6.756-8.904-9.03-13.912l-0.335,25.358l26.256,0.348
					l0.006-0.381C406.732,262.988,400.87,258.275,396.556,253.12z"/>
			</g>
			<g>
				<polygon style="opacity:0.3;fill:#212250;" points="457.101,236.144 429.017,234.2 428.844,209.963 455.101,210.31 				"/>
				
					<rect x="429.14" y="208.539" transform="matrix(0.0132 -0.9999 0.9999 0.0132 214.3305 660.52)" style="fill:#CBEAED;" width="25.361" height="26.259"/>
				<path style="opacity:0.2;fill:#6DC5D3;" d="M437.889,222.729c-3.382-4.039-6.755-8.904-9.029-13.912l-0.335,25.358l26.256,0.347
					l0.006-0.381C448.066,232.596,442.204,227.883,437.889,222.729z"/>
			</g>
			<g>
				<polygon style="opacity:0.3;fill:#212250;" points="300.773,121.53 273.643,120.889 272.484,94.655 298.743,94.655 				"/>
				<rect x="272.484" y="93.507" style="fill:#CBEAED;" width="26.259" height="25.361"/>
				<path style="opacity:0.2;fill:#6DC5D3;" d="M281.697,107.3c-3.436-3.994-6.872-8.814-9.213-13.792v25.36h26.259v-0.381
					C292.004,117.032,286.08,112.396,281.697,107.3z"/>
			</g>
			<g>
				<polygon style="opacity:0.3;fill:#212250;" points="103.992,232.011 77.146,229.132 76.652,204.899 102.91,204.899 				"/>
				<rect x="76.652" y="203.751" style="fill:#CBEAED;" width="26.258" height="25.361"/>
				<path style="opacity:0.2;fill:#6DC5D3;" d="M85.865,217.544c-3.437-3.994-6.872-8.814-9.213-13.792v25.36h26.258v-0.381
					C96.172,227.276,90.247,222.641,85.865,217.544z"/>
			</g>
			<g>
				<polygon style="opacity:0.3;fill:#212250;" points="122.258,182.52 95.258,182.189 93.528,155.477 119.786,155.477 				"/>
				<rect x="93.528" y="154.329" style="fill:#CBEAED;" width="26.258" height="25.361"/>
				<path style="opacity:0.2;fill:#6DC5D3;" d="M102.741,168.122c-3.436-3.994-6.872-8.815-9.213-13.792v25.36h26.258v-0.381
					C113.049,177.854,107.124,173.218,102.741,168.122z"/>
			</g>
			<g>
				<polygon style="opacity:0.3;fill:#212250;" points="92.297,129.503 65.45,128.376 64.957,104.143 91.215,104.143 				"/>
				<rect x="64.957" y="102.995" style="fill:#CBEAED;" width="26.258" height="25.361"/>
				<path style="opacity:0.2;fill:#6DC5D3;" d="M74.17,116.788c-3.436-3.994-6.872-8.815-9.213-13.793v25.36h26.258v-0.381
					C84.478,126.52,78.553,121.884,74.17,116.788z"/>
			</g>
			<g>
				<polygon style="opacity:0.3;fill:#212250;" points="67.591,184.562 43.393,181.061 42.9,156.828 69.157,156.828 				"/>
				<rect x="42.9" y="155.681" style="fill:#CBEAED;" width="26.258" height="25.361"/>
				<path style="opacity:0.2;fill:#6DC5D3;" d="M52.112,169.473c-3.437-3.994-6.872-8.814-9.213-13.792v25.36h26.258v-0.381
					C62.419,179.205,56.494,174.57,52.112,169.473z"/>
			</g>
		</g>
		<g>
			<g>
				<g>
					<path style="fill:#A3A6F3;" d="M153.604,135.611c-1.201,2.527-3.933,3.739-6.103,2.708l-14.733-6.999
						c-2.17-1.031-2.956-3.915-1.756-6.442l17.227-36.263c1.201-2.526,3.933-3.739,6.103-2.708l14.733,7
						c2.171,1.03,2.956,3.914,1.756,6.442L153.604,135.611z"/>
					<path style="fill:#EAEFFF;" d="M154.617,128.662c-1.2,2.527-3.933,3.74-6.102,2.709l-11.197-5.32
						c-2.17-1.031-2.956-3.914-1.756-6.442l13.315-28.027c1.2-2.526,3.933-3.74,6.102-2.708l11.197,5.32
						c2.171,1.03,2.955,3.915,1.755,6.442L154.617,128.662z"/>
					<path style="fill:#EAEFFF;" d="M142.868,132.613c-0.451,0.948-1.475,1.403-2.289,1.016c-0.813-0.386-1.108-1.468-0.658-2.416
						c0.45-0.948,1.476-1.403,2.289-1.016C143.023,130.584,143.318,131.665,142.868,132.613z"/>
					<path style="fill:#FFFFFF;" d="M168.392,97.274c-2.359,0.426-4.723,0.845-7.082,1.336c-3.576,0.685-8.09,1.063-11.413,2.99
						c-1.787,0.974-1.818,1.801-0.878,3.369c0.514,0.945,1.78,1.828,0.932,3.106c-1.065,1.737-5.221,1.867-6.682,2.154
						c-1.188,0.216-2.369,0.422-3.549,0.627l-2.562,5.393c4.563-1.048,9.149-1.889,13.782-2.655c1.864-0.377,10.38-0.817,8.28-4.759
						c-1.214-2.26-5.143-4.126-0.641-5.493c2.885-0.892,5.87-1.327,8.84-1.629l0.512-1.078
						C168.463,99.518,168.584,98.339,168.392,97.274z"/>
				</g>
				<path style="fill:#FFC9C5;" d="M152.818,137.737c0,0-1.668-11.262,8.249-17.837c0,0-8.506-4.879-6.89-7.745
					c0.317-0.563,11.461,4.681,14.806,6.354c0.567,0.284-1.874,12.091-8.511,17.878c0,0,1.75,61.585,1.75,68.144
					c0,0.875,16.25,16.375,30.625,19.75s22.375,9.375,25.25,13.625s-2.875,19-21.875,14s-51.25-32.25-54.625-39.75
					S152.818,137.737,152.818,137.737z"/>
				<path style="fill:#F19391;" d="M218.098,237.905c-2.875-4.25-10.875-10.25-25.25-13.625s-30.625-18.875-30.625-19.75
					c0-4.368-0.775-33.142-1.294-51.877c-3.544-1.01-7.052-2.179-10.53-3.407c-3.995,19.477-11.291,57.373-8.801,62.908
					c3.375,7.5,35.625,34.75,54.625,39.75S220.973,242.155,218.098,237.905z"/>
				<path style="fill:#90E7E1;" d="M148.306,152.755c-1.311,0.322-6.804,17.212-8.679,33.912
					c-1.899,16.919-2.769,26.509,1.875,31.394c4.645,4.885,45.964,37.656,61.434,36.842c15.47-0.814,23.782-9.363,15.86-20.151
					c-7.922-10.788-52.786-29.311-53.559-30.329c-0.771-1.018-1.179-46.205-2.197-48.037
					C162.022,154.555,150.623,152.187,148.306,152.755z"/>
				<path style="fill:#50C9D1;" d="M218.796,234.753c-1.845-2.513-5.696-5.446-10.526-8.479c-3.501,1.491-6.734,3.368-9.967,5.677
					c-5.193,3.895-10.2,7.604-16.32,9.644c-2.171,0.735-4.396,1.295-6.653,1.702c10.674,6.677,21.293,11.939,27.606,11.607
					C218.405,254.089,226.718,245.541,218.796,234.753z"/>
			</g>
			<g>
				<path style="fill:#FFC9C5;" d="M381.608,170.981c0,0-7.619,3.883-14.158,3.497c-3.095-0.183-8.099,9.395-13.139,16.692
					l-10.085-7.939c0,0,15.004-19.977,20.385-23.507c5.381-3.529,15.189-3.26,15.189-3.26l4.797,7.858L381.608,170.981z"/>
				<path style="fill:#F19391;" d="M351.762,173.591c-4.139,5.12-7.535,9.641-7.535,9.641l10.085,7.939
					c2.198-3.183,4.39-6.799,6.418-9.85C357.309,179.301,354.424,176.559,351.762,173.591z"/>
				<path style="fill:#F19391;" d="M369.354,169.224c-0.75,1.188-1.087,5.286-0.674,5.278c6.228-0.105,12.929-3.521,12.929-3.521
					l2.989-6.658l-2.232-3.658C377.377,163.453,371.433,165.845,369.354,169.224z"/>
				<g>
					<path style="fill:#A3A6F3;" d="M362.95,194.432c-0.311,0.958,0.213,1.986,1.171,2.296l40.376,13.079
						c0.957,0.311,1.985-0.214,2.296-1.172l18.873-58.261c0.312-0.958-0.216-1.986-1.171-2.296l-40.375-13.078
						c-0.959-0.311-1.986,0.214-2.297,1.172L362.95,194.432z"/>
					<path style="fill:#8191EF;" d="M383.425,184.512c-5.342-16.166-0.213-33.148,2.576-48.903l-1.881-0.609
						c-0.959-0.311-1.986,0.214-2.297,1.172l-18.873,58.26c-0.311,0.958,0.213,1.986,1.171,2.296l36.451,11.808
						c-0.728-0.542-1.446-1.101-2.147-1.69C391.259,201.012,386.259,193.178,383.425,184.512z"/>
					
						<rect x="368.228" y="153.911" transform="matrix(0.3082 -0.9513 0.9513 0.3082 107.6362 494.7586)" style="fill:#FFFFFF;" width="51.531" height="38.925"/>
					<path style="opacity:0.4;fill:#EAEFFF;" d="M384.169,143.107l-0.75-0.243l-15.881,49.023l26.165,8.476
						c-6.202-7.369-9.583-16.343-10.485-27.905C382.375,162.558,383.063,152.812,384.169,143.107z"/>
					<g>
						<g>
							<path style="fill:#EAEFFF;" d="M391.123,144.275l-0.73,2.251c-0.35,1.079,0.244,2.238,1.323,2.587l18.35,5.945
								c1.078,0.35,2.236-0.242,2.586-1.321l0.729-2.252c0.35-1.078-0.241-2.237-1.32-2.585l-6.236-2.021
								c0.306-1.534-0.563-3.087-2.088-3.581c-1.524-0.495-3.14,0.254-3.79,1.676l-6.236-2.02
								C392.631,142.605,391.473,143.196,391.123,144.275z M401.425,145.74c0.245-0.76,1.061-1.176,1.822-0.93
								c0.761,0.247,1.177,1.063,0.932,1.823c-0.248,0.76-1.064,1.176-1.822,0.93C401.595,147.317,401.176,146.501,401.425,145.74z"
								/>
						</g>
						<path style="fill:#EAEFFF;" d="M412.061,148.9l-6.236-2.021c0.306-1.534-0.563-3.087-2.088-3.581
							c-1.322-0.429-2.712,0.08-3.482,1.15c0.777-0.573,1.802-0.783,2.793-0.462c1.524,0.494,2.394,2.047,2.088,3.581l6.236,2.02
							c1.079,0.349,1.67,1.507,1.32,2.586l-0.73,2.252c-0.049,0.151-0.117,0.29-0.195,0.42c0.402-0.247,0.727-0.625,0.884-1.109
							l0.729-2.252C413.73,150.407,413.14,149.248,412.061,148.9z"/>
					</g>
				</g>
				<path style="fill:#FFC9C5;" d="M379.266,151.958c3.518-1.371,8.088,15.66,6.118,15.658c-1.97-0.002-6.138-9.196-6.138-9.196
					s-7.306,12.573-17.197,10.222C359.677,168.079,356.527,160.811,379.266,151.958z"/>
				<path style="fill:#90E7E1;" d="M260.177,234.818c7.232-7.087,48.364-22.501,53.785-26.298
					c5.422-3.797,31.756-36.218,34.645-34.008c2.889,2.21,11.23,8.588,11.347,12.14c0.117,3.551-23.86,38.692-31.226,47.223
					c-7.363,8.531-44.811,22.768-51.512,25.355C270.516,261.82,243.854,250.814,260.177,234.818z"/>
				<path style="fill:#50C9D1;" d="M315.411,235.686c-12.938-1.15-25.749-5.676-37.893-10.641
					c-7.969,3.711-14.782,7.264-17.342,9.773c-16.323,15.996,10.339,27.002,17.04,24.412c6.278-2.425,39.544-15.074,49.772-23.677
					C323.118,235.93,319.244,236.029,315.411,235.686z"/>
			</g>
			<g>
				<path style="fill:#FFC9C5;" d="M396.825,311.249c-1.771,0.661,4.346,6.688,7.65,8.914c3.304,2.228,1.43,4.381-1.973,3.383
					c-3.404-0.997-11.753-4.947-13.586-11.371c-0.576-2.018-15.805-8.77-25.725-11.825l6.576-12.098c0,0,17.859,9.459,20.569,10.205
					c2.71,0.747,26.483,2.11,27.454,3.508c0.971,1.396-9.461,2.741-9.461,2.741s14.931,4.507,15.251,6.583
					c0.319,2.073-11.787-1.174-11.787-1.174s14.424,7.702,13.009,10.426c-1.416,2.722-10.885-3.785-16.246-6.23
					C403.195,311.864,397.69,310.925,396.825,311.249z"/>
				<g>
					<g>
						<path style="fill:#F19391;" d="M412.224,310.556c-2.745-1.46-5.487-2.518-8.544-3.091c-0.395-0.074-0.198-0.664,0.19-0.593
							c3.109,0.584,5.904,1.679,8.688,3.16C412.912,310.222,412.575,310.744,412.224,310.556L412.224,310.556z"/>
					</g>
					<g>
						<path style="fill:#F19391;" d="M408.957,305.245c-1.436-0.365-2.87-0.757-4.286-1.206c-0.382-0.121-0.19-0.713,0.192-0.592
							c1.415,0.449,2.849,0.84,4.287,1.206C409.538,304.753,409.346,305.344,408.957,305.245L408.957,305.245z"/>
					</g>
				</g>
				<g>
					<path style="fill:#8191EF;" d="M382.473,308.642c0,0,1.222-7.341,5.296-11.889c-1.86-1.573-5.157-2.818-5.157-2.818
						s-4.25,3.465-5.65,12.154C379.525,308.107,382.473,308.642,382.473,308.642z"/>
					<path style="fill:#FFFFFF;" d="M377.847,297.843c-0.184,0.323-0.067,0.732,0.255,0.912l0,0
						c0.322,0.182,0.732,0.067,0.913-0.257l0.028-0.049c0.181-0.324,0.067-0.733-0.256-0.914l0,0
						c-0.322-0.182-0.732-0.065-0.913,0.257L377.847,297.843z"/>
					<path style="fill:#FFFFFF;" d="M378.853,297.777c-1.074,1.913-0.396,4.335,1.52,5.409c1.914,1.074,4.336,0.394,5.409-1.519
						c1.075-1.913,0.395-4.336-1.52-5.41C382.349,295.185,379.926,295.865,378.853,297.777z"/>
					<path style="fill:#EAEFFF;" d="M379.856,298.341c-0.762,1.36-0.279,3.078,1.08,3.841c1.358,0.765,3.078,0.28,3.841-1.076
						c0.763-1.36,0.279-3.079-1.078-3.843C382.34,296.5,380.62,296.983,379.856,298.341z"/>
					<g>
						<path style="fill:#8191EF;" d="M382.297,299.758c0.031,0.018,0.069,0.026,0.107,0.024c0.068-0.002,0.13-0.04,0.164-0.102
							l0.809-1.438c0.054-0.097,0.02-0.219-0.076-0.272c-0.095-0.053-0.217-0.021-0.27,0.078l-0.652,1.159l-0.69-1.005
							c-0.061-0.093-0.187-0.113-0.276-0.053c-0.092,0.062-0.113,0.186-0.052,0.278l0.872,1.268
							C382.248,299.723,382.271,299.742,382.297,299.758z"/>
					</g>
				</g>
				<path style="fill:#90E7E1;" d="M371.305,287.074c1.467,1.412-0.883,6.362-1.877,8.473c-0.995,2.11-4.921,7.168-9.365,6.161
					c-4.446-1.007-62.545-22.495-76.176-26.109c-14.193-3.766-40.943-8.266-36.734-16.326c4.208-8.06,21.046-29.893,39.003-22.36
					C316.553,249.66,366.873,282.799,371.305,287.074z"/>
				<path style="fill:#50C9D1;" d="M286.155,236.913c-17.957-7.533-34.795,14.299-39.003,22.36
					c-4.209,8.061,22.541,12.561,36.734,16.326c7.089,1.88,26.203,8.593,43.544,14.746c-11.628-16.715-22.403-34.111-34.707-50.51
					C290.455,238.775,288.256,237.794,286.155,236.913z"/>
			</g>
			<g>
				<g>
					<polygon style="fill:#FFFFFF;" points="168.484,424.651 90.322,424.651 103.962,389.529 154.844,389.529 					"/>
					<path style="opacity:0.4;fill:#EAEFFF;" d="M163.515,411.855l-8.671-22.326h-50.882l-0.061,0.156
						c9.293,2.59,18.721,4.927,27.821,8.252C142.621,401.808,153.237,406.522,163.515,411.855z"/>
				</g>
				<path style="fill:#FFC9C5;" d="M120.112,372.846c0,0-5.249-23.668-0.591-34.8l21.239,5.679c0,0-10.761,17.718-7.949,30.894
					L120.112,372.846z"/>
				<path style="fill:#F19391;" d="M133.439,361.493c2.28-9.465,7.321-17.769,7.321-17.769l-21.239-5.679
					c-0.674,1.609-1.135,3.486-1.44,5.512c3.345,4.924,7.181,9.345,11.602,13.766C130.996,358.638,132.255,360.032,133.439,361.493z
					"/>
				<path style="fill:#90E7E1;" d="M117.594,346.224c1.513,1.447,14.934,5.526,18.256,4.921c3.322-0.605,8.093-6.058,9.909-7.192
					c1.816-1.136,24.727-22.284,37.674-33.87c12.948-11.584,10.904-44.02,6.134-46.292c-4.771-2.272-38.499,33.367-52.966,47.679
					C122.134,325.78,112.373,341.228,117.594,346.224z"/>
				<g>
					<g>
						<path style="fill:#212250;" d="M143.603,397.599l-33.285-32.858c-0.536-0.529,1.381-2.47,1.914-1.94l33.285,32.858
							c0.269,0.265,1.591,3.419,1.591,3.419S143.735,397.729,143.603,397.599z"/>
					</g>
					<path style="fill:#FFC9C5;" d="M122.735,368.425c0,0-10.672,6.588-8.476,11.155c0,0-2.547,1.757-1.054,5.884
						c0,0-0.615,5.183,1.054,7.554c1.669,2.37,8.782,5.883,11.593,1.579c0,0,2.108-0.262,2.196-3.6c0,0,2.02-0.44,2.37-3.426
						c0,0,5.624-2.369,6.149-7.201c0.526-4.831-5.534-10.892-5.534-10.892L122.735,368.425z"/>
					<path style="fill:#212250;" d="M130,380.341L112.231,362.8c-0.533-0.529-2.45,1.411-1.914,1.94l18.48,18.244
						c0.067-0.175,0.135-0.349,0.218-0.507C129.403,381.733,129.754,381.037,130,380.341z"/>
					<g>
						<g>
							<path style="fill:#F19391;" d="M130.419,387.423c-3.017-1.291-1.45-4.156-0.592-6.205c0.698-1.663,0.862-3.027,0.318-4.758
								c-0.066-0.209-0.395-0.12-0.328,0.09c0.976,3.108-1.151,4.973-1.509,7.833c-0.19,1.513,0.587,2.757,1.938,3.336
								C130.446,387.804,130.62,387.51,130.419,387.423L130.419,387.423z"/>
						</g>
						<g>
							<path style="fill:#F19391;" d="M114.112,379.666c3.065,5.406,8.256,8.989,13.845,11.392c0.199,0.086,0.374-0.209,0.173-0.295
								c-5.537-2.379-10.688-5.912-13.723-11.27C114.299,379.303,114.005,379.475,114.112,379.666L114.112,379.666z"/>
						</g>
						<g>
							<path style="fill:#F19391;" d="M113.058,385.551c1.716,2.318,3.787,4.163,6.061,5.92c1.712,1.321,4.438,3.216,6.734,3.297
								c0.22,0.008,0.22-0.333,0-0.341c-1.998-0.07-4.23-1.66-5.835-2.721c-2.55-1.688-4.85-3.873-6.664-6.329
								C113.225,385.203,112.928,385.373,113.058,385.551L113.058,385.551z"/>
						</g>
					</g>
				</g>
				<path style="fill:#50C9D1;" d="M189.566,263.79c-2.472-1.177-12.722,7.829-24.034,18.768c-0.969,3.402-1.694,6.844-2.107,10.287
					c-1.5,9.5,0.5,18-2.5,27.5c-1.501,4.626-2.97,9.409-4.518,14.23c8.205-7.425,19.36-17.634,27.025-24.493
					C196.381,298.498,194.337,266.062,189.566,263.79z"/>
			</g>
			<g>
				<path style="fill:#90E7E1;" d="M211.104,228.876c-3.259,2.546-14.082,56.674-13.738,66.978
					c0.343,10.304,2.404,54.271,3.778,57.017c1.373,2.747,65.605,15.457,82.092,0c16.486-15.457-5.152-119.873-8.588-123.996
					C271.212,224.753,222.095,220.289,211.104,228.876z"/>
				<path style="fill:#50C9D1;" d="M274.647,228.876c-0.017-0.02-0.041-0.039-0.059-0.059c1.566,9.865,0.688,17.432,0.343,27.754
					c-0.549,19.23-9.017,52.428-37.039,46.384c-29.829-6.464-28.114-45.326-27.7-72.541c-3.997,9.335-13.144,55.954-12.827,65.44
					c0.343,10.304,2.404,54.271,3.778,57.017c1.373,2.747,65.605,15.457,82.092,0C299.722,337.414,278.083,232.998,274.647,228.876z
					"/>
				<path style="fill:#FFC9C5;" d="M170.692,305.012c0,0,14.506,35.703,36,44.75h8.25c0,0-21.25-32.25-25-44.75H170.692z"/>
				<path style="fill:#90E7E1;" d="M189.442,339.762c0,0,6.5-4.5,13.25-15.5c0,0,8.102-88.447,9.19-94.311
					c1.089-5.864-13.19,3.061-19.065,14.811c-5.875,11.75-28.375,52-25.875,60.25S186.505,340.175,189.442,339.762z"/>
				<path style="fill:#FFC9C5;" d="M313.692,305.012c0,0-14.506,35.703-36,44.75h-8.25c0,0,21.25-32.25,25-44.75H313.692z"/>
				<path style="fill:#90E7E1;" d="M294.942,339.762c0,0-6.5-4.5-13.25-15.5c0,0-8.472-88.742-9.56-94.606
					c-1.09-5.864,13.56,3.355,19.435,15.105c5.875,11.75,28.375,52,25.875,60.25S297.88,340.175,294.942,339.762z"/>
			</g>
			<g>
				<path style="fill:#A3A6F3;" d="M293.574,357.762c0,5.522-4.477,10-10,10H201.84c-5.523,0-10-4.478-10-10l-10.008-62
					c0-5.523,4.477-10,10-10h101.75c5.523,0,10,4.477,10,10L293.574,357.762z"/>
				<path style="fill:#F5F7FF;" d="M293.574,361.262c0,5.522-4.477,10-10,10H201.84c-5.523,0-10-4.478-10-10l-10.008-62
					c0-5.523,4.477-10,10-10h101.75c5.523,0,10,4.477,10,10L293.574,361.262z"/>
				<path style="fill:#EAEFFF;" d="M251.695,329.333c0,3.32-4.025,6.012-8.988,6.012c-4.965,0-8.989-2.691-8.989-6.012
					c0-3.32,4.024-6.012,8.989-6.012C247.671,323.321,251.695,326.013,251.695,329.333z"/>
				<path style="fill:#EAEFFF;" d="M194.226,289.262h-2.394c-5.523,0-10,4.477-10,10l10.008,62c0,5.522,4.477,10,10,10h81.734
					c0.894,0,1.756-0.129,2.581-0.349c-18.712-4.69-35.955-13.817-52.23-29.568C218.193,326.687,203.744,308.959,194.226,289.262z"
					/>
			</g>
			<g>
				<path style="fill:#FFC9C5;" d="M233.379,205.519c0,0-0.429,17.276-1.667,20.608c-0.598,1.609-3.436,7.213,0,10.304
					c3.436,3.091,13.23,5.08,18.439-0.603c3.128-3.412,1.524-6.669-0.079-9.742c-1.787-3.423-1.236-20.568-1.236-20.568H233.379z"/>
				<path style="fill:#F19391;" d="M248.894,218.021c-0.27-5.846-0.058-12.502-0.058-12.502h-15.457c0,0-0.148,5.955-0.521,11.548
					C238.105,218.395,243.425,218.643,248.894,218.021z"/>
			</g>
			<g>
				<g>
					<path style="fill:#14133F;" d="M223.92,140.298c-3.646-3.838-7.293-8.252-6.141-13.914c1.151-5.565,6.236-10.459,11.897-11.419
						c12.187-2.207,16.313,14.393,10.459,22.645c-2.398,3.358-5.949,3.934-9.883,3.742L223.92,140.298z"/>
					<path style="fill:#242763;" d="M232.93,114.825c1.314,1.536,2.461,3.247,3.381,5.372c1.626,3.949,2.878,11.174,2.77,18.644
						c0.372-0.362,0.726-0.767,1.056-1.229C245.434,130.144,242.557,115.84,232.93,114.825z"/>
					<g>
						<path style="fill:#14133F;" d="M252.402,130.345c-2.673-1.142-5.404-1.726-8.151-1.905c0.021-0.085,0.045-0.16,0.066-0.246
							c0.389-1.663,0.377-3.297,0.047-4.847c0.08-2.357-0.257-4.766-1.089-7.151c-0.029-0.085-0.163-0.05-0.135,0.037
							c0.643,2.009,0.935,4.016,0.925,5.986c-0.757-2.337-2.257-4.427-4.249-6.041c-4.223-3.421-10.365-3.946-14.655-1.466
							c-3.53-0.303-6.819,1.016-9.316,5.07c-2.021,3.28-1.2,7,0.587,10.419c0.46,1.92,1.582,3.441,3.053,4.654
							c0.917,1.185,1.844,2.265,2.66,3.19c0.053,0.06,0.156-0.02,0.11-0.085c-0.492-0.713-0.982-1.431-1.466-2.152
							c2.094,1.343,4.592,2.235,6.818,2.872c0.265,0.076,0.365-0.317,0.111-0.407c-2.613-0.928-5.059-1.925-7.221-3.71
							c-3.466-2.863-3.578-8.209-1.803-11.961c0.532-1.127,1.27-1.99,2.136-2.664c-0.212,0.604-0.383,1.244-0.493,1.929
							c-0.007,0.039,0.041,0.062,0.063,0.027c0.641-0.988,1.223-1.947,1.835-2.84c3.192-1.559,7.48-1.275,10.814-0.813
							c0.328,0.045,0.563-0.373,0.238-0.565c-2.168-1.287-4.397-2.267-6.569-2.724c0.369-0.17,0.757-0.326,1.179-0.459
							c4.014-1.267,8.805,0.714,11.843,3.267c3.234,2.716,3.715,6.757,2.995,10.621c-7.368-0.087-14.801,2.602-21.52,5.46
							c-0.037,0.016-0.011,0.078,0.027,0.064c6.947-2.546,14.069-4.824,21.324-4.715c-0.006,0.024-0.01,0.049-0.016,0.074
							c-1.051,4.497-5.096,6.081-8.254,8.844c-0.333,0.291,0.101,0.841,0.469,0.607c1.212-0.768,2.316-1.425,3.316-2.069
							c-0.494,0.545-1.006,1.078-1.55,1.586c-0.2,0.187,0.095,0.475,0.299,0.298c1.072-0.931,2.035-1.949,2.898-3.025
							c1.968-1.489,3.406-3.204,4.308-6.257c2.238,0.136,4.489,0.499,6.751,1.18c11.017,3.315,14.21,12.972,16.78,22.979
							c0.068,0.269,0.447,0.15,0.406-0.112C266.333,143.044,262.319,134.58,252.402,130.345z M221.595,118.26
							c-3.358,1.646-5.101,5.279-5.362,8.971c-1.359-5.463,1.482-10.882,7.764-11.735
							C223.046,116.238,222.229,117.159,221.595,118.26z M230.825,116.954c1.416,0.616,1.862,0.548,0.327,0.369
							c-2.672-0.312-5.24-0.352-7.852,0.315c0.704-0.842,1.497-1.585,2.478-2.186C227.527,115.608,229.271,116.277,230.825,116.954z
							"/>
						<path style="fill:#14133F;" d="M209.991,186.452c-0.008-0.226-0.35-0.227-0.352,0c-0.027,2.344,0.111,4.548,0.797,6.796
							c0.678,2.221,2.008,4.237,3.061,6.289c0.041,0.082,0.158,0.01,0.121-0.071C211.635,195.103,210.148,191.317,209.991,186.452z"
							/>
					</g>
					<g>
						<path style="fill:#0D0A29;" d="M224.46,131.79c-4.928-1.043-4.231-10.403-1.175-12.931c0.498-0.411-0.214-1.115-0.707-0.707
							c-3.607,2.983-4.099,13.392,1.616,14.602C224.823,132.887,225.091,131.923,224.46,131.79z"/>
						<path style="fill:#0D0A29;" d="M224.518,117.372c-0.643,0.01-0.645,1.01,0,1c4.087-0.065,7.359,6.927,6.624,10.405
							c-0.134,0.629,0.83,0.896,0.964,0.266C232.968,124.962,229.319,117.295,224.518,117.372z"/>
						<path style="fill:#0D0A29;" d="M232.327,118.722c-0.046-0.006-0.085,0.003-0.126,0.007c-1.596-0.985-3.421-1.627-5.209-1.802
							c-0.642-0.063-0.636,0.938,0,1c4.562,0.445,9.779,4.405,8.844,9.454c-0.117,0.63,0.847,0.899,0.964,0.266
							c0.526-2.84-0.586-5.366-2.478-7.257c2.967,1.39,5.758,4.508,5.319,7.689c-0.087,0.63,0.877,0.902,0.964,0.266
							C241.229,123.822,236.558,119.3,232.327,118.722z"/>
					</g>
					<path style="fill:#0D0A29;" d="M218.464,132.773c1.167,2.799,3.308,5.264,5.456,7.525l6.333,1.055
						c3.934,0.192,7.484-0.384,9.883-3.742c2.575-3.63,3.217-8.874,2.094-13.423c-2.727,0.456-5.424,1.021-8.055,1.656
						C228.139,127.354,223.286,129.958,218.464,132.773z"/>
					<path style="fill:#14133F;" d="M271.034,183.107c0,0,3.072-4.812,3.168-13.927c0.096-9.116-4.799-32.817-24.758-38.094
						c-19.958-5.277-35.703,4.222-35.891,11.035c0,0-8.723,2.399-10.548,11.995c-1.826,9.595,0.477,15.736,0.477,15.736
						s-0.469,10.548,9.121,13.43C222.193,186.164,257.505,192.044,271.034,183.107z"/>
					<path style="fill:#242763;" d="M249.444,131.085c-6.429-1.7-12.416-1.861-17.592-1.078
						c10.557,1.734,20.143,5.485,27.489,14.518c7.461,9.407,11.678,21.409,11.84,33.411c0.037,1.683,0.009,3.356-0.061,5.023
						c0.483-0.831,2.994-5.54,3.081-13.781C274.298,160.064,269.403,136.363,249.444,131.085z"/>
					<g>
						<path style="fill:#0D0A29;" d="M267.365,154.008c-7.145,0.181-13.956-0.464-20.494-3.545
							c-5.747-2.708-10.683-6.899-15.331-11.159c-0.474-0.434-1.184,0.271-0.707,0.707c4.954,4.54,10.167,8.787,16.282,11.668
							c6.39,3.011,13.292,3.504,20.25,3.329C268.009,154.992,268.011,153.992,267.365,154.008z"/>
						<path style="fill:#0D0A29;" d="M223.104,138.085c15.554-2.928,35.909-4.445,43.829,12.567
							c0.271,0.584,1.134,0.076,0.863-0.505c-8.121-17.445-28.967-16.037-44.958-13.026
							C222.205,137.241,222.475,138.204,223.104,138.085z"/>
						<path style="fill:#0D0A29;" d="M242.403,141.053c-0.645-0.036-0.641,0.964,0,1c7.592,0.424,15.814,3.563,20.423,9.863
							c0.376,0.515,1.245,0.017,0.863-0.505C258.855,144.803,250.382,141.499,242.403,141.053z"/>
						<path style="fill:#0D0A29;" d="M237.032,146.583c-7.296,0.396-14.03-0.993-20.128-5.145c-0.534-0.364-1.034,0.503-0.505,0.863
							c6.236,4.246,13.167,5.687,20.633,5.282C237.674,147.548,237.677,146.547,237.032,146.583z"/>
						<path style="fill:#0D0A29;" d="M215.272,150.622c-5.593,9.673-7.688,20.637-4.632,31.508c0.174,0.62,1.139,0.356,0.964-0.266
							c-2.986-10.627-0.933-21.288,4.531-30.738C216.46,150.567,215.595,150.064,215.272,150.622z"/>
						<path style="fill:#0D0A29;" d="M212.818,148.757c0.353-0.542-0.513-1.042-0.863-0.505c-6.739,10.317-7.588,24.93-2.37,36.052
							c0.273,0.584,1.136,0.075,0.863-0.505C205.38,172.995,206.284,158.76,212.818,148.757z"/>
						<path style="fill:#0D0A29;" d="M266.9,157.219c-0.228-0.596-1.196-0.337-0.965,0.266c3.082,8.029,4.462,16.411,3.458,24.987
							c-0.075,0.64,0.926,0.632,1,0C271.407,173.809,270.013,165.33,266.9,157.219z"/>
					</g>
				</g>
				<g>
					<path style="fill:#FFC9C5;" d="M267.353,181.779c0,0,5.336-5.821,9.559-3.931c4.225,1.89,2.668,19.895-12.449,18.895
						L267.353,181.779z"/>
					<path style="fill:#F19391;" d="M276.384,183.859c-5.07-0.939-9.385,3.461-9.289,8.438c0.018,0.908,1.375,0.905,1.406,0
						c0.033-1,0.246-1.949,0.598-2.829c0.781-0.612,1.768-1.14,2.43-0.504c1.228,1.18-0.002,3.188-1.508,3.11
						c-0.859-0.045-0.865,1.354,0,1.336c2.385-0.049,3.771-2.679,2.512-4.676c-0.529-0.84-1.465-1.097-2.367-0.754
						c-0.16,0.061-0.297,0.152-0.44,0.236c1.385-2.278,3.815-3.864,6.631-4.149C276.466,184.055,276.509,183.882,276.384,183.859z"
						/>
				</g>
				<g>
					<path style="fill:#FFC9C5;" d="M214.595,181.779c0,0-5.335-5.821-9.559-3.931c-4.224,1.89-2.667,19.895,12.449,18.895
						L214.595,181.779z"/>
					<path style="fill:#F19391;" d="M205.563,183.859c5.07-0.939,9.386,3.461,9.29,8.438c-0.018,0.908-1.376,0.905-1.406,0
						c-0.033-1-0.247-1.949-0.598-2.829c-0.781-0.612-1.769-1.14-2.431-0.504c-1.229,1.18,0.002,3.188,1.509,3.11
						c0.858-0.045,0.864,1.354,0,1.336c-2.386-0.049-3.773-2.679-2.512-4.676c0.529-0.84,1.464-1.097,2.367-0.754
						c0.16,0.061,0.297,0.152,0.439,0.236c-1.386-2.278-3.815-3.864-6.631-4.149C205.482,184.055,205.438,183.882,205.563,183.859z"
						/>
				</g>
				<g>
					<g>
						<path style="fill:#FFC9C5;" d="M217.797,154.954c0,0-7.463,13.692-5.621,25.641c1.842,11.949,5.329,32.264,28.798,33.458
							c23.471-1.195,27.32-21.366,28.158-33.427c0.137-1.97-4.893-12.894-6.447-22.675c0,0-13.338,0.334-28.566-8.447
							C234.118,149.504,225.439,153.703,217.797,154.954z"/>
						<path style="fill:#FFD2D2;" d="M262.685,157.951c0,0-0.196,0.004-0.56-0.002c1.614,11.216,2.594,22.815-0.95,33.771
							c-3.5,11-11.875,18.875-23.125,21.5c-0.528,0.124-1.062,0.222-1.593,0.325c1.419,0.251,2.918,0.428,4.517,0.509
							c23.471-1.195,27.32-21.366,28.158-33.427C269.269,178.657,264.239,167.732,262.685,157.951z"/>
					</g>
					<g>
						<path style="fill:#F19391;" d="M238.763,179.02c-1.024,0.238,0.001,9.127-1.426,9.633c-1.845,0.654-3.361,3.311-1.614,4.851
							c2.059,1.814,5.623,0.551,6.083-2.756C242.266,187.439,241.225,178.447,238.763,179.02z"/>
						<path style="fill:#14133F;" d="M258.156,182.951c-0.192,0.002-0.754,0.094-0.877-0.097c-0.021-0.032-0.048-0.049-0.071-0.074
							c0.022-0.283,0.028-0.566,0.002-0.844c-0.06-0.636-1.06-0.642-1,0c0.107,1.128-0.178,2.359-1.161,3.036
							c-1.574,1.084-3.266-0.784-3.35-2.278c-0.035-0.641-1.036-0.645-1,0c0.107,1.918,1.67,3.794,3.732,3.513
							c0.554-0.075,1.017-0.297,1.405-0.605c0.19,0.196,0.438,0.328,0.74,0.398c0.628,0.146,0.894-0.818,0.266-0.964
							c-0.14-0.033-0.274-0.045-0.328-0.183c0.208-0.313,0.371-0.657,0.486-1.025c0.351,0.131,0.76,0.127,1.155,0.124
							C258.801,183.945,258.802,182.945,258.156,182.951z"/>
						<path style="fill:#14133F;" d="M252.003,175.315c1.744-1.306,4.29-1.08,5.8,0.473c0.45,0.463,1.157-0.245,0.707-0.707
							c-1.793-1.843-4.918-2.197-7.012-0.629C250.988,174.833,251.485,175.702,252.003,175.315z"/>
						<path style="fill:#14133F;" d="M226.666,182.693c-0.087,1.555-1.402,2.86-3,2.444c-1.288-0.335-1.615-2.097-1.511-3.202
							c0.062-0.642-0.939-0.636-1,0c-0.026,0.28-0.02,0.563,0.002,0.845c-0.023,0.025-0.051,0.042-0.071,0.073
							c-0.122,0.191-0.685,0.099-0.877,0.097c-0.645-0.006-0.645,0.994,0,1c0.393,0.004,0.8,0.008,1.147-0.121
							c0.116,0.368,0.285,0.71,0.495,1.023c-0.054,0.139-0.189,0.15-0.329,0.184c-0.628,0.146-0.361,1.11,0.266,0.964
							c0.304-0.071,0.552-0.203,0.741-0.399c0.321,0.255,0.694,0.456,1.13,0.569c2.145,0.559,3.897-1.518,4.007-3.476
							C227.702,182.049,226.702,182.052,226.666,182.693z"/>
						<path style="fill:#14133F;" d="M220.563,175.788c1.539-1.589,4.021-1.791,5.801-0.473c0.519,0.384,1.017-0.484,0.505-0.863
							c-2.131-1.578-5.189-1.254-7.013,0.629C219.407,175.544,220.113,176.251,220.563,175.788z"/>
						<path style="fill:#DB6181;" d="M247.184,201.067c-2.143,2.619-5.772,4.285-9.158,3.523c-0.628-0.142-0.895,0.822-0.266,0.964
							c3.718,0.838,7.757-0.878,10.131-3.779C248.296,201.279,247.593,200.567,247.184,201.067z"/>
						<path style="opacity:0.4;fill:#FF6E8D;" d="M263.78,186.657c-5.594,0-10.127,4.222-10.127,9.431
							c0,4.271,3.05,7.874,7.23,9.035c4.338-5.072,6.404-11.556,7.422-17.463C266.942,187.023,265.409,186.657,263.78,186.657z"/>
						<path style="opacity:0.4;fill:#FF6E8D;" d="M229.267,196.088c0-5.209-4.534-9.431-10.127-9.431
							c-2.065,0-3.984,0.579-5.586,1.568c1.294,5.807,3.464,12.125,7.767,17.069C225.864,204.364,229.267,200.599,229.267,196.088z"
							/>
					</g>
				</g>
				<g>
					<path style="fill:#14133F;" d="M269.37,186.142c-0.004-0.29,0.018-0.578,0.039-0.865c0.229-1.036,0.426-2.07,0.584-3.104
						c0.449-1.641,1.012-3.265,1.256-4.918c0.08-0.54-0.609-0.732-0.814-0.225c-0.023,0.061-0.045,0.122-0.07,0.184
						c-0.041-2.268-0.402-4.561-1.244-6.912c-0.041-0.115-0.195-0.091-0.207,0.028c-0.715,7.833-2.424,15.205-3.725,22.92
						c-0.4,2.374-0.707,5.02-0.355,7.417c0.684,4.676,2.885,8.094,1.59,13.007c-0.029,0.112,0.145,0.194,0.191,0.081
						c0.94-2.204,1.58-4.272,1.19-6.721c-0.855-5.362-1.537-9.541-0.135-14.912c0.201-0.767,0.404-1.527,0.603-2.285
						c0.566,4.952,2.67,9.117,0.332,14.346c-0.017,0.04,0.039,0.076,0.061,0.035c1.518-2.758,2.178-5.409,1.73-8.584
						C269.948,192.464,269.415,189.35,269.37,186.142z"/>
					<path style="fill:#14133F;" d="M212.844,183.17c-1.615-6.016-0.802-11.299-0.396-17.349c0.064-0.961-1.299-1.029-1.589-0.215
						c-2.318,6.525-1.097,13.277,0.897,19.713c2.125,6.861,7.502,17.993,1.08,24.016c-0.059,0.055,0.018,0.154,0.085,0.11
						c4.467-2.879,4.01-8.251,3.327-12.961C215.592,191.951,214.027,187.58,212.844,183.17z"/>
					<path style="fill:#14133F;" d="M267.265,156.783c-11.652,5.161-25.754-1.763-34.301-9.696c-0.032-0.031-0.082,0.018-0.049,0.05
						c8.635,8.473,22.573,15.396,34.598,10.071C267.802,157.08,267.552,156.656,267.265,156.783z"/>
				</g>
			</g>
			<g>
				<g>
					<polygon style="fill:#F19391;" points="215.7,402.183 240.842,398.522 225.588,379.933 206.384,387.592 					"/>
					<g>
						<path style="fill:#FFFFFF;" d="M186.03,405.639c0,0-15.293,2.865-22.058,1.984c-10.76-1.401-18.796-8.172-17.569-19.885
							c1.226-11.714,22.788-4.445,22.788-4.445L186.03,405.639z"/>
						<path style="fill:#FEB650;" d="M191.848,387.329c-5.468-0.504-23.121-5.176-30.81-5.447c-7.689-0.272-4.903,19.612,0,21.791
							c4.903,2.18,14.525,3.916,36.439,0.545c3.541-0.545,20.685-0.918,22.063-1.09c0.291-0.036,0-3.506,0-3.506
							s3.762-0.441,3.887-5.11c0.126-4.669-1.01-11.42-6.12-10.347c0,0-0.758-4.038-1.514-3.849
							C215.037,380.506,197.314,387.834,191.848,387.329z"/>
						<g>
							<g>
								<path style="fill:#D1881F;" d="M217.635,399.996c-8.087-0.121-16.166,1.271-24.205,1.974
									c-6.399,0.559-14.226,1.491-20.198-1.504c-0.629-0.315-0.076-1.254,0.55-0.941c6.178,3.099,14.572,1.818,21.174,1.218
									c7.533-0.685,15.097-1.95,22.68-1.837C218.337,398.917,218.338,400.006,217.635,399.996L217.635,399.996z"/>
							</g>
							<g>
								<path style="fill:#D1881F;" d="M215.183,385.014c-7.181,0.944-13.936,3.854-21.107,4.911
									c-8.079,1.189-15.825-0.573-22.888-4.577c-0.611-0.347-0.063-1.287,0.55-0.94c7.878,4.466,16.156,5.679,25,3.962
									c6.219-1.208,12.145-3.617,18.444-4.444C215.878,383.833,215.869,384.924,215.183,385.014L215.183,385.014z"/>
							</g>
						</g>
						<path style="fill:#FFFFFF;" d="M168.846,382.868c1.388,0.644,1.604,11.786,0,23.241c0,0-12.637,2.075-19.446-11.621
							C142.59,380.792,158.718,378.17,168.846,382.868z"/>
						<g>
							<path style="fill:#FFFFFF;" d="M176.826,393.336c0.097-2.431-0.165-4.761-0.355-7.152c-0.033-0.428,0.368-0.722,0.749-0.748
								c2.426-0.173,2.609,4.347,2.718,5.875c0.311,4.354,0.157,8.913-2.101,12.768c-0.428,0.73-1.818,0.706-1.96-0.256
								C175.357,400.299,176.686,396.863,176.826,393.336z"/>
							<path style="fill:#FFFFFF;" d="M185.087,388.644c-0.215-0.663,0.446-1.141,1.038-1.038c2.892,0.509,2.941,5.07,2.934,7.273
								c-0.013,3.652-0.157,7.595-3.88,9.327c-0.371,0.174-0.759-0.105-0.676-0.519c0.565-2.78,1.498-5.255,1.556-8.127
								C186.11,393.049,185.854,391.001,185.087,388.644z"/>
							<path style="fill:#FFFFFF;" d="M195.312,387.566c0.201-0.052,0.413,0.033,0.52,0.212c1.058,1.785,1.396,4.324,1.833,6.343
								c0.543,2.506,0.659,5.026,1.43,7.485c0.273,0.876-0.832,1.843-1.633,1.255c-2.701-1.985-2.415-5.459-3.001-8.424
								C194.089,392.561,192.428,388.325,195.312,387.566z"/>
							<path style="fill:#FFFFFF;" d="M204.755,385.467c0.934,3.083,0.999,6.229,2.229,9.314c0.743,1.864,2.527,5.386,1.44,7.334
								c-0.109,0.195-0.363,0.362-0.596,0.342c-2.917-0.273-4.209-5.304-4.609-7.647c-0.468-2.742-1.225-7.289,0.961-9.493
								C204.366,385.127,204.682,385.222,204.755,385.467z"/>
							<path style="fill:#FFFFFF;" d="M214.646,402.318c1.13,0.308,1.681-1.202,0.767-1.82c-1.101-0.745-1.693-2.056-2.06-3.486
								c0.214,0.122,0.43,0.234,0.647,0.328c1.036,0.446,2.895,0.67,3.132-0.921c0.304-2.043-1.476-3.069-3.423-3.602
								c0.388-0.279,0.758-0.578,1.105-0.868c1.124-0.935,2.429-2.223,2.396-3.803c-0.006-0.267-0.197-0.603-0.489-0.643
								c-1.553-0.215-3.077,0.719-4.367,1.952c-0.012-0.756,0.02-1.513,0.14-2.267c0.047-0.297,0.632-3.27,0.621-3.268
								c0.132-0.024,0.27-0.162,0.295-0.294c0.012-0.063,0.023-0.125,0.034-0.188c0.11-0.607-0.489-1.195-1.087-0.836
								C206.727,385.997,208.018,400.513,214.646,402.318z M213.493,391.166c-0.304,0.252-0.626,0.487-0.946,0.725
								c-0.026-0.202-0.056-0.404-0.078-0.606c0.903-1.203,2.056-2.353,3.233-2.511C215.28,389.714,214.163,390.608,213.493,391.166
								z M212.86,394.271c0-0.002,0-0.003,0-0.003c1.22,0.302,2.391,0.761,2.542,1.473c0.109,0.516-1.878-0.885-2.107-1.08
								C213.148,394.534,213.006,394.4,212.86,394.271z"/>
						</g>
						<path style="fill:#D1881F;" d="M163.392,405.397c0.25,0,0.475-0.172,0.532-0.427c0.064-0.293-0.12-0.584-0.414-0.649
							c-0.095-0.021-9.528-2.216-13.014-10.911c-3.4-8.487,2.622-11.18,2.88-11.289c0.276-0.119,0.405-0.438,0.287-0.716
							c-0.118-0.277-0.439-0.405-0.715-0.287c-0.074,0.032-7.255,3.232-3.463,12.696c3.702,9.241,13.378,11.48,13.788,11.57
							C163.313,405.394,163.354,405.397,163.392,405.397z"/>
					</g>
					<g>
						<path style="fill:#2794D7;" d="M211.277,384.838c10.624-3.813,78.323-34.387,96.847-43.375
							c18.274-8.869,41.379-2.559,34.594,15.254c-6.537,17.161-45.624,44.277-114.023,43.855
							C213.01,393.46,211.277,384.838,211.277,384.838z"/>
						<path style="fill:#04619C;" d="M294.521,380.612c-15.017-2.472-28.976-7.514-42.958-13.2
							c-18.594,8.325-35.422,15.68-40.286,17.426c0,0,1.732,8.622,17.417,15.734c44.359,0.273,76.373-11.037,95.192-23.701
							C314.227,379.733,304.421,382.089,294.521,380.612z"/>
					</g>
					<path style="opacity:0.3;fill:#D1881F;" d="M219.666,402.461c0.027-1.016-0.125-2.839-0.125-2.839s3.762-0.441,3.887-5.11
						c0.126-4.669-1.01-11.42-6.12-10.347c0,0-0.758-4.038-1.514-3.849c-0.757,0.189-18.479,7.518-23.946,7.013
						c-1.183-0.109-2.936-0.414-5.034-0.825c5.583,2.021,11.07,4.347,16.406,6.939C208.572,396.037,214.265,399.025,219.666,402.461
						z"/>
				</g>
				<g>
					<g>
						<polygon style="fill:#FFC9C5;" points="275.738,383.919 253.236,377.964 255.279,400.353 279.437,400.87 						"/>
						<path style="fill:#F19391;" d="M275.738,383.919l-9.17-2.427c-2.61,2.904-5.926,4.98-6.458,9.64
							c-0.492,3.442,0.702,6.557,2.526,9.378l16.8,0.36L275.738,383.919z"/>
					</g>
					<g>
						<path style="fill:#FFFFFF;" d="M299.141,405.262c0,0,15.293,2.865,22.058,1.984c10.76-1.401,18.796-8.172,17.569-19.885
							c-1.226-11.713-22.787-4.444-22.787-4.444L299.141,405.262z"/>
						<path style="fill:#FEB650;" d="M293.325,386.952c5.467-0.504,23.119-5.175,30.808-5.447c7.689-0.272,4.903,19.612,0,21.791
							c-4.902,2.18-14.523,3.916-36.439,0.545c-3.542-0.545-20.686-0.918-22.065-1.089c-0.289-0.036,0-3.507,0-3.507
							s-3.761-0.441-3.886-5.11c-0.126-4.669,1.009-11.419,6.12-10.347c0,0,0.758-4.038,1.514-3.849
							C270.135,380.129,287.857,387.457,293.325,386.952z"/>
						<g>
							<g>
								<path style="fill:#D1881F;" d="M267.537,399.619c8.086-0.12,16.167,1.271,24.204,1.974
									c6.399,0.559,14.227,1.492,20.198-1.504c0.63-0.314,0.076-1.254-0.549-0.94c-6.179,3.099-14.573,1.818-21.175,1.219
									c-7.533-0.686-15.097-1.95-22.679-1.838C266.834,398.54,266.834,399.63,267.537,399.619L267.537,399.619z"/>
							</g>
							<g>
								<path style="fill:#D1881F;" d="M269.988,384.638c7.183,0.943,13.937,3.854,21.107,4.91
									c8.08,1.189,15.826-0.572,22.888-4.576c0.612-0.348,0.063-1.288-0.55-0.941c-7.878,4.466-16.156,5.68-25,3.962
									c-6.219-1.208-12.145-3.616-18.444-4.444C269.295,383.456,269.303,384.547,269.988,384.638L269.988,384.638z"/>
							</g>
						</g>
						<path style="fill:#FFFFFF;" d="M316.325,382.491c-1.388,0.644-1.604,11.786,0,23.242c0,0,12.637,2.074,19.446-11.622
							C342.581,380.415,326.453,377.793,316.325,382.491z"/>
						<g>
							<path style="fill:#FFFFFF;" d="M308.345,392.959c-0.096-2.43,0.166-4.761,0.355-7.152c0.034-0.428-0.368-0.722-0.749-0.748
								c-2.426-0.173-2.609,4.347-2.718,5.876c-0.311,4.353-0.157,8.912,2.101,12.768c0.428,0.729,1.819,0.705,1.96-0.257
								C309.813,399.922,308.485,396.486,308.345,392.959z"/>
							<path style="fill:#FFFFFF;" d="M300.084,388.267c0.215-0.663-0.445-1.141-1.037-1.037c-2.892,0.509-2.942,5.07-2.935,7.273
								c0.013,3.653,0.158,7.595,3.88,9.327c0.372,0.174,0.76-0.105,0.677-0.518c-0.566-2.78-1.498-5.256-1.556-8.128
								C299.063,392.672,299.317,390.625,300.084,388.267z"/>
							<path style="fill:#FFFFFF;" d="M289.86,387.19c-0.202-0.052-0.413,0.033-0.52,0.212c-1.058,1.786-1.395,4.324-1.834,6.343
								c-0.543,2.506-0.658,5.026-1.428,7.485c-0.275,0.876,0.832,1.844,1.632,1.255c2.7-1.985,2.415-5.458,3.001-8.424
								C291.082,392.184,292.744,387.948,289.86,387.19z"/>
							<path style="fill:#FFFFFF;" d="M280.416,385.091c-0.933,3.082-0.998,6.228-2.229,9.313c-0.742,1.864-2.525,5.385-1.44,7.333
								c0.11,0.196,0.364,0.363,0.596,0.342c2.918-0.273,4.209-5.304,4.609-7.647c0.469-2.742,1.226-7.288-0.96-9.493
								C280.806,384.75,280.49,384.845,280.416,385.091z"/>
							<path style="fill:#FFFFFF;" d="M272.814,382.229c-0.599-0.36-1.198,0.227-1.088,0.835c0.013,0.063,0.023,0.125,0.034,0.188
								c0.025,0.132,0.164,0.271,0.296,0.295c-0.011-0.003,0.574,2.971,0.621,3.268c0.119,0.753,0.151,1.51,0.139,2.266
								c-1.29-1.232-2.814-2.167-4.367-1.952c-0.291,0.041-0.482,0.376-0.489,0.643c-0.031,1.58,1.272,2.869,2.397,3.803
								c0.349,0.29,0.719,0.589,1.106,0.868c-1.947,0.532-3.727,1.56-3.424,3.603c0.238,1.591,2.096,1.366,3.133,0.92
								c0.217-0.094,0.434-0.206,0.646-0.327c-0.366,1.43-0.96,2.74-2.06,3.485c-0.913,0.618-0.362,2.128,0.768,1.82
								C277.153,400.136,278.445,385.62,272.814,382.229z M269.469,388.397c1.179,0.157,2.33,1.308,3.235,2.512
								c-0.023,0.202-0.054,0.404-0.079,0.606c-0.321-0.239-0.643-0.474-0.947-0.726
								C271.008,390.233,269.891,389.337,269.469,388.397z M271.876,394.284c-0.228,0.194-2.216,1.595-2.107,1.08
								c0.151-0.712,1.322-1.172,2.544-1.473c0,0,0,0.001,0,0.002C272.165,394.023,272.022,394.157,271.876,394.284z"/>
						</g>
						<path style="fill:#D1881F;" d="M322.371,405.897c-0.25,0-0.475-0.172-0.532-0.427c-0.064-0.293,0.12-0.584,0.414-0.649
							c0.095-0.021,9.528-2.216,13.014-10.911c3.4-8.487-2.622-11.18-2.88-11.289c-0.276-0.119-0.405-0.439-0.287-0.715
							c0.118-0.278,0.439-0.406,0.715-0.288c0.073,0.032,7.255,3.232,3.463,12.696c-3.702,9.241-13.379,11.48-13.788,11.57
							C322.449,405.893,322.409,405.897,322.371,405.897z"/>
					</g>
					<g>
						<path style="fill:#2794D7;" d="M259.365,377.964c0,0,1.09,12.354-3.133,24.019c0,0-61.378-13.611-86.263-21.95
							c-29.005-9.721-23.228-41.015-12.839-42.553C182.872,333.672,215.7,363.254,259.365,377.964z"/>
						<path style="fill:#137FBD;" d="M192.36,373.561c-10.553-4.588-20.952-10.554-28.6-19.271
							c-4.387-4.98-6.838-10.331-8.005-16.403c-9.461,3.939-13.478,32.866,14.214,42.145c24.885,8.339,86.263,21.95,86.263,21.95
							c0.128-0.355,0.251-0.71,0.37-1.066c-1.331-1-2.696-1.973-4.136-2.887C233.961,386.408,212.243,382.278,192.36,373.561z"/>
					</g>
				</g>
			</g>
		</g>
		<g>
			<polygon style="fill:#EAEFFF;" points="430.38,396.38 442.813,396.38 431.106,337.713 			"/>
			<path style="fill:#EAEFFF;" d="M431.339,339.03l-0.011-0.105l-0.046,0.004c-0.053-0.08-0.132-0.137-0.235-0.115
				c-0.082,0.014-0.137,0.072-0.17,0.142l-0.048,0.003l1.875,56.375c0.005,0.139,0.131,0.247,0.259,0.242
				c0.138-0.006,0.246-0.121,0.241-0.259l-1.617-48.608l4.761,48.641c0.013,0.129,0.122,0.227,0.249,0.227
				c0.008,0,0.016-0.001,0.024-0.002c0.138-0.014,0.238-0.135,0.225-0.273l-4.866-49.72l8.729,49.788
				c0.021,0.121,0.127,0.207,0.246,0.207c0.014,0,0.028-0.002,0.043-0.004c0.136-0.024,0.228-0.154,0.203-0.289L431.339,339.03z"/>
			<polygon style="fill:#EAEFFF;" points="431.106,396.38 352.719,396.38 357.024,337.713 431.106,337.713 			"/>
			<path style="fill:#FF6C8B;" d="M428.065,349.924c0,1.105-0.896,2-2,2h-64c-1.104,0-2-0.895-2-2v-5.053c0-1.104,0.896-2,2-2h64
				c1.104,0,2,0.896,2,2V349.924z"/>
			<g>
				<g>
					<path style="fill:#FFFFFF;" d="M368.086,360.943c-0.041,1.19-1.039,2.155-2.229,2.155h-3.631c-1.189,0-2.121-0.965-2.08-2.155
						l0.096-2.722c0.041-1.19,1.04-2.155,2.23-2.155h3.63c1.189,0,2.12,0.965,2.079,2.155L368.086,360.943z"/>
					<path style="fill:#FFFFFF;" d="M377.5,360.943c-0.041,1.19-1.039,2.155-2.229,2.155h-3.631c-1.189,0-2.121-0.965-2.08-2.155
						l0.096-2.722c0.041-1.19,1.04-2.155,2.23-2.155h3.63c1.189,0,2.12,0.965,2.079,2.155L377.5,360.943z"/>
					<path style="fill:#FFFFFF;" d="M386.914,360.943c-0.041,1.19-1.039,2.155-2.229,2.155h-3.631c-1.189,0-2.121-0.965-2.08-2.155
						l0.096-2.722c0.041-1.19,1.04-2.155,2.229-2.155h3.631c1.189,0,2.12,0.965,2.079,2.155L386.914,360.943z"/>
					<path style="fill:#FFFFFF;" d="M396.328,360.943c-0.041,1.19-1.039,2.155-2.228,2.155h-3.631c-1.189,0-2.121-0.965-2.08-2.155
						l0.096-2.722c0.041-1.19,1.04-2.155,2.229-2.155h3.631c1.189,0,2.12,0.965,2.079,2.155L396.328,360.943z"/>
					<path style="fill:#FFFFFF;" d="M405.742,360.943c-0.041,1.19-1.039,2.155-2.228,2.155h-3.631c-1.189,0-2.121-0.965-2.08-2.155
						l0.096-2.722c0.041-1.19,1.04-2.155,2.229-2.155h3.631c1.19,0,2.12,0.965,2.079,2.155L405.742,360.943z"/>
					<path style="fill:#FFFFFF;" d="M367.758,370.357c-0.042,1.19-1.041,2.155-2.23,2.155h-3.629c-1.191,0-2.122-0.965-2.08-2.155
						l0.095-2.722c0.042-1.19,1.04-2.155,2.23-2.155h3.63c1.189,0,2.121,0.965,2.079,2.155L367.758,370.357z"/>
					<path style="fill:#FFFFFF;" d="M377.172,370.357c-0.042,1.19-1.041,2.155-2.23,2.155h-3.629c-1.191,0-2.122-0.965-2.08-2.155
						l0.095-2.722c0.042-1.19,1.04-2.155,2.23-2.155h3.63c1.189,0,2.121,0.965,2.079,2.155L377.172,370.357z"/>
					<path style="fill:#FFFFFF;" d="M386.586,370.357c-0.042,1.19-1.041,2.155-2.23,2.155h-3.631c-1.19,0-2.12-0.965-2.078-2.155
						l0.095-2.722c0.042-1.19,1.04-2.155,2.229-2.155h3.631c1.189,0,2.121,0.965,2.079,2.155L386.586,370.357z"/>
					<path style="fill:#FFFFFF;" d="M396,370.357c-0.042,1.19-1.041,2.155-2.23,2.155h-3.631c-1.189,0-2.12-0.965-2.078-2.155
						l0.095-2.722c0.042-1.19,1.04-2.155,2.229-2.155h3.631c1.189,0,2.121,0.965,2.079,2.155L396,370.357z"/>
					<path style="fill:#FFFFFF;" d="M405.414,370.357c-0.042,1.19-1.041,2.155-2.23,2.155h-3.631c-1.19,0-2.12-0.965-2.078-2.155
						l0.095-2.722c0.042-1.19,1.04-2.155,2.229-2.155h3.631c1.19,0,2.121,0.965,2.079,2.155L405.414,370.357z"/>
					<path style="fill:#FFFFFF;" d="M367.429,379.771c-0.042,1.189-1.04,2.154-2.23,2.154h-3.63c-1.19,0-2.122-0.965-2.08-2.154
						l0.095-2.723c0.042-1.19,1.041-2.154,2.23-2.154h3.631c1.189,0,2.12,0.965,2.078,2.154L367.429,379.771z"/>
					<path style="fill:#FFFFFF;" d="M376.843,379.771c-0.042,1.189-1.04,2.154-2.23,2.154h-3.63c-1.19,0-2.122-0.965-2.08-2.154
						l0.095-2.723c0.042-1.19,1.041-2.154,2.23-2.154h3.631c1.189,0,2.12,0.965,2.078,2.154L376.843,379.771z"/>
					<path style="fill:#FFFFFF;" d="M386.257,379.771c-0.042,1.189-1.04,2.154-2.229,2.154h-3.631c-1.189,0-2.121-0.965-2.079-2.154
						l0.095-2.723c0.042-1.19,1.041-2.154,2.23-2.154h3.631c1.189,0,2.12,0.965,2.078,2.154L386.257,379.771z"/>
					<path style="fill:#FFFFFF;" d="M395.671,379.771c-0.042,1.189-1.04,2.154-2.229,2.154h-3.631c-1.189,0-2.121-0.965-2.079-2.154
						l0.095-2.723c0.042-1.19,1.041-2.154,2.23-2.154h3.631c1.189,0,2.12,0.965,2.078,2.154L395.671,379.771z"/>
					<path style="fill:#FFFFFF;" d="M405.085,379.771c-0.042,1.189-1.04,2.154-2.229,2.154h-3.631c-1.19,0-2.121-0.965-2.079-2.154
						l0.095-2.723c0.042-1.19,1.041-2.154,2.23-2.154h3.631c1.189,0,2.12,0.965,2.078,2.154L405.085,379.771z"/>
					<path style="fill:#FFFFFF;" d="M367.1,389.184c-0.041,1.191-1.039,2.155-2.229,2.155h-3.631c-1.19,0-2.121-0.965-2.08-2.155
						l0.096-2.722c0.041-1.19,1.04-2.155,2.23-2.155h3.63c1.189,0,2.12,0.965,2.079,2.155L367.1,389.184z"/>
					<path style="fill:#FFFFFF;" d="M376.514,389.184c-0.041,1.191-1.039,2.155-2.229,2.155h-3.631c-1.189,0-2.121-0.965-2.08-2.155
						l0.096-2.722c0.041-1.19,1.04-2.155,2.23-2.155h3.63c1.189,0,2.12,0.965,2.079,2.155L376.514,389.184z"/>
					<path style="fill:#FFFFFF;" d="M385.928,389.184c-0.041,1.191-1.039,2.155-2.229,2.155h-3.631c-1.189,0-2.121-0.965-2.08-2.155
						l0.096-2.722c0.041-1.19,1.04-2.155,2.229-2.155h3.631c1.189,0,2.12,0.965,2.079,2.155L385.928,389.184z"/>
					<path style="fill:#FFFFFF;" d="M395.342,389.184c-0.041,1.191-1.039,2.155-2.229,2.155h-3.631c-1.189,0-2.121-0.965-2.08-2.155
						l0.096-2.722c0.041-1.19,1.04-2.155,2.23-2.155h3.631c1.189,0,2.12,0.965,2.079,2.155L395.342,389.184z"/>
					<path style="fill:#FFFFFF;" d="M404.756,389.184c-0.041,1.191-1.039,2.155-2.228,2.155h-3.631c-1.189,0-2.121-0.965-2.08-2.155
						l0.096-2.722c0.041-1.19,1.04-2.155,2.229-2.155h3.631c1.189,0,2.12,0.965,2.079,2.155L404.756,389.184z"/>
				</g>
				<g>
					<path style="fill:#EAEFFF;" d="M415.156,360.943c-0.041,1.19-1.039,2.155-2.23,2.155h-3.629c-1.189,0-2.121-0.965-2.08-2.155
						l0.096-2.722c0.041-1.19,1.04-2.155,2.229-2.155h3.63c1.191,0,2.121,0.965,2.08,2.155L415.156,360.943z"/>
					<path style="fill:#EAEFFF;" d="M424.57,360.943c-0.041,1.19-1.039,2.155-2.231,2.155h-3.629c-1.19,0-2.121-0.965-2.08-2.155
						l0.096-2.722c0.041-1.19,1.04-2.155,2.229-2.155h3.63c1.19,0,2.121,0.965,2.08,2.155L424.57,360.943z"/>
					<path style="fill:#EAEFFF;" d="M414.828,370.357c-0.042,1.19-1.041,2.155-2.23,2.155h-3.631c-1.189,0-2.12-0.965-2.078-2.155
						l0.095-2.722c0.042-1.19,1.04-2.155,2.229-2.155h3.63c1.191,0,2.122,0.965,2.08,2.155L414.828,370.357z"/>
					<path style="fill:#EAEFFF;" d="M424.242,370.357c-0.042,1.19-1.041,2.155-2.23,2.155h-3.631c-1.189,0-2.12-0.965-2.078-2.155
						l0.095-2.722c0.042-1.19,1.04-2.155,2.229-2.155h3.63c1.19,0,2.122,0.965,2.08,2.155L424.242,370.357z"/>
					<path style="fill:#EAEFFF;" d="M414.499,379.771c-0.042,1.189-1.04,2.154-2.23,2.154h-3.63c-1.189,0-2.121-0.965-2.079-2.154
						l0.095-2.723c0.042-1.19,1.041-2.154,2.23-2.154h3.629c1.191,0,2.122,0.965,2.08,2.154L414.499,379.771z"/>
					<path style="fill:#EAEFFF;" d="M423.913,379.771c-0.042,1.189-1.04,2.154-2.23,2.154h-3.63c-1.19,0-2.121-0.965-2.079-2.154
						l0.095-2.723c0.042-1.19,1.041-2.154,2.23-2.154h3.629c1.191,0,2.122,0.965,2.08,2.154L423.913,379.771z"/>
					<path style="fill:#EAEFFF;" d="M414.17,389.184c-0.041,1.191-1.039,2.155-2.23,2.155h-3.629c-1.189,0-2.121-0.965-2.08-2.155
						l0.096-2.722c0.041-1.19,1.04-2.155,2.229-2.155h3.63c1.19,0,2.121,0.965,2.08,2.155L414.17,389.184z"/>
					<path style="fill:#EAEFFF;" d="M423.584,389.184c-0.041,1.191-1.039,2.155-2.23,2.155h-3.629c-1.19,0-2.121-0.965-2.08-2.155
						l0.096-2.722c0.041-1.19,1.04-2.155,2.229-2.155h3.63c1.19,0,2.121,0.965,2.08,2.155L423.584,389.184z"/>
				</g>
			</g>
			<g>
				<path style="fill:#A3A6F3;" d="M362.985,339.938c0,0.806-0.653,1.46-1.46,1.46l0,0c-0.807,0-1.46-0.654-1.46-1.46v-6.343
					c0-0.807,0.653-1.461,1.46-1.461l0,0c0.807,0,1.46,0.654,1.46,1.461V339.938z"/>
				<path style="fill:#A3A6F3;" d="M375.644,339.938c0,0.806-0.653,1.46-1.46,1.46l0,0c-0.807,0-1.46-0.654-1.46-1.46v-6.343
					c0-0.807,0.653-1.461,1.46-1.461l0,0c0.807,0,1.46,0.654,1.46,1.461V339.938z"/>
				<path style="fill:#A3A6F3;" d="M388.302,339.938c0,0.806-0.653,1.46-1.46,1.46l0,0c-0.807,0-1.46-0.654-1.46-1.46v-6.343
					c0-0.807,0.653-1.461,1.46-1.461l0,0c0.807,0,1.46,0.654,1.46,1.461V339.938z"/>
				<path style="fill:#A3A6F3;" d="M400.961,339.938c0,0.806-0.653,1.46-1.46,1.46l0,0c-0.807,0-1.46-0.654-1.46-1.46v-6.343
					c0-0.807,0.653-1.461,1.46-1.461l0,0c0.807,0,1.46,0.654,1.46,1.461V339.938z"/>
				<path style="fill:#A3A6F3;" d="M413.619,339.938c0,0.806-0.653,1.46-1.46,1.46l0,0c-0.807,0-1.46-0.654-1.46-1.46v-6.343
					c0-0.807,0.653-1.461,1.46-1.461l0,0c0.807,0,1.46,0.654,1.46,1.461V339.938z"/>
				<path style="fill:#A3A6F3;" d="M426.277,339.938c0,0.806-0.653,1.46-1.46,1.46l0,0c-0.807,0-1.46-0.654-1.46-1.46v-6.343
					c0-0.807,0.653-1.461,1.46-1.461l0,0c0.807,0,1.46,0.654,1.46,1.461V339.938z"/>
			</g>
		</g>
	</g>
</g>
</svg>
