<?xml version="1.0" encoding="utf-8"?>
<!-- Generator: Adobe Illustrator 27.5.0, SVG Export Plug-In . SVG Version: 6.00 Build 0)  -->
<svg version="1.1" xmlns="http://www.w3.org/2000/svg" xmlns:xlink="http://www.w3.org/1999/xlink" x="0px" y="0px"
	 viewBox="0 0 500 500" style="enable-background:new 0 0 500 500;" xml:space="preserve">
<g id="BACKGROUND">
	<rect style="fill:#FFFFFF;" width="500" height="500"/>
</g>
<g id="OBJECTS">
	<g>
		<g>
			<g>
				<path style="fill:#F9CDE8;" d="M148.102,165.611c0,1.662-1.347,3.01-3.008,3.01H38.411c-1.663,0-3.013-1.348-3.013-3.01V85.355
					c0-1.664,1.35-3.013,3.013-3.013h106.684c1.661,0,3.008,1.349,3.008,3.013V165.611z"/>
				<g>
					<g>
						<path style="fill:#F98ABF;" d="M138.645,97.916c-1.826,0-3.311-1.489-3.311-3.317c0-1.827,1.485-3.315,3.311-3.315
							c1.829,0,3.317,1.488,3.317,3.315C141.963,96.427,140.475,97.916,138.645,97.916z M138.645,92.878
							c-0.947,0-1.72,0.771-1.72,1.721c0,0.95,0.772,1.724,1.72,1.724c0.952,0,1.724-0.774,1.724-1.724
							C140.369,93.649,139.598,92.878,138.645,92.878z"/>
						<path style="fill:#F98ABF;" d="M143.102,99.479c-0.183,0-0.363-0.063-0.514-0.19l-2.693-2.277
							c-0.338-0.284-0.38-0.785-0.097-1.122c0.282-0.336,0.786-0.377,1.123-0.094l2.694,2.278c0.338,0.282,0.38,0.786,0.095,1.122
							C143.553,99.382,143.327,99.479,143.102,99.479z"/>
					</g>
					<g>
						<path style="fill:#F98ABF;" d="M57.582,97.916h-5.037c-0.438,0-0.797-0.357-0.797-0.797V92.08
							c0-0.439,0.358-0.797,0.797-0.797h5.037c0.439,0,0.8,0.357,0.8,0.797v5.039C58.382,97.559,58.021,97.916,57.582,97.916z
							 M53.341,96.322h3.446v-3.444h-3.446V96.322z"/>
						<g>
							<path style="fill:#F98ABF;" d="M45.965,97.916c-0.205,0-0.408-0.078-0.564-0.234l-5.038-5.037
								c-0.31-0.313-0.31-0.814,0-1.128c0.312-0.311,0.815-0.311,1.129,0l5.036,5.038c0.313,0.312,0.313,0.817,0,1.127
								C46.373,97.838,46.17,97.916,45.965,97.916z"/>
							<path style="fill:#F98ABF;" d="M40.928,97.916c-0.206,0-0.41-0.078-0.565-0.234c-0.31-0.31-0.31-0.815,0-1.127l5.038-5.038
								c0.313-0.311,0.815-0.311,1.127,0c0.313,0.313,0.313,0.814,0,1.128l-5.036,5.037C41.334,97.838,41.13,97.916,40.928,97.916z"
								/>
						</g>
					</g>
				</g>
				<g>
					<g>
						<path style="fill:#F98ABF;" d="M78.193,147.892H44.794c-0.733,0-1.327-0.595-1.327-1.328v-34.892
							c0-0.732,0.594-1.329,1.327-1.329h33.399c0.733,0,1.328,0.597,1.328,1.329v34.892
							C79.521,147.297,78.927,147.892,78.193,147.892z M46.121,145.236h30.746v-32.235H46.121V145.236z"/>
						<path style="fill:#F98ABF;" d="M78.193,147.892c-0.352,0-0.698-0.137-0.961-0.411l-33.397-34.892
							c-0.506-0.528-0.49-1.37,0.04-1.875c0.532-0.506,1.371-0.489,1.877,0.04l33.4,34.893c0.508,0.529,0.488,1.369-0.041,1.877
							C78.854,147.77,78.523,147.892,78.193,147.892z"/>
						<path style="fill:#F98ABF;" d="M44.794,147.892c-0.329,0-0.663-0.122-0.919-0.368c-0.53-0.508-0.546-1.348-0.04-1.877
							l33.397-34.893c0.509-0.529,1.35-0.546,1.879-0.04c0.529,0.505,0.549,1.347,0.041,1.875l-33.4,34.892
							C45.492,147.753,45.145,147.892,44.794,147.892z"/>
					</g>
					<g>
						<g>
							<path style="fill:#F98ABF;" d="M137.574,114.632h-32.746c-0.732,0-1.327-0.594-1.327-1.328c0-0.731,0.595-1.327,1.327-1.327
								h32.746c0.732,0,1.326,0.596,1.326,1.327C138.9,114.038,138.307,114.632,137.574,114.632z"/>
							<path style="fill:#F98ABF;" d="M137.574,127.365h-32.746c-0.732,0-1.327-0.592-1.327-1.327c0-0.733,0.595-1.327,1.327-1.327
								h32.746c0.732,0,1.326,0.594,1.326,1.327C138.9,126.773,138.307,127.365,137.574,127.365z"/>
							<path style="fill:#F98ABF;" d="M137.574,140.205h-32.746c-0.732,0-1.327-0.594-1.327-1.329c0-0.732,0.595-1.325,1.327-1.325
								h32.746c0.732,0,1.326,0.594,1.326,1.325C138.9,139.611,138.307,140.205,137.574,140.205z"/>
							<path style="fill:#F98ABF;" d="M137.574,152.939h-32.746c-0.732,0-1.327-0.594-1.327-1.327c0-0.734,0.595-1.329,1.327-1.329
								h32.746c0.732,0,1.326,0.595,1.326,1.329C138.9,152.345,138.307,152.939,137.574,152.939z"/>
						</g>
						<g>
							<path style="fill:#F98ABF;" d="M97.06,113.304c0,1.394-1.127,2.519-2.518,2.519c-1.392,0-2.52-1.126-2.52-2.519
								c0-1.39,1.128-2.517,2.52-2.517C95.934,110.787,97.06,111.914,97.06,113.304z"/>
							<path style="fill:#F98ABF;" d="M97.06,126.038c0,1.392-1.127,2.52-2.518,2.52c-1.392,0-2.52-1.129-2.52-2.52
								s1.128-2.519,2.52-2.519C95.934,123.52,97.06,124.646,97.06,126.038z"/>
							<path style="fill:#F98ABF;" d="M97.06,138.876c0,1.393-1.127,2.518-2.518,2.518c-1.392,0-2.52-1.126-2.52-2.518
								c0-1.389,1.128-2.52,2.52-2.52C95.934,136.356,97.06,137.487,97.06,138.876z"/>
							<path style="fill:#F98ABF;" d="M97.06,151.611c0,1.393-1.127,2.519-2.518,2.519c-1.392,0-2.52-1.126-2.52-2.519
								c0-1.392,1.128-2.518,2.52-2.518C95.934,149.093,97.06,150.22,97.06,151.611z"/>
						</g>
					</g>
				</g>
				<path style="fill:#FFFFFF;" d="M131.411,97.083c0,2.975-2.412,5.386-5.387,5.386H66.881c-2.979,0-5.387-2.411-5.387-5.386l0,0
					c0-2.975,2.408-5.388,5.387-5.388h59.144C128.999,91.695,131.411,94.108,131.411,97.083L131.411,97.083z"/>
			</g>
			<g>
				<g>
					<g>
						<path style="fill:#82B9F2;" d="M322.525,257.291c0,73.618-59.678,133.293-133.291,133.293
							c-73.617,0-133.293-59.675-133.293-133.293C55.941,183.678,115.617,124,189.234,124
							C262.848,124,322.525,183.678,322.525,257.291z"/>
						<path style="fill:#5D99CE;" d="M189.234,386.037c-72.856,0-132.05-58.452-133.265-131.018
							c-0.013,0.758-0.028,1.514-0.028,2.271c0,73.618,59.676,133.293,133.293,133.293c73.613,0,133.291-59.675,133.291-133.293
							c0-0.758-0.018-1.514-0.028-2.271C321.281,327.585,262.088,386.037,189.234,386.037z"/>
						<path style="fill:#FFFFFF;" d="M297.933,257.291c0,60.037-48.667,108.702-108.698,108.702
							c-60.037,0-108.7-48.665-108.7-108.702c0-60.031,48.663-108.698,108.7-108.698
							C249.266,148.593,297.933,197.26,297.933,257.291z"/>
						<path style="opacity:0.41;fill:#CEE5F4;" d="M199.848,158.594c26.178,0,50.188,9.258,68.951,24.672
							c-19.849-21.322-48.141-34.673-79.564-34.673c-60.037,0-108.7,48.667-108.7,108.698c0,33.858,15.481,64.096,39.748,84.032
							c-18.065-19.41-29.133-45.42-29.133-74.027C91.149,207.263,139.814,158.594,199.848,158.594z"/>
						<g>
							<path style="fill:#5D99CE;" d="M189.234,182.859c-2.176,0-3.937-1.762-3.937-3.934v-20.332c0-2.171,1.761-3.933,3.937-3.933
								c2.172,0,3.933,1.762,3.933,3.933v20.332C193.167,181.098,191.406,182.859,189.234,182.859z"/>
							<path style="fill:#5D99CE;" d="M189.234,358.698c-2.176,0-3.937-1.763-3.937-3.934v-20.33c0-2.172,1.761-3.935,3.937-3.935
								c2.172,0,3.933,1.763,3.933,3.935v20.33C193.167,356.935,191.406,358.698,189.234,358.698z"/>
							<path style="fill:#5D99CE;" d="M287.316,260.614h-20.327c-2.174,0-3.936-1.762-3.936-3.935c0-2.174,1.763-3.935,3.936-3.935
								h20.327c2.173,0,3.936,1.761,3.936,3.935C291.253,258.853,289.489,260.614,287.316,260.614z"/>
							<path style="fill:#5D99CE;" d="M111.477,260.614H91.149c-2.174,0-3.937-1.762-3.937-3.935c0-2.174,1.763-3.935,3.937-3.935
								h20.328c2.174,0,3.935,1.761,3.935,3.935C115.412,258.853,113.651,260.614,111.477,260.614z"/>
						</g>
						<g>
							<path style="fill:#5D99CE;" d="M123.143,217.685c-0.353,0-0.711-0.094-1.034-0.296l-17.278-10.711
								c-0.926-0.572-1.211-1.785-0.639-2.706c0.572-0.925,1.787-1.215,2.709-0.636l17.28,10.709
								c0.924,0.574,1.209,1.786,0.635,2.707C124.445,217.354,123.803,217.685,123.143,217.685z"/>
							<path style="fill:#5D99CE;" d="M272.598,310.318c-0.354,0-0.712-0.093-1.032-0.295l-17.278-10.708
								c-0.924-0.572-1.209-1.786-0.638-2.707c0.572-0.923,1.783-1.209,2.707-0.636l17.278,10.709
								c0.926,0.572,1.211,1.785,0.638,2.707C273.902,309.99,273.257,310.318,272.598,310.318z"/>
							<path style="fill:#5D99CE;" d="M230.192,192.557c-0.353,0-0.71-0.096-1.033-0.297c-0.924-0.571-1.207-1.784-0.636-2.707
								l10.709-17.277c0.57-0.925,1.783-1.213,2.709-0.636c0.922,0.571,1.207,1.786,0.635,2.707l-10.708,17.278
								C231.496,192.227,230.851,192.557,230.192,192.557z"/>
							<path style="fill:#5D99CE;" d="M137.556,342.017c-0.352,0-0.713-0.097-1.034-0.297c-0.923-0.571-1.209-1.783-0.637-2.71
								l10.713-17.275c0.569-0.922,1.785-1.207,2.71-0.636c0.92,0.573,1.206,1.784,0.634,2.71l-10.713,17.278
								C138.856,341.685,138.215,342.017,137.556,342.017z"/>
						</g>
						<g>
							<path style="fill:#5D99CE;" d="M152.858,189.925c-0.704,0-1.387-0.379-1.739-1.047l-9.511-17.966
								c-0.507-0.962-0.141-2.153,0.819-2.661c0.962-0.511,2.151-0.14,2.659,0.82l9.511,17.968c0.508,0.96,0.139,2.152-0.818,2.658
								C153.482,189.852,153.169,189.925,152.858,189.925z"/>
							<path style="fill:#5D99CE;" d="M235.117,345.339c-0.706,0-1.387-0.382-1.74-1.048l-9.511-17.969
								c-0.509-0.96-0.142-2.148,0.818-2.658c0.965-0.51,2.15-0.14,2.66,0.818l9.51,17.967c0.509,0.963,0.142,2.15-0.818,2.66
								C235.741,345.266,235.427,345.339,235.117,345.339z"/>
							<path style="fill:#5D99CE;" d="M257.956,222.273c-0.705,0-1.388-0.382-1.741-1.048c-0.508-0.96-0.141-2.149,0.819-2.658
								l17.968-9.51c0.966-0.513,2.148-0.141,2.659,0.817c0.511,0.961,0.142,2.15-0.818,2.658l-17.968,9.512
								C258.58,222.2,258.267,222.273,257.956,222.273z"/>
							<path style="fill:#5D99CE;" d="M102.544,304.533c-0.705,0-1.387-0.38-1.739-1.048c-0.51-0.96-0.144-2.148,0.816-2.658
								l17.969-9.511c0.965-0.511,2.15-0.14,2.658,0.819c0.511,0.959,0.143,2.148-0.818,2.66l-17.968,9.509
								C103.168,304.461,102.853,304.533,102.544,304.533z"/>
						</g>
						<g>
							<polyline style="fill:#5D99CE;" points="182.337,257.291 193.167,246.523 141.38,207.032 179.445,257.291 							"/>
						</g>
						<polygon style="fill:#5D99CE;" points="190.597,273.703 254.499,323.435 206.525,256.68 						"/>
						<g>
							<path style="fill:#FFFFFF;" d="M205.163,261.707c0,8.798-7.13,15.93-15.929,15.93c-8.799,0-15.933-7.132-15.933-15.93
								c0-8.799,7.134-15.932,15.933-15.932C198.033,245.775,205.163,252.908,205.163,261.707z"/>
							<path style="fill:#5D99CE;" d="M190.597,281.572c-10.953,0-19.867-8.911-19.867-19.865c0-10.953,8.914-19.866,19.867-19.866
								c10.954,0,19.865,8.913,19.865,19.866C210.462,272.661,201.551,281.572,190.597,281.572z M190.597,249.712
								c-6.614,0-11.997,5.382-11.997,11.995c0,6.615,5.383,11.996,11.997,11.996c6.613,0,11.996-5.381,11.996-11.996
								C202.593,255.094,197.21,249.712,190.597,249.712z"/>
						</g>
					</g>
					<g>
						<path style="opacity:0.41;fill:#CEE5F4;" d="M260.693,162.847c-1.311-0.366-47.406-17.068-48.598-17.522
							c-0.41,2.859-0.632,5.78-0.632,8.753c0,34.018,27.576,61.594,61.594,61.594c9.608,0,18.699-2.206,26.802-6.133
							C287.375,194.867,261.232,163.736,260.693,162.847z"/>
						<path style="fill:#5D99CE;" d="M284.268,203.816c8.221-1.584,15.861-4.8,22.568-9.303
							c-18.219-34.059-50.797-59.279-89.65-67.572c0,0-5.164,11.711-5.722,23.93C242.842,157.355,269.145,176.652,284.268,203.816z"
							/>
						<g>
							<path style="fill:#F98ABF;" d="M340.879,145.44c0,34.016-27.576,61.592-61.593,61.592s-61.592-27.576-61.592-61.592
								c0-34.019,27.575-61.592,61.592-61.592S340.879,111.422,340.879,145.44z"/>
							<g>
								<path style="fill:#FFFFFF;" d="M329.516,145.44c0,27.739-22.488,50.228-50.229,50.228
									c-27.739,0-50.226-22.488-50.226-50.228c0-27.74,22.486-50.229,50.226-50.229C307.027,95.212,329.516,117.7,329.516,145.44z
									"/>
								<path style="opacity:0.41;fill:#CEE5F4;" d="M284.192,99.833c12.096,0,23.191,4.277,31.861,11.401
									c-9.171-9.854-22.245-16.022-36.768-16.022c-27.739,0-50.226,22.488-50.226,50.229c0,15.645,7.15,29.617,18.366,38.828
									c-8.349-8.968-13.464-20.987-13.464-34.206C233.963,122.322,256.451,99.833,284.192,99.833z"/>
								<g>
									<g>
										<path style="fill:#F98ABF;" d="M279.286,111.046c-1.004,0-1.817-0.814-1.817-1.818v-9.395
											c0-1.004,0.814-1.817,1.817-1.817c1.005,0,1.819,0.813,1.819,1.817v9.395
											C281.105,110.231,280.291,111.046,279.286,111.046z"/>
										<path style="fill:#82B9F2;" d="M279.286,192.298c-1.004,0-1.817-0.814-1.817-1.818v-9.394
											c0-1.005,0.814-1.818,1.817-1.818c1.005,0,1.819,0.814,1.819,1.818v9.394
											C281.105,191.483,280.291,192.298,279.286,192.298z"/>
										<path style="fill:#F98ABF;" d="M324.611,146.976h-9.396c-1.003,0-1.818-0.814-1.818-1.819
											c0-1.003,0.815-1.817,1.818-1.817h9.396c1.003,0,1.816,0.814,1.816,1.817
											C326.428,146.161,325.614,146.976,324.611,146.976z"/>
										<path style="fill:#F98ABF;" d="M243.359,146.976h-9.396c-1.004,0-1.817-0.814-1.817-1.819
											c0-1.003,0.814-1.817,1.817-1.817h9.396c1.002,0,1.814,0.814,1.814,1.817
											C245.174,146.161,244.361,146.976,243.359,146.976z"/>
									</g>
									<g>
										<path style="fill:#F98ABF;" d="M248.747,127.138c-0.162,0-0.329-0.042-0.478-0.138l-7.984-4.949
											c-0.426-0.264-0.559-0.823-0.293-1.25c0.262-0.428,0.823-0.561,1.25-0.294l7.986,4.948
											c0.426,0.267,0.557,0.826,0.294,1.252C249.35,126.986,249.053,127.138,248.747,127.138z"/>
										<path style="fill:#82B9F2;" d="M317.809,169.942c-0.163,0-0.329-0.043-0.478-0.136l-7.984-4.949
											c-0.427-0.266-0.56-0.825-0.294-1.25c0.264-0.427,0.825-0.559,1.252-0.294l7.982,4.948
											c0.429,0.265,0.56,0.824,0.295,1.252C318.411,169.791,318.113,169.942,317.809,169.942z"/>
										<path style="fill:#F98ABF;" d="M298.215,115.526c-0.164,0-0.329-0.044-0.477-0.137c-0.428-0.265-0.561-0.824-0.295-1.251
											l4.948-7.984c0.264-0.428,0.824-0.56,1.251-0.293c0.427,0.264,0.559,0.824,0.294,1.25l-4.948,7.983
											C298.816,115.374,298.518,115.526,298.215,115.526z"/>
										<path style="fill:#F98ABF;" d="M255.406,184.589c-0.162,0-0.327-0.043-0.479-0.136c-0.425-0.266-0.556-0.825-0.29-1.252
											l4.948-7.984c0.264-0.426,0.826-0.558,1.253-0.293c0.424,0.265,0.557,0.825,0.292,1.252l-4.948,7.983
											C256.01,184.436,255.713,184.589,255.406,184.589z"/>
									</g>
									<g>
										<path style="fill:#F98ABF;" d="M262.478,114.311c-0.326,0-0.64-0.176-0.803-0.484l-4.395-8.301
											c-0.234-0.445-0.066-0.994,0.377-1.229c0.446-0.236,0.994-0.065,1.229,0.379l4.395,8.302
											c0.236,0.444,0.064,0.995-0.378,1.229C262.768,114.276,262.623,114.311,262.478,114.311z"/>
										<path style="fill:#82B9F2;" d="M300.49,186.125c-0.326,0-0.641-0.177-0.806-0.484l-4.392-8.302
											c-0.237-0.446-0.066-0.995,0.377-1.229c0.444-0.236,0.993-0.065,1.229,0.378l4.394,8.303
											c0.237,0.443,0.066,0.992-0.377,1.227C300.777,186.09,300.632,186.125,300.49,186.125z"/>
										<path style="fill:#82B9F2;" d="M311.043,129.258c-0.327,0-0.641-0.175-0.805-0.484c-0.236-0.442-0.064-0.992,0.379-1.228
											l8.303-4.395c0.445-0.236,0.992-0.064,1.228,0.378c0.236,0.442,0.065,0.992-0.379,1.228l-8.302,4.396
											C311.332,129.224,311.185,129.258,311.043,129.258z"/>
										<path style="fill:#F98ABF;" d="M239.229,167.269c-0.325,0-0.64-0.176-0.803-0.484c-0.237-0.442-0.066-0.991,0.379-1.228
											l8.301-4.395c0.447-0.236,0.993-0.064,1.229,0.378c0.236,0.444,0.068,0.994-0.377,1.23l-8.304,4.395
											C239.519,167.235,239.373,167.269,239.229,167.269z"/>
									</g>
									<g>
										<polyline style="fill:#D65498;" points="281.105,152.893 274.52,148.723 255.661,169.942 279.917,154.842 										"/>
									</g>
									<polygon style="fill:#D65498;" points="283.248,142.435 269.029,107.732 275.232,144.53 									"/>
									<g>
										<path style="fill:#FFFFFF;" d="M287.277,147.48c0,4.064-3.294,7.361-7.36,7.361c-4.065,0-7.36-3.297-7.36-7.361
											c0-4.066,3.295-7.361,7.36-7.361C283.983,140.119,287.277,143.414,287.277,147.48z"/>
										<path style="fill:#D65498;" d="M279.917,156.658c-5.061,0-9.179-4.116-9.179-9.178c0-5.063,4.118-9.181,9.179-9.181
											c5.061,0,9.179,4.118,9.179,9.181C289.096,152.542,284.978,156.658,279.917,156.658z M279.917,141.936
											c-3.057,0-5.544,2.486-5.544,5.544c0,3.056,2.487,5.543,5.544,5.543c3.056,0,5.542-2.487,5.542-5.543
											C285.459,144.423,282.973,141.936,279.917,141.936z"/>
									</g>
								</g>
							</g>
						</g>
					</g>
				</g>
				<g>
					<path style="fill:#8976E5;" d="M230.539,77.541c0,19.021-15.419,34.438-34.437,34.438c-19.02,0-34.438-15.416-34.438-34.438
						c0-19.019,15.418-34.438,34.438-34.438C215.12,43.104,230.539,58.522,230.539,77.541z"/>
					<path style="fill:#FFFFFF;" d="M224.185,77.541c0,15.512-12.575,28.086-28.083,28.086c-15.512,0-28.085-12.574-28.085-28.086
						c0-15.51,12.573-28.083,28.085-28.083C211.61,49.458,224.185,62.031,224.185,77.541z"/>
					<path style="opacity:0.41;fill:#CEE5F4;" d="M198.844,52.043c6.765,0,12.967,2.391,17.814,6.373
						c-5.127-5.508-12.438-8.958-20.556-8.958c-15.512,0-28.085,12.573-28.085,28.083c0,8.748,4.002,16.561,10.27,21.711
						c-4.667-5.015-7.526-11.734-7.526-19.125C170.761,64.616,183.334,52.043,198.844,52.043z"/>
					<g>
						<path style="fill:#8976E5;" d="M196.102,58.311c-0.563,0-1.017-0.453-1.017-1.016v-5.252c0-0.563,0.453-1.018,1.017-1.018
							c0.56,0,1.017,0.454,1.017,1.018v5.252C197.119,57.857,196.662,58.311,196.102,58.311z"/>
						<path style="fill:#8976E5;" d="M196.102,103.741c-0.563,0-1.017-0.455-1.017-1.018v-5.251c0-0.562,0.453-1.017,1.017-1.017
							c0.56,0,1.017,0.455,1.017,1.017v5.251C197.119,103.286,196.662,103.741,196.102,103.741z"/>
						<path style="fill:#8976E5;" d="M221.444,78.4h-5.254c-0.56,0-1.017-0.455-1.017-1.018c0-0.562,0.457-1.016,1.017-1.016h5.254
							c0.56,0,1.015,0.454,1.015,1.016C222.459,77.945,222.004,78.4,221.444,78.4z"/>
						<path style="fill:#8976E5;" d="M176.013,78.4h-5.252c-0.561,0-1.018-0.455-1.018-1.018c0-0.562,0.457-1.016,1.018-1.016h5.252
							c0.563,0,1.017,0.454,1.017,1.016C177.029,77.945,176.575,78.4,176.013,78.4z"/>
					</g>
					<g>
						<path style="fill:#8976E5;" d="M179.026,67.31c-0.093,0-0.184-0.024-0.268-0.077l-4.464-2.768
							c-0.239-0.148-0.313-0.461-0.164-0.699c0.147-0.239,0.461-0.313,0.699-0.165l4.465,2.767c0.237,0.149,0.312,0.463,0.164,0.701
							C179.363,67.224,179.197,67.31,179.026,67.31z"/>
						<path style="fill:#8976E5;" d="M217.64,91.242c-0.091,0-0.183-0.025-0.267-0.077L212.91,88.4
							c-0.241-0.148-0.313-0.462-0.164-0.701c0.146-0.237,0.459-0.313,0.698-0.164l4.464,2.767c0.239,0.147,0.313,0.461,0.166,0.699
							C217.976,91.156,217.81,91.242,217.64,91.242z"/>
						<path style="fill:#8976E5;" d="M206.684,60.816c-0.09,0-0.183-0.023-0.267-0.076c-0.237-0.148-0.312-0.462-0.163-0.698
							l2.767-4.465c0.147-0.239,0.459-0.313,0.7-0.165c0.236,0.148,0.311,0.461,0.164,0.699l-2.767,4.464
							C207.02,60.731,206.854,60.816,206.684,60.816z"/>
						<path style="fill:#8976E5;" d="M182.75,99.432c-0.092,0-0.184-0.025-0.268-0.077c-0.238-0.147-0.311-0.46-0.163-0.7
							l2.767-4.463c0.148-0.238,0.463-0.312,0.7-0.165c0.239,0.148,0.313,0.462,0.164,0.701l-2.769,4.463
							C183.087,99.346,182.92,99.432,182.75,99.432z"/>
					</g>
					<g>
						<path style="fill:#8976E5;" d="M186.705,60.137c-0.184,0-0.357-0.098-0.451-0.27l-2.455-4.644
							c-0.133-0.247-0.039-0.556,0.21-0.686c0.249-0.132,0.556-0.037,0.687,0.212l2.458,4.642c0.131,0.248,0.036,0.557-0.213,0.688
							C186.864,60.118,186.785,60.137,186.705,60.137z"/>
						<path style="fill:#8976E5;" d="M207.957,100.289c-0.184,0-0.357-0.098-0.451-0.271l-2.455-4.643
							c-0.133-0.247-0.037-0.555,0.21-0.687c0.251-0.131,0.556-0.036,0.688,0.211l2.456,4.643c0.133,0.248,0.036,0.555-0.211,0.688
							C208.117,100.27,208.037,100.289,207.957,100.289z"/>
						<path style="fill:#8976E5;" d="M213.857,68.494c-0.182,0-0.359-0.099-0.449-0.27c-0.133-0.248-0.039-0.556,0.21-0.688
							l4.644-2.456c0.249-0.134,0.555-0.037,0.687,0.211c0.133,0.248,0.037,0.557-0.21,0.687l-4.644,2.457
							C214.018,68.475,213.938,68.494,213.857,68.494z"/>
						<path style="fill:#8976E5;" d="M173.705,89.749c-0.183,0-0.359-0.101-0.45-0.273c-0.132-0.247-0.036-0.554,0.211-0.687
							l4.644-2.456c0.249-0.132,0.556-0.036,0.686,0.212c0.133,0.248,0.039,0.555-0.21,0.687l-4.642,2.456
							C173.865,89.729,173.785,89.749,173.705,89.749z"/>
					</g>
					<g>
						<polyline style="fill:#6152CC;" points="195.382,81.143 196.102,76.954 179.028,77.541 195.382,81.143 						"/>
					</g>
					<polygon style="fill:#6152CC;" points="199.617,80.463 213.178,62.506 196.102,76.954 					"/>
					<g>
						<path style="fill:#FFFFFF;" d="M200.568,78.683c0,2.272-1.841,4.114-4.113,4.114c-2.273,0-4.117-1.842-4.117-4.114
							c0-2.273,1.845-4.117,4.117-4.117C198.727,74.565,200.568,76.409,200.568,78.683z"/>
						<path style="fill:#6152CC;" d="M196.455,83.815c-2.832,0-5.132-2.304-5.132-5.133c0-2.83,2.3-5.132,5.132-5.132
							c2.83,0,5.133,2.302,5.133,5.132C201.588,81.512,199.285,83.815,196.455,83.815z M196.455,75.583
							c-1.71,0-3.101,1.391-3.101,3.1s1.391,3.099,3.101,3.099c1.709,0,3.099-1.39,3.099-3.099S198.164,75.583,196.455,75.583z"/>
					</g>
				</g>
			</g>
			<g>
				<path style="fill:#6152CC;" d="M297.653,430.367c0,1.809-1.465,3.272-3.271,3.272H178.416c-1.809,0-3.275-1.464-3.275-3.272
					v-83.051c0-1.808,1.467-3.272,3.275-3.272h115.966c1.807,0,3.271,1.465,3.271,3.272V430.367z"/>
				<g>
					<g>
						<path style="fill:#FFFFFF;" d="M287.375,356.641c-1.912,0-3.464-1.554-3.464-3.465c0-1.908,1.552-3.462,3.464-3.462
							c1.91,0,3.463,1.554,3.463,3.462C290.838,355.087,289.285,356.641,287.375,356.641z M287.375,351.166
							c-1.109,0-2.012,0.901-2.012,2.01c0,1.11,0.902,2.014,2.012,2.014c1.109,0,2.011-0.903,2.011-2.014
							C289.386,352.067,288.484,351.166,287.375,351.166z"/>
						<path style="fill:#FFFFFF;" d="M292.217,358.339c-0.166,0-0.333-0.056-0.469-0.171l-2.93-2.476
							c-0.308-0.259-0.346-0.716-0.086-1.023c0.258-0.307,0.715-0.346,1.022-0.086l2.931,2.475c0.307,0.259,0.345,0.717,0.085,1.022
							C292.626,358.253,292.421,358.339,292.217,358.339z"/>
					</g>
					<g>
						<path style="fill:#FFFFFF;" d="M199.258,356.641h-5.477c-0.401,0-0.727-0.324-0.727-0.726v-5.475
							c0-0.401,0.325-0.726,0.727-0.726h5.477c0.401,0,0.725,0.324,0.725,0.726v5.475
							C199.982,356.316,199.659,356.641,199.258,356.641z M194.506,355.19h4.024v-4.024h-4.024V355.19z"/>
						<g>
							<path style="fill:#FFFFFF;" d="M186.627,356.641c-0.184,0-0.373-0.07-0.512-0.211l-5.479-5.478
								c-0.282-0.284-0.282-0.743,0-1.026c0.286-0.283,0.745-0.283,1.028,0l5.477,5.477c0.283,0.283,0.283,0.743,0,1.027
								C186.999,356.57,186.811,356.641,186.627,356.641z"/>
							<path style="fill:#FFFFFF;" d="M181.15,356.641c-0.186,0-0.373-0.07-0.515-0.211c-0.282-0.284-0.282-0.744,0-1.027
								l5.479-5.477c0.283-0.283,0.742-0.283,1.025,0s0.283,0.742,0,1.026l-5.477,5.478
								C181.522,356.57,181.335,356.641,181.15,356.641z"/>
						</g>
					</g>
				</g>
				<g>
					<g>
						<path style="fill:#FFFFFF;" d="M221.658,410.873h-36.305c-0.668,0-1.208-0.541-1.208-1.21v-37.929
							c0-0.668,0.54-1.209,1.208-1.209h36.305c0.67,0,1.211,0.541,1.211,1.209v37.929
							C222.869,410.332,222.328,410.873,221.658,410.873z M186.565,408.453h33.885v-35.509h-33.885V408.453z"/>
						<path style="fill:#FFFFFF;" d="M221.658,410.873c-0.317,0-0.635-0.124-0.873-0.373l-36.306-37.929
							c-0.462-0.481-0.444-1.249,0.038-1.71c0.482-0.462,1.248-0.446,1.71,0.037l36.306,37.928c0.463,0.483,0.447,1.25-0.036,1.711
							C222.262,410.761,221.96,410.873,221.658,410.873z"/>
						<path style="fill:#FFFFFF;" d="M185.354,410.873c-0.301,0-0.602-0.112-0.836-0.336c-0.482-0.461-0.5-1.228-0.038-1.711
							l36.306-37.928c0.464-0.481,1.229-0.499,1.712-0.037c0.483,0.461,0.499,1.229,0.036,1.71L186.227,410.5
							C185.992,410.749,185.674,410.873,185.354,410.873z"/>
					</g>
					<g>
						<g>
							<path style="fill:#FFFFFF;" d="M286.207,374.719h-35.594c-0.668,0-1.209-0.541-1.209-1.209c0-0.668,0.541-1.21,1.209-1.21
								h35.594c0.67,0,1.211,0.542,1.211,1.21C287.418,374.178,286.877,374.719,286.207,374.719z"/>
							<path style="fill:#FFFFFF;" d="M286.207,388.561h-35.594c-0.668,0-1.209-0.542-1.209-1.209c0-0.669,0.541-1.211,1.209-1.211
								h35.594c0.67,0,1.211,0.542,1.211,1.211C287.418,388.02,286.877,388.561,286.207,388.561z"/>
							<path style="fill:#FFFFFF;" d="M286.207,402.517h-35.594c-0.668,0-1.209-0.54-1.209-1.21c0-0.668,0.541-1.209,1.209-1.209
								h35.594c0.67,0,1.211,0.541,1.211,1.209C287.418,401.977,286.877,402.517,286.207,402.517z"/>
							<path style="fill:#FFFFFF;" d="M286.207,416.36h-35.594c-0.668,0-1.209-0.542-1.209-1.211c0-0.669,0.541-1.21,1.209-1.21
								h35.594c0.67,0,1.211,0.541,1.211,1.21C287.418,415.818,286.877,416.36,286.207,416.36z"/>
						</g>
						<g>
							<path style="fill:#FFFFFF;" d="M242.17,373.51c0,1.512-1.226,2.737-2.737,2.737c-1.512,0-2.737-1.226-2.737-2.737
								c0-1.512,1.226-2.738,2.737-2.738C240.944,370.772,242.17,371.998,242.17,373.51z"/>
							<path style="fill:#FFFFFF;" d="M242.17,387.353c0,1.512-1.226,2.738-2.737,2.738c-1.512,0-2.737-1.227-2.737-2.738
								c0-1.513,1.226-2.738,2.737-2.738C240.944,384.614,242.17,385.84,242.17,387.353z"/>
							<path style="fill:#FFFFFF;" d="M242.17,401.307c0,1.514-1.226,2.738-2.737,2.738c-1.512,0-2.737-1.225-2.737-2.738
								c0-1.511,1.226-2.738,2.737-2.738C240.944,398.568,242.17,399.796,242.17,401.307z"/>
							<path style="fill:#FFFFFF;" d="M242.17,415.149c0,1.513-1.226,2.738-2.737,2.738c-1.512,0-2.737-1.226-2.737-2.738
								c0-1.512,1.226-2.737,2.737-2.737C240.944,412.412,242.17,413.638,242.17,415.149z"/>
						</g>
					</g>
				</g>
				<path style="fill:#FFFFFF;" d="M279.509,355.877c0,3.232-2.623,5.854-5.854,5.854h-64.294c-3.234,0-5.854-2.622-5.854-5.854l0,0
					c0-3.233,2.619-5.855,5.854-5.855h64.294C276.886,350.022,279.509,352.644,279.509,355.877L279.509,355.877z"/>
			</g>
			<g>
				<path style="fill:#6152CC;" d="M457.733,362.665c-0.382-0.468-0.914-0.725-1.499-0.725c-0.866,0-1.581,0.566-2.005,0.908
					l-0.15,0.112c-3.589,2.61-8.188,5.349-15.061,5.883c-0.691,0.052-1.389,0.08-2.071,0.08l0,0c-5.343,0-9.712-1.648-13.283-3.261
					c-0.185-0.085-0.38-0.16-0.578-0.234c-0.133-0.05-0.264-0.1-0.382-0.15c1.919-9.91-1.721-23.577-9.604-27.053l-0.335-0.149
					c-0.464-0.217-0.991-0.462-1.556-0.568c-2.703-0.524-5.084,0.291-6.736,2.284c-1.953,2.357-2.758,6.291-2.054,10.02
					c0.964,5.08,4.415,8.738,6.926,11.045c2.579,2.371,4.79,4.124,6.956,5.514c0.383,0.246,0.771,0.443,1.119,0.617
					c0.235,0.121,0.456,0.233,0.652,0.348c-2.065,7.471-6.084,14.251-11.953,20.16c-7.076,7.125-14.321,10.786-23.496,11.869
					c-3.6,0.424-7.595,0.445-11.838,0.057c-3.547-0.324-7.087-1.021-10.234-2.02c-5.842-1.849-10.714-4.632-14.091-8.051
					c-0.066-0.066-0.133-0.157-0.204-0.251c-0.417-0.528-1.109-1.409-2.281-1.409c-0.246,0-0.497,0.042-0.742,0.129l-0.457,0.157
					l-0.239,0.419c-1.006,1.753,0.461,3.167,1.085,3.772l0.215,0.209c2.025,2.077,4.465,3.913,7.054,5.31
					c7.254,3.913,15.095,5.821,24.672,6.002c0.404,0.009,0.813,0.013,1.224,0.013c5.172,0,9.838-0.626,13.861-1.861
					c7.448-2.286,13.871-6.58,20.208-13.51c5.068-5.542,8.739-11.946,10.924-19.059c4.399,1.918,9.048,3.743,15.161,3.743
					c1.184,0,2.399-0.071,3.615-0.211c4.917-0.567,9.54-2.287,14.14-5.256l0.154-0.098c1.568-0.983,3.054-2.068,3.262-3.324
					C458.199,363.596,458.064,363.078,457.733,362.665z M418.237,362.694c-2.487-1.579-4.557-3.192-6.33-4.929
					c-2.584-2.53-5.145-5.35-5.635-9.523c-0.226-1.93,0.096-4.496,1.329-5.881c0.564-0.636,1.263-0.943,2.136-0.943
					c0.166,0,0.336,0.011,0.514,0.033c0.772,0.096,1.959,0.703,2.618,1.214c4.4,3.401,7.157,12.989,6.105,20.529
					c-0.051-0.034-0.098-0.067-0.147-0.103C418.631,362.956,418.433,362.818,418.237,362.694z"/>
				<path style="fill:#5D99CE;" d="M315.71,69.328c-0.365-0.971-1.458-1.488-2.461-1.116c-3.755,1.413-9.526,3.521-12.759,4.569
					c0.05-1.816,0.055-4.528,0.009-8.202c-0.054-4.396-0.161-8.76-0.185-9.777l-0.006-0.231c-0.023-0.722-0.445-1.365-1.099-1.671
					c-0.642-0.302-1.435-0.211-1.989,0.223l-11.277,8.804l-12.229-26.719c-0.356-0.771-1.189-1.221-2.086-1.084
					c-0.828,0.153-1.453,0.818-1.555,1.655l-3.51,29.632l-19.906-8.358c-0.745-0.313-1.664-0.101-2.199,0.525
					c-0.545,0.639-0.609,1.546-0.164,2.253l10.896,17.335c0.546,0.869,1.755,1.156,2.634,0.6c0.435-0.272,0.733-0.696,0.85-1.196
					c0.108-0.498,0.021-1.011-0.247-1.437l-7.676-12.213l16.669,6.999c0.552,0.229,1.192,0.187,1.71-0.114
					c0.51-0.301,0.857-0.832,0.931-1.424l3.011-25.39l10.405,22.723c0.239,0.528,0.702,0.917,1.3,1.067
					c0.557,0.129,1.164-0.004,1.613-0.354l10.182-7.95c0.176,8.242,0.181,15.004,0.01,16.045c-0.26,0.655-0.152,1.396,0.293,1.952
					c0.66,0.818,1.474,0.798,2.252,0.655h0.001c0.905-0.166,2.576-0.658,7.794-2.524c2.194-0.782,4.868-1.764,7.53-2.761
					l0.147-0.054c0.22-0.084,0.419-0.206,0.605-0.37C315.792,70.889,315.988,70.067,315.71,69.328z"/>
				<path style="fill:#D65498;" d="M142.081,408.486c-0.893,0.669-2.186,0.506-2.883-0.418c-2.589-3.465-6.606-8.734-8.932-11.563
					c-1.011,1.677-2.585,4.143-4.759,7.454c-2.604,3.963-5.235,7.864-5.85,8.772l-0.14,0.207c-0.441,0.643-1.197,0.981-1.97,0.88
					c-0.757-0.099-1.428-0.644-1.677-1.358l-5.126-14.547L84.109,415.07c-0.771,0.496-1.788,0.42-2.521-0.225
					c-0.666-0.621-0.846-1.589-0.451-2.407l14.031-28.956l-22.938-3.977c-0.858-0.148-1.568-0.875-1.689-1.754
					c-0.126-0.897,0.343-1.758,1.159-2.141l19.969-9.415c1.006-0.474,2.268-0.031,2.743,0.986c0.235,0.499,0.262,1.059,0.074,1.581
					c-0.187,0.517-0.564,0.93-1.059,1.161l-14.069,6.633l19.209,3.33c0.636,0.109,1.191,0.522,1.486,1.096
					c0.289,0.57,0.296,1.255,0.018,1.834l-12.019,24.811l22.653-14.592c0.527-0.341,1.173-0.424,1.803-0.215
					c0.582,0.207,1.055,0.682,1.26,1.259l4.628,13.14c4.947-7.385,8.882-13.523,9.333-14.568c0.144-0.744,0.673-1.358,1.4-1.603
					c1.074-0.358,1.803,0.131,2.427,0.713v0.002c0.727,0.675,1.957,2.095,5.613,6.821c1.537,1.986,3.395,4.432,5.233,6.884
					l0.102,0.134c0.15,0.204,0.263,0.432,0.336,0.688C143.063,407.115,142.765,407.976,142.081,408.486z"/>
			</g>
			<g>
				<g>
					<path style="fill:#AED3F4;" d="M467.94,174.184c0,1.736-1.407,3.142-3.145,3.142H353.414c-1.735,0-3.143-1.405-3.143-3.142
						V94.414c0-1.737,1.407-3.144,3.143-3.144h111.382c1.737,0,3.145,1.406,3.145,3.144V174.184z"/>
					<g>
						<g>
							<path style="fill:#FFFFFF;" d="M457.782,103.384c-1.841,0-3.341-1.498-3.341-3.341c0-1.842,1.5-3.34,3.341-3.34
								c1.843,0,3.342,1.498,3.342,3.34C461.124,101.886,459.625,103.384,457.782,103.384z M457.782,98.125
								c-1.059,0-1.919,0.859-1.919,1.918s0.86,1.919,1.919,1.919c1.058,0,1.92-0.86,1.92-1.919S458.84,98.125,457.782,98.125z"/>
							<path style="fill:#FFFFFF;" d="M462.433,105.016c-0.162,0-0.325-0.056-0.458-0.169l-2.815-2.378
								c-0.3-0.254-0.337-0.7-0.083-1c0.252-0.301,0.7-0.339,1-0.084l2.816,2.377c0.3,0.253,0.337,0.701,0.086,1.001
								C462.836,104.93,462.636,105.016,462.433,105.016z"/>
						</g>
					</g>
					<g>
						<path style="fill:#FFFFFF;" d="M459.619,169.174h-47.977c-0.655,0-1.186-0.53-1.186-1.184v-50.121
							c0-0.654,0.53-1.185,1.186-1.185h47.977c0.653,0,1.184,0.53,1.184,1.185v50.121
							C460.803,168.644,460.272,169.174,459.619,169.174z M412.826,166.805h45.608v-47.752h-45.608V166.805z"/>
						<path style="fill:#FFFFFF;" d="M459.619,169.174c-0.313,0-0.623-0.122-0.857-0.365l-47.977-50.12
							c-0.452-0.474-0.436-1.223,0.038-1.677c0.472-0.452,1.222-0.436,1.674,0.036l47.978,50.121
							c0.453,0.474,0.437,1.223-0.037,1.675C460.209,169.064,459.913,169.174,459.619,169.174z"/>
						<path style="fill:#FFFFFF;" d="M411.642,169.174c-0.296,0-0.589-0.109-0.818-0.33c-0.474-0.452-0.49-1.201-0.038-1.675
							l47.977-50.121c0.452-0.472,1.204-0.488,1.676-0.036c0.474,0.454,0.49,1.203,0.037,1.677l-47.978,50.12
							C412.265,169.052,411.954,169.174,411.642,169.174z"/>
					</g>
					<g>
						<g>
							<path style="fill:#FFFFFF;" d="M403.314,123.751h-34.19c-0.653,0-1.185-0.532-1.185-1.186c0-0.654,0.531-1.185,1.185-1.185
								h34.19c0.652,0,1.185,0.53,1.185,1.185C404.499,123.219,403.967,123.751,403.314,123.751z"/>
							<path style="fill:#FFFFFF;" d="M403.314,137.044h-34.19c-0.653,0-1.185-0.529-1.185-1.184c0-0.655,0.531-1.185,1.185-1.185
								h34.19c0.652,0,1.185,0.529,1.185,1.185C404.499,136.515,403.967,137.044,403.314,137.044z"/>
							<path style="fill:#FFFFFF;" d="M403.314,150.449h-34.19c-0.653,0-1.185-0.531-1.185-1.185c0-0.655,0.531-1.186,1.185-1.186
								h34.19c0.652,0,1.185,0.53,1.185,1.186C404.499,149.918,403.967,150.449,403.314,150.449z"/>
							<path style="fill:#FFFFFF;" d="M403.314,163.744h-34.19c-0.653,0-1.185-0.53-1.185-1.184c0-0.656,0.531-1.186,1.185-1.186
								h34.19c0.652,0,1.185,0.529,1.185,1.186C404.499,163.214,403.967,163.744,403.314,163.744z"/>
						</g>
						<g>
							<path style="fill:#FFFFFF;" d="M361.017,122.565c0,1.452-1.179,2.63-2.63,2.63c-1.452,0-2.629-1.178-2.629-2.63
								c0-1.452,1.177-2.631,2.629-2.631C359.838,119.935,361.017,121.113,361.017,122.565z"/>
							<path style="fill:#FFFFFF;" d="M361.017,135.86c0,1.454-1.179,2.63-2.63,2.63c-1.452,0-2.629-1.176-2.629-2.63
								c0-1.453,1.177-2.63,2.629-2.63C359.838,133.23,361.017,134.407,361.017,135.86z"/>
							<path style="fill:#FFFFFF;" d="M361.017,149.265c0,1.452-1.179,2.63-2.63,2.63c-1.452,0-2.629-1.178-2.629-2.63
								c0-1.452,1.177-2.631,2.629-2.631C359.838,146.634,361.017,147.813,361.017,149.265z"/>
							<path style="fill:#FFFFFF;" d="M361.017,162.561c0,1.453-1.179,2.63-2.63,2.63c-1.452,0-2.629-1.177-2.629-2.63
								c0-1.453,1.177-2.631,2.629-2.631C359.838,159.93,361.017,161.107,361.017,162.561z"/>
						</g>
					</g>
					<path style="fill:#FFFFFF;" d="M450.228,102.635c0,3.104-2.519,5.625-5.623,5.625h-61.751c-3.107,0-5.624-2.521-5.624-5.625
						l0,0c0-3.105,2.517-5.622,5.624-5.622h61.751C447.709,97.013,450.228,99.53,450.228,102.635L450.228,102.635z"/>
				</g>
				<g>
					<path style="fill:#F98ABF;" d="M396.309,56.075c-15.611,0-28.264,12.654-28.264,28.263c0,5.225,1.423,10.113,3.893,14.312
						l-7.564,13.952l13.828-6.563c4.904,4.097,11.216,6.563,18.107,6.563c15.61,0,28.263-12.653,28.263-28.264
						C424.571,68.729,411.919,56.075,396.309,56.075z"/>
					<g>
						<path style="fill:#FFFFFF;" d="M400.165,96.026c0,1.089-0.384,2.017-1.144,2.778c-0.761,0.763-1.687,1.14-2.776,1.14
							c-1.091,0-2.017-0.377-2.776-1.14c-0.763-0.762-1.145-1.69-1.145-2.778c0-1.075,0.382-1.988,1.145-2.737
							c0.76-0.748,1.686-1.12,2.776-1.12c1.089,0,2.016,0.372,2.776,1.12C399.781,94.038,400.165,94.951,400.165,96.026z
							 M399.395,87.048c0,0.917-0.296,1.673-0.887,2.265c-0.592,0.59-1.347,0.882-2.264,0.882c-0.919,0-1.675-0.292-2.265-0.882
							c-0.591-0.592-0.886-1.348-0.886-2.265V70.205c0-0.918,0.295-1.672,0.886-2.264c0.59-0.591,1.346-0.888,2.265-0.888
							c0.917,0,1.672,0.297,2.264,0.888c0.591,0.592,0.887,1.346,0.887,2.264V87.048z"/>
					</g>
				</g>
			</g>
		</g>
		<g>
			<g>
				<g>
					<g>
						<g>
							<polygon style="fill-rule:evenodd;clip-rule:evenodd;fill:#FFC0E1;" points="312.674,435.242 295.434,434.826 
								293.023,456.304 313.872,456.475 							"/>
						</g>
						<g>
							<path style="fill-rule:evenodd;clip-rule:evenodd;fill:#AED3F4;" d="M293.818,445.356c0.823,0.057,3.738,0.011,4.813,1.084
								c1.114,1.108,0.806,2.913,0.868,5.216c5.521-0.211,7.02-5.648,14.369-4.441c0.871,5.602,0.862,12.075,0.761,18.636
								c-14.769,0.183-30.092-0.199-45.077-0.238c0.315-1.496,0.734-2.857,1.332-3.898c1.824-3.161,4.828-4.688,8.26-5.793
								c4.621-1.491,10.037-2.847,12.687-6.675C292.573,448.185,293.089,446.896,293.818,445.356z"/>
							<g>
								<path style="fill-rule:evenodd;clip-rule:evenodd;fill:#5D99CE;" d="M296.602,452.088c-0.384,0.846-2.403-0.183-3.935-0.436
									c-0.901-0.154-3.059-0.095-3.22-0.92c-0.282-1.482,2.956-1.392,4.321-1.032
									C295.087,450.045,297.173,450.839,296.602,452.088z"/>
								<path style="fill-rule:evenodd;clip-rule:evenodd;fill:#5D99CE;" d="M294.386,455.392c-0.772,1.038-2.909-0.21-4.42-0.553
									c-0.8-0.185-1.689-0.302-2.477-0.413c-0.742-0.105-2.119-0.029-2.078-0.669c0.095-1.369,2.346-1.458,3.92-1.271
									C291.324,452.724,295.54,453.859,294.386,455.392z"/>
							</g>
							<path style="fill:#5D99CE;" d="M283.213,454.614c-1.364,0.466-2.753,0.881-4.069,1.309c-3.432,1.104-6.435,2.632-8.26,5.793
								c-0.598,1.04-1.017,2.401-1.332,3.898c6.728,0.018,13.53,0.105,20.316,0.174
								C289.547,459.725,286.302,456.407,283.213,454.614z"/>
							<path style="fill:#5D99CE;" d="M305.538,465.897c3.046,0,6.081-0.006,9.091-0.045c0.062-4.161,0.089-8.283-0.122-12.17
								C311.542,454.996,306.524,458.316,305.538,465.897z"/>
						</g>
					</g>
					<g>
						<g>
							<polygon style="fill-rule:evenodd;clip-rule:evenodd;fill:#FFC0E1;" points="364.461,435.242 347.219,434.826 
								344.81,456.304 365.659,456.475 							"/>
						</g>
						<g>
							<path style="fill-rule:evenodd;clip-rule:evenodd;fill:#AED3F4;" d="M345.603,445.356c0.827,0.057,3.74,0.011,4.813,1.084
								c1.114,1.108,0.808,2.913,0.87,5.216c5.521-0.211,7.021-5.648,14.369-4.441c0.871,5.602,0.861,12.075,0.761,18.636
								c-14.768,0.183-30.092-0.199-45.078-0.238c0.314-1.496,0.737-2.857,1.333-3.898c1.824-3.161,4.828-4.688,8.26-5.793
								c4.624-1.491,10.035-2.847,12.688-6.675C344.36,448.185,344.876,446.896,345.603,445.356z"/>
							<g>
								<path style="fill-rule:evenodd;clip-rule:evenodd;fill:#5D99CE;" d="M348.39,452.088c-0.383,0.846-2.402-0.183-3.936-0.436
									c-0.901-0.154-3.06-0.095-3.216-0.92c-0.285-1.482,2.954-1.392,4.319-1.032C346.874,450.045,348.958,450.839,348.39,452.088
									z"/>
								<path style="fill-rule:evenodd;clip-rule:evenodd;fill:#5D99CE;" d="M346.172,455.392c-0.771,1.038-2.908-0.21-4.421-0.553
									c-0.799-0.185-1.689-0.302-2.475-0.413c-0.741-0.105-2.119-0.029-2.078-0.669c0.095-1.369,2.346-1.458,3.92-1.271
									C343.109,452.724,347.33,453.859,346.172,455.392z"/>
							</g>
							<path style="fill:#5D99CE;" d="M334.998,454.614c-1.364,0.466-2.751,0.881-4.067,1.309c-3.432,1.104-6.436,2.632-8.26,5.793
								c-0.596,1.04-1.019,2.401-1.333,3.898c6.729,0.018,13.532,0.105,20.317,0.174
								C341.332,459.725,338.088,456.407,334.998,454.614z"/>
							<path style="fill:#5D99CE;" d="M357.325,465.897c3.046,0,6.082-0.006,9.091-0.045c0.064-4.161,0.089-8.283-0.122-12.17
								C363.33,454.996,358.309,458.316,357.325,465.897z"/>
						</g>
					</g>
					<g>
						<g>
							<path style="fill-rule:evenodd;clip-rule:evenodd;fill:#F98ABF;" d="M366.358,439.608c-7.048,0.736-14.24,1.327-21.49,1.858
								c-2.737-21.244-5.468-46.502-7.491-68.234c-2.022-21.698-4.999-43.252-6.971-64.815c-1.087,4.88-2.46,9.842-3.368,15.215
								c-0.928,5.497-0.637,11.528-0.232,17.657c0.388,5.908,0.758,11.935,0.696,17.889c-0.062,5.887-0.649,11.689-1.162,17.308
								c-1.052,11.559-2.228,22.406-4.298,32.872c-2.075,10.492-4.134,20.607-6.505,30.549c-7.301,0.559-14.672,1.048-22.303,1.278
								c-0.858-17.22-1.974-34.653-2.324-52.271c-0.172-8.797-0.23-17.608-0.694-26.368c-0.227-4.263-0.74-8.525-1.048-12.777
								c-0.307-4.31-0.525-8.622-0.811-12.894c-1.173-17.494-1.557-35.676-0.696-53.201c0.855-17.416,2.751-34.142,5.458-49.599
								c2.364,0.281,4.753-0.013,7.201-0.116c7.349-0.311,15.107,0.232,22.887,0.232c11.231,0.001,22.582-0.124,33.336-0.58
								c1.226,1.242,2.137,2.766,3.136,4.181c2.977,4.212,5.695,8.842,7.783,14.056c2.772,6.928,4.754,14.725,5.574,23.58
								c0.853,9.209,0.089,18.268-1.277,26.949c-0.672,4.263-1.393,8.473-1.859,12.776c-0.982,9.079,0.942,18.243,1.976,26.716
								c1.564,12.829,1.232,28.162,0.581,42.166C371.602,402.426,368.561,423.136,366.358,439.608z"/>
						</g>
						<path style="fill:#D65498;" d="M348.964,427.795c1.14-10.884,2.146-22.053,2.788-33.106
							c0.432-7.471,0.834-15.449,0.464-23.232c-0.335-7.017-1.504-15.125-2.672-21.255c-1.265-6.642-3.173-12.624-3.717-20.213
							c-0.53-7.401,0.465-15.112,0.465-23.231c0-13.67-2.104-25.76-4.878-36.938c-0.465-1.871-0.94-3.779-1.976-4.066
							c-1.653-0.459-2.113,4.15-2.439,6.156c-1.214,7.417-1.846,14.292-3.137,21.258c-1.127,6.075-2.706,11.373-3.853,16.974
							c0.137-0.577,0.269-1.151,0.396-1.725c1.972,21.564,4.948,43.117,6.971,64.815c2.023,21.732,4.754,46.99,7.491,68.234
							c1.252-0.092,2.369-0.165,3.616-0.261C348.433,437.982,348.626,431.01,348.964,427.795z"/>
					</g>
				</g>
				<g>
					<g>
						<g>
							<g>
								<g>
									<path style="fill-rule:evenodd;clip-rule:evenodd;fill:#FFC0E1;" d="M431.811,161.763c1.877,0.343,1.229,4.14,0.628,6.645
										c4.004-2.992,10.361-5.947,15.056-6.932c1.446-0.306,3.882-1.027,4.56,0.102c0.887,1.477-1.787,2.837-3.169,3.517
										c-1.896,0.938-3.17,1.22-4.69,2.235c0.288,0.189,1.749,1.056,1.696,2.135c-0.041,0.891-0.484,1.24-1.314,1.79
										c0.919,0.888,1.167,1.288,0.968,2.465c-0.233,1.399-2.315,2.09-2.315,2.09c0.19,0.789,0.257,2.086-0.09,3.122
										c-1.089,3.287-8.648,4.814-13.175,9.203c4.106-3.979-2.881-10.075-6.919-13.932c1.933-1.979,3.142-3.486,4.396-5.732
										c1.178-2.105,1.577-4.502,2.631-6.071C430.329,162.02,431.128,161.641,431.811,161.763"/>
									<path style="fill-rule:evenodd;clip-rule:evenodd;fill:#F98ABF;" d="M432.29,161.957c1.609,1.039,1.559,5.706-1.229,8.112
										c0.679-1.142,1.209-3.927,0.823-5.498c-0.249-0.992-1.372-2.23-2.368-1.151
										C429.983,161.694,431.375,161.369,432.29,161.957"/>
									<path style="fill-rule:evenodd;clip-rule:evenodd;fill:#F98ABF;" d="M442.093,167.379c3.217-0.98,5.79,2.307,2.489,3.876
										c0.571,0.274,1.042,1.157,1.056,1.646c0.059,1.587-1.119,2.527-2.406,2.909c0.599,1.866,0.137,4.032-1.779,5.893
										c-1.361,1.318-5.782,2.155-7.526,3.449c0,0,1.377-1.35,2.224-1.977c2.734-2.019,6.42-3.77,4.616-6.398
										c1.126-0.795,1.847-1.554,1.951-2.549c0.071-0.646-0.161-1.903-0.882-2.586
										C442.653,170.49,443.737,168.369,442.093,167.379"/>
								</g>
								<g>
									<path style="fill:#FFC0E1;" d="M423.048,174.203c-7.876,8.412-15.242,15.828-21.714,22.366
										c-3.208,6.163-7.194,11.874-11.418,17.489c-3.214,4.271-6.592,8.395-9.905,12.582c1.35-1.668-1.737,2.47-2.761,3.979
										c0.768,1.156,1.63,2.251,2.634,3.214c3.918,3.755,8.89,2.373,13.704-2.222c14.028-13.395,28.628-31.89,39.122-47.121
										C431.074,181.082,425.948,174.592,423.048,174.203z"/>
									<path style="fill:#FFB5AB;" d="M382.12,232.1c-1.214-1.165-2.236-2.517-3.113-3.951c-0.643,0.893-1.355,1.88-1.757,2.471
										c0.768,1.156,1.63,2.251,2.634,3.214c3.722,3.567,8.396,2.491,12.982-1.566C389.025,234.814,385.237,235.087,382.12,232.1z
										"/>
								</g>
							</g>
							<path style="fill-rule:evenodd;clip-rule:evenodd;fill:#6152CC;" d="M387.093,202.48c4.979-3.83,9.816-7.838,14.751-11.732
								c4.944-3.902,10.078-7.542,15.216-11.266c4.51,3.684,8.942,8.156,12.778,12.311c-6.708,8.716-13.093,17.65-20.328,26.716
								c-2.534,3.176-5.335,6.504-8.247,9.525c-2.897,3.006-5.471,5.707-9.408,8.13c-3.318,2.043-8.251,3.835-12.545,1.743
								c-2.778-1.354-5.226-4.222-7.086-6.505c-4.947-6.075-9.166-13.3-13.241-20.676c-0.337-0.609-0.748-1.425-1.161-2.206
								c-0.433-0.816-1.078-1.693-1.162-2.209c-0.153-0.92,0.178-2.284,0.232-3.483c0.362-8.026,1.043-16.309,1.045-24.394
								c0-9.787-0.108-18.606-3.485-25.555c-0.005-0.311,1.156,0.446,1.511,0.697c3.38,2.399,6.045,5.993,8.479,9.524
								C372.803,175.23,379.831,189.372,387.093,202.48z"/>
						</g>
						<g>
							<path style="fill-rule:evenodd;clip-rule:evenodd;fill:#6F67D6;" d="M357.936,235.701c-21.416,1.4-44.373,3.121-66.907,1.627
								c2.256-13.967,4.239-28.323,4.995-44.141c0.246-5.176,0.436-10.361,1.046-15.332c1.246-10.163,1.592-17.777,7.353-23.506
								c6.137-6.1,12.116-6.248,19.014-7.624c2.35-0.471,4.986-0.804,7.666-0.93c10.717-0.507,19.216,2.37,24.627,7.782
								c5.461,5.461,8.309,13.803,7.201,24.741c-0.922,9.116-3.58,17.976-4.994,27.413
								C356.535,215.074,356.349,226.102,357.936,235.701z"/>
						</g>
						<g>
							<g>
								<g>
									<path style="fill-rule:evenodd;clip-rule:evenodd;fill:#FFC0E1;" d="M211.374,163.982c-1.877,0.342-1.229,4.14-0.626,6.644
										c-4.007-2.991-10.364-5.945-15.059-6.931c-1.446-0.306-3.88-1.027-4.559,0.102c-0.887,1.477,1.787,2.838,3.172,3.518
										c1.893,0.937,3.167,1.219,4.688,2.237c-0.288,0.188-1.75,1.054-1.697,2.133c0.041,0.892,0.484,1.24,1.314,1.79
										c-0.919,0.89-1.168,1.287-0.968,2.464c0.232,1.398,2.314,2.093,2.314,2.093c-0.191,0.787-0.256,2.083,0.089,3.119
										c1.089,3.287,8.648,4.816,13.175,9.203c-4.105-3.98,2.882-10.075,6.919-13.93c-1.933-1.98-3.141-3.486-4.395-5.734
										c-1.179-2.105-1.575-4.502-2.633-6.069C212.855,164.238,212.057,163.861,211.374,163.982"/>
									<path style="fill-rule:evenodd;clip-rule:evenodd;fill:#F98ABF;" d="M210.895,164.177
										c-1.608,1.038-1.559,5.707,1.229,8.112c-0.68-1.143-1.209-3.928-0.824-5.498c0.249-0.992,1.372-2.23,2.371-1.151
										C213.202,163.913,211.809,163.589,210.895,164.177"/>
									<path style="fill-rule:evenodd;clip-rule:evenodd;fill:#F98ABF;" d="M201.093,169.599
										c-3.215-0.981-5.789,2.307-2.488,3.876c-0.572,0.273-1.043,1.156-1.058,1.645c-0.058,1.589,1.12,2.527,2.407,2.912
										c-0.6,1.865-0.138,4.029,1.779,5.892c1.361,1.318,5.783,2.154,7.525,3.45c0,0-1.377-1.352-2.223-1.978
										c-2.732-2.018-6.42-3.768-4.615-6.399c-1.127-0.795-1.848-1.551-1.953-2.549c-0.069-0.646,0.161-1.902,0.882-2.585
										C200.533,172.709,199.448,170.59,201.093,169.599"/>
								</g>
								<g>
									<path style="fill:#FFC0E1;" d="M223.108,200.342c2.401-2.402,5.061-3.505,8.1-4.081c-0.038,0.005-0.076,0.011-0.113,0.014
										c0.115-0.017,0.229-0.04,0.342-0.057c0.141-0.026,0.28-0.05,0.422-0.073c1.99-0.355,3.921-0.896,5.818-1.576
										c-5.401-5.464-11.315-11.5-17.54-18.145c-2.899,0.387-8.026,6.879-9.661,10.287c3.355,4.867,7.13,10.068,11.17,15.33
										C222.088,201.442,222.576,200.873,223.108,200.342z"/>
								</g>
							</g>
							<path style="fill-rule:evenodd;clip-rule:evenodd;fill:#8976E5;" d="M213.042,196.365c5.041-4.729,9.745-9.898,14.6-14.871
								c10.33,7.22,19.98,14.955,29.973,22.43c10.608-14.416,21.499-30.764,34.653-42.942c2.235-2.069,4.373-4.033,6.79-5.864
								c2.395-1.813,4.873-3.707,7.567-4.701c1.471-0.544,3.661-0.943,5.368-0.666c2.209,0.359,4.033,2.023,4.765,3.708
								c1.7,3.902,0.028,10.411-1.603,15.02c-1.747,4.939-3.865,8.956-5.983,12.777c-9.026,16.267-17.721,31.083-29.264,43.803
								c-2.668,2.94-5.789,5.886-9.258,8.455c-3.195,2.368-7.789,4.634-12.217,4.411c-4.674-0.234-7.725-2.03-10.682-4.171
								c-6.125-4.436-11.53-9.887-16.48-14.82C223.979,211.666,218.509,204.55,213.042,196.365z"/>
						</g>
					</g>
					<g>
						<path style="fill-rule:evenodd;clip-rule:evenodd;fill:#FFC0E1;" d="M323.393,140.51c-7.616-0.675-12.261-4.163-11.702-13.352
							c0.201-3.327,1.118-8.007,1.645-12.434c0.963-8.095,2.407-13.851,6.584-17.924c2.77-2.707,6.695-4.186,10.059-4.939
							c3.432-0.765,8.704,0.228,11.34,1.281c6.977,2.788,12.918,11.941,10.786,21.945c-0.831,3.914-2.5,7.316-4.205,10.243
							c-2.77,4.76-6.057,6.729-6.581,12.982c-0.221,2.609-0.366,8.414-0.366,8.414c-0.02,6.913-14.78,9.093-17.46,1.486
							C323.216,147.432,323.829,144.165,323.393,140.51"/>
						<path style="fill:#6152CC;" d="M362.53,126.06c-1.783-3.278-4.556-5.998-5.303-9.509c-0.68-3.176,0.711-5.533,0.913-7.863
							c1.214-13.908-10.251-19.782-23.228-19.02c-3.313,0.193-7.549,0.673-10.423,1.645c-4.247,1.439-8.046,4.327-10.973,7.314
							c-3.042,3.11-5.52,7.213-6.584,11.889c-8.072,4.199-13.122,12.36-12.464,24.746h18.865c-0.974-1.965-1.669-4.246-1.462-7.189
							c0.173-2.501,0.707-5.382,1.095-8.227c0.381-2.785,0.689-5.569,1.098-8.233c0.902-5.841,2.438-11.069,5.303-13.53
							c2.628,4.443,7.004,7.138,13.535,7.681c-0.677,3.953-1.247,8.02-1.463,12.435l2.56,0.547c0.501-3.778,2.004-8.456,5.852-8.411
							c2.195,0.027,4.315,1.834,4.39,4.39c0.105,3.618-3.113,5.729-6.034,7.316c-3.134,1.696-6.354,3.096-8.598,4.753
							c-6.35,4.69-8.263,9.957-8.779,18.104c14.644-0.535,29.224-1.134,43.714-1.828C366.563,136.227,365.061,130.715,362.53,126.06
							"/>
						<path style="fill-rule:evenodd;clip-rule:evenodd;fill:#FFFFFF;" d="M324.818,112.221c-3.572-5.033-7.973-2.093-7.973-2.093
							s0.829,1.792,3.596,2.654C322.491,113.424,324.818,112.221,324.818,112.221"/>
						<path style="fill-rule:evenodd;clip-rule:evenodd;fill:#6152CC;" d="M316.846,110.128c0,0,2.135-1.44,4.672-0.581
							c0.051,0.216,0.177,0.646,0.155,0.877c-0.096,1.033-0.954,1.842-2.054,2.049C317.512,111.555,316.846,110.128,316.846,110.128
							"/>
						<path style="fill:#6152CC;" d="M326.089,110.621c-2.087-3.626-6.502-4.166-8.191-3.856l-0.268-1.459
							c2.672-0.493,7.463,0.603,9.747,4.574L326.089,110.621z"/>
						<path style="fill-rule:evenodd;clip-rule:evenodd;fill:#F98ABF;" d="M314.958,109.119c1.281,0.05-0.608,8.78-2.012,12.07
							c-1.661,0.169-3.719-0.611-4.025-2.012C308.313,116.41,313.734,109.074,314.958,109.119"/>
						<path style="fill-rule:evenodd;clip-rule:evenodd;fill:#D65498;" d="M317.163,125.775c0,3.189-4.74,5.504-5.386,4.334
							c-0.356-0.638-0.29-1.887,0.167-2.406C313.919,127.788,315.45,127.465,317.163,125.775"/>
						<path style="fill-rule:evenodd;clip-rule:evenodd;fill:#D65498;" d="M317.163,125.775c-1.26,1.404-4.336,1.307-5.17,1.172
							C311.421,122.424,315.03,126.154,317.163,125.775"/>
						<path style="fill:#F98ABF;" d="M328.739,120.826c0,2.425-1.966,4.394-4.393,4.394c-2.426,0-4.392-1.969-4.392-4.394
							c0-2.426,1.966-4.392,4.392-4.392C326.773,116.435,328.739,118.4,328.739,120.826"/>
					</g>
				</g>
			</g>
			<g>
				<g>
					<path style="fill:#F9CDE8;" d="M457.377,293.92c0,1.645-1.333,2.977-2.979,2.977h-62.596c-1.642,0-2.975-1.332-2.975-2.977
						v-44.466c0-1.645,1.333-2.978,2.975-2.978h62.596c1.646,0,2.979,1.333,2.979,2.978V293.92z"/>
					<path style="fill:#FFFFFF;" d="M449.235,258.715h-53.044c-0.725,0-1.313-0.588-1.313-1.312c0-0.727,0.589-1.314,1.313-1.314
						h53.044c0.725,0,1.311,0.588,1.311,1.314C450.547,258.127,449.96,258.715,449.235,258.715z"/>
					<path style="fill:#FFFFFF;" d="M449.235,268.411h-53.044c-0.725,0-1.313-0.588-1.313-1.313c0-0.726,0.589-1.313,1.313-1.313
						h53.044c0.725,0,1.311,0.588,1.311,1.313C450.547,267.823,449.96,268.411,449.235,268.411z"/>
					<path style="fill:#FFFFFF;" d="M449.235,277.849h-53.044c-0.725,0-1.313-0.588-1.313-1.314c0-0.726,0.589-1.313,1.313-1.313
						h53.044c0.725,0,1.311,0.587,1.311,1.313C450.547,277.261,449.96,277.849,449.235,277.849z"/>
					<path style="fill:#FFFFFF;" d="M449.235,288.237h-53.044c-0.725,0-1.313-0.588-1.313-1.313s0.589-1.314,1.313-1.314h53.044
						c0.725,0,1.311,0.59,1.311,1.314S449.96,288.237,449.235,288.237z"/>
				</g>
				<g>
					<path style="fill:#8976E5;" d="M413.023,286.058c-2.431-1.992-5.502-3.098-8.653-3.11l-26.976-0.133
						c-3.68-0.017-7.145,1.399-9.76,3.987c-2.612,2.59-4.064,6.044-4.075,9.726l-0.022,4.406c-0.024,4.171,1.822,8.079,5.051,10.726
						c2.435,1.992,5.507,3.098,8.65,3.114l9.507,0.044c1.272,0.009,2.447,0.465,3.583,1.395c0.853,0.702,1.574,1.573,2.213,2.351
						c0.297,0.363,0.573,0.703,0.852,1.008c0.156,0.174,0.325,0.359,0.506,0.563c0.777,0.873,1.749,1.963,2.682,2.727
						c0.654,0.531,1.065,0.729,1.307,0.801c1.146,0.348,2.328-0.126,2.76-0.76c0.285-0.418,0.273-0.895,0.216-1.848
						c-0.02-0.378-0.044-0.811-0.038-1.27c0-0.147-0.002-0.295-0.009-0.451c-0.025-1.136-0.087-3.504,2.405-4.262
						c0.688-0.217,1.536-0.325,2.511-0.455c1.359-0.182,2.9-0.387,4.145-0.899c4.942-2.052,8.156-6.967,8.18-12.52l0.022-4.414
						C418.094,292.613,416.254,288.703,413.023,286.058"/>
					<g>
						<path style="fill:#FFFFFF;" d="M405.021,297.712c-0.44-0.357-0.966-0.543-1.531-0.547c-0.648-0.006-1.259,0.246-1.723,0.701
							c-0.459,0.455-0.719,1.065-0.719,1.716c-0.004,0.739,0.32,1.431,0.893,1.9c0.434,0.355,0.962,0.543,1.522,0.546
							c1.344,0.012,2.441-1.078,2.445-2.418C405.92,298.875,405.596,298.18,405.021,297.712"/>
						<path style="fill:#FFFFFF;" d="M392.799,297.64c-0.432-0.356-0.96-0.542-1.525-0.548c-1.342-0.01-2.438,1.075-2.445,2.421
							c-0.006,0.738,0.318,1.43,0.887,1.899c0.438,0.352,0.966,0.544,1.53,0.546c0.649,0.005,1.262-0.244,1.725-0.703
							c0.463-0.456,0.719-1.065,0.723-1.717C393.697,298.8,393.371,298.108,392.799,297.64"/>
						<path style="fill:#FFFFFF;" d="M380.58,297.569c-0.438-0.357-0.966-0.547-1.527-0.549c-0.649-0.009-1.261,0.242-1.728,0.703
							c-0.458,0.455-0.717,1.063-0.717,1.714c-0.011,0.738,0.317,1.431,0.89,1.901c0.436,0.355,0.963,0.545,1.522,0.548
							c0.655,0,1.266-0.248,1.73-0.707c0.459-0.451,0.719-1.061,0.719-1.713C381.477,298.729,381.154,298.037,380.58,297.569"/>
					</g>
				</g>
			</g>
		</g>
	</g>
</g>
</svg>
