<?xml version="1.0" encoding="utf-8"?>
<!-- Generator: Adobe Illustrator 27.5.0, SVG Export Plug-In . SVG Version: 6.00 Build 0)  -->
<svg version="1.1" xmlns="http://www.w3.org/2000/svg" xmlns:xlink="http://www.w3.org/1999/xlink" x="0px" y="0px"
	 viewBox="0 0 500 500" style="enable-background:new 0 0 500 500;" xml:space="preserve">
<g id="BACKGROUND">
	<g>
		<defs>
			<path id="SVGID_1_" d="M44.803,181.799c1.129-26.571,8.688-52.266,25.489-75.916c63.185-88.939,221.557-86.686,309.191-36.611
				c26.314,15.036,48.95,38.09,58.017,66.604c7.324,23.031,5.433,47.695,5.302,71.785c-0.148,27.162,5.664,47.307,16.813,71.682
				c8.923,19.509,10.799,42.699,7.187,63.551c-7.836,45.245-41.547,81.861-81.999,102.627
				c-64.294,33.004-166.306,33.408-244.741,14.396c-39.641-9.609-77.499-29.058-96.749-56.418
				c-15.317-21.77-17.689-46.668-12.799-69.596c3.932-18.435,13.231-34.909,21.004-52.293c6.231-13.935,3.595-26.048-0.134-41.197
				C46.535,220.712,43.986,201.026,44.803,181.799z"/>
		</defs>
		<clipPath id="SVGID_00000129886890975884121930000008026924506893762959_">
			<use xlink:href="#SVGID_1_"  style="overflow:visible;"/>
		</clipPath>
		<g style="clip-path:url(#SVGID_00000129886890975884121930000008026924506893762959_);">
			<g>
				<g>
					<rect x="-0.107" y="-0.029" style="fill:#F2D1C8;" width="500" height="500"/>
					<path style="opacity:0.46;fill:#E8BBB1;" d="M238.316,0c0,0,78.845,120.364-59.071,165.958S-0.107,366.091-0.107,366.091
						V-0.029L238.316,0z"/>
					<path style="opacity:0.46;fill:#E8BBB1;" d="M349.619,499.971c0,0-86.903-120.113,37.784-165.592
						c83.943-32.661,112.49-182.037,112.49-182.037v347.629H349.619z"/>
					<path style="opacity:0.46;fill:#E8BBB1;" d="M202.014,499.971c0,0-12.062-198.66-128.979-133.062
						c-35.67,21.01-31.349,103.061-73.142,74.917c0,58.146,0,58.146,0,58.146H202.014z"/>
				</g>
				
					<ellipse transform="matrix(0.8632 -0.5048 0.5048 0.8632 -2.1023 187.3567)" style="opacity:0.3;fill:#FFFFFF;" cx="344.69" cy="97.558" rx="22.682" ry="22.682"/>
			</g>
			
				<ellipse transform="matrix(0.8745 -0.485 0.485 0.8745 -36.6149 212.7952)" style="opacity:0.3;fill:#FFFFFF;" cx="392.911" cy="177.154" rx="19.602" ry="19.602"/>
			<circle style="opacity:0.3;fill:#FFFFFF;" cx="85.167" cy="151.439" r="9.413"/>
			<g>
				<rect x="66.655" y="379.696" style="fill:#EFEEE4;" width="363.568" height="128.436"/>
				<rect x="66.655" y="379.696" style="fill:#D3D1C5;" width="363.568" height="10.321"/>
			</g>
		</g>
	</g>
</g>
<g id="OBJECTS">
	<g>
		<polygon style="fill:#F9F3E9;" points="352.622,304.783 450.616,304.783 445.516,309.883 451.497,313.347 445.772,316.963 
			450.176,320.268 444.891,324.231 451.497,326.901 439.607,331.571 445.772,334.8 438.286,339.024 445.332,344.047 
			433.442,348.451 441.368,350.28 434.323,354.176 442.249,357.957 435.203,361.537 336.561,361.537 		"/>
		<path style="opacity:0.21;fill:#3A1414;" d="M363.047,304.783c0,0,19.816,46.72,2.642,56.754c-16.514,0-16.514,0-16.514,0
			l-1.554-56.754H363.047z"/>
		<g>
			<path style="fill:#A5A295;" d="M442.249,309.699c-5.619,0.206-11.239,0.303-16.858,0.383c-5.619,0.082-11.239,0.075-16.858,0.117
				c-5.619-0.039-11.239-0.035-16.858-0.115l-8.429-0.139c-2.81-0.083-5.619-0.132-8.429-0.245c2.81-0.113,5.619-0.162,8.429-0.245
				l8.429-0.139c5.619-0.08,11.239-0.076,16.858-0.115c5.619,0.042,11.239,0.034,16.858,0.117
				C431.01,309.396,436.63,309.493,442.249,309.699z"/>
		</g>
		<g>
			<path style="fill:#A5A295;" d="M442.249,315.644c-5.619,0.206-11.239,0.303-16.858,0.383c-5.619,0.082-11.239,0.075-16.858,0.117
				c-5.619-0.039-11.239-0.035-16.858-0.115l-8.429-0.139c-2.81-0.083-5.619-0.132-8.429-0.245c2.81-0.113,5.619-0.162,8.429-0.245
				l8.429-0.139c5.619-0.08,11.239-0.076,16.858-0.115c5.619,0.042,11.239,0.034,16.858,0.116
				C431.01,315.341,436.63,315.438,442.249,315.644z"/>
		</g>
		<g>
			<path style="fill:#A5A295;" d="M438.506,331.497c-3.78,0.206-7.56,0.303-11.339,0.383c-3.78,0.082-7.56,0.075-11.339,0.117
				c-3.78-0.039-7.56-0.035-11.339-0.115l-5.67-0.14c-1.89-0.083-3.78-0.132-5.67-0.245c1.89-0.113,3.78-0.162,5.67-0.245l5.67-0.14
				c3.78-0.08,7.56-0.076,11.339-0.115c3.78,0.042,7.56,0.034,11.339,0.116C430.946,331.194,434.726,331.291,438.506,331.497z"/>
		</g>
		<g>
			<path style="fill:#A5A295;" d="M411.788,318.854c-2.746,0.206-5.492,0.303-8.238,0.383c-2.746,0.091-5.492,0.104-8.238,0.117
				c-2.746-0.011-5.492-0.024-8.238-0.115l-4.119-0.139c-1.373-0.083-2.746-0.132-4.119-0.245c1.373-0.113,2.746-0.162,4.119-0.245
				l4.119-0.139c2.746-0.091,5.492-0.104,8.238-0.115c2.746,0.013,5.492,0.025,8.238,0.117
				C406.296,318.552,409.042,318.648,411.788,318.854z"/>
		</g>
		<g>
			<path style="fill:#A5A295;" d="M437.77,339.203c-2.746,0.206-5.492,0.303-8.238,0.383c-2.746,0.091-5.492,0.104-8.238,0.117
				c-2.746-0.011-5.492-0.024-8.238-0.115l-4.119-0.139c-1.373-0.083-2.746-0.132-4.119-0.245c1.373-0.113,2.746-0.162,4.119-0.245
				l4.119-0.139c2.746-0.091,5.492-0.104,8.238-0.115c2.746,0.013,5.492,0.025,8.238,0.117
				C432.278,338.901,435.024,338.997,437.77,339.203z"/>
		</g>
		<g>
			<path style="fill:#A5A295;" d="M433.366,348.451c-2.746,0.206-5.492,0.303-8.238,0.383c-2.746,0.091-5.492,0.104-8.238,0.117
				c-2.746-0.011-5.492-0.025-8.238-0.115l-4.119-0.139c-1.373-0.083-2.746-0.132-4.119-0.245c1.373-0.113,2.746-0.162,4.119-0.245
				l4.119-0.139c2.746-0.091,5.492-0.104,8.238-0.115c2.746,0.013,5.492,0.025,8.238,0.117
				C427.874,348.148,430.62,348.245,433.366,348.451z"/>
		</g>
		<g>
			<path style="fill:#A5A295;" d="M416.89,356.598c-2.746,0.206-5.492,0.303-8.238,0.383c-2.746,0.091-5.492,0.104-8.238,0.117
				c-2.746-0.011-5.492-0.024-8.238-0.115l-4.119-0.139c-1.373-0.083-2.746-0.132-4.119-0.245c1.373-0.113,2.746-0.162,4.119-0.245
				l4.119-0.14c2.746-0.091,5.492-0.104,8.238-0.115c2.746,0.013,5.492,0.025,8.238,0.117
				C411.398,356.295,414.144,356.392,416.89,356.598z"/>
		</g>
		<g>
			<path style="fill:#A5A295;" d="M424.575,345.385c-3.701,0.206-7.403,0.303-11.104,0.383c-3.702,0.091-7.403,0.104-11.105,0.117
				c-3.701-0.011-7.403-0.025-11.104-0.115l-5.552-0.139c-1.851-0.083-3.701-0.132-5.552-0.245c1.851-0.113,3.702-0.162,5.552-0.245
				l5.552-0.139c3.701-0.091,7.403-0.104,11.104-0.115c3.702,0.013,7.403,0.025,11.105,0.117
				C417.172,345.082,420.874,345.179,424.575,345.385z"/>
		</g>
	</g>
	<g>
		<defs>
			<path id="SVGID_00000139285729742798775140000000086959007254871205_" d="M44.803,181.799
				c1.129-26.571,8.688-52.266,25.489-75.916c63.185-88.939,221.557-86.686,309.191-36.611c26.314,15.036,48.95,38.09,58.017,66.604
				c7.324,23.031,5.433,47.695,5.302,71.785c-0.148,27.162,5.664,47.307,16.813,71.682c8.923,19.509,10.799,42.699,7.187,63.551
				c-7.836,45.245-41.547,81.861-81.999,102.627c-64.294,33.004-166.306,33.408-244.741,14.396
				c-39.641-9.609-77.499-29.058-96.749-56.418c-15.317-21.77-17.689-46.668-12.799-69.596
				c3.932-18.435,13.231-34.909,21.004-52.293c6.231-13.935,3.595-26.048-0.134-41.197
				C46.535,220.712,43.986,201.026,44.803,181.799z"/>
		</defs>
		<clipPath id="SVGID_00000156560982019556350960000001872982549211021731_">
			<use xlink:href="#SVGID_00000139285729742798775140000000086959007254871205_"  style="overflow:visible;"/>
		</clipPath>
		<path style="clip-path:url(#SVGID_00000156560982019556350960000001872982549211021731_);fill:#723328;" d="M432.699-0.029
			c-102.385,0-184.252,0-184.252,0s-81.867,0-184.252,0c21.138,19.666,54.165,117.068,40.954,152.068
			c-13.211,35,9.908,70.027,42.937,87.862c33.029,17.835,34.359,34.349,34.359,34.349l66.001,5.284l66.002-5.284
			c0,0,1.331-16.514,34.359-34.349c33.029-17.835,56.148-52.861,42.937-87.862C378.534,117.039,411.562,19.636,432.699-0.029z"/>
	</g>
	<g>
		<g>
			<polygon style="fill:#A04040;" points="363.381,45.978 357.838,45.978 357.838,53.756 325.346,53.756 319.846,53.756 
				319.846,46.625 314.078,46.625 314.078,89.067 314.034,105.805 319.577,105.805 322.077,98.592 357.569,99.39 357.795,105.159 
				363.338,105.159 363.338,94.108 328.034,94.108 319.846,82.423 324.368,59.112 341.814,56.531 363.778,54.769 			"/>
			<g>
				<path style="fill:#A04040;" d="M335.601,44.36c-17.437,0-31.572,14.135-31.572,31.572c0,17.437,14.135,31.572,31.572,31.572
					c17.437,0,31.572-14.135,31.572-31.572C367.173,58.495,353.038,44.36,335.601,44.36z M335.601,93.65
					c-9.786,0-17.719-7.933-17.719-17.719s7.933-17.719,17.719-17.719c9.786,0,17.719,7.933,17.719,17.719
					S345.387,93.65,335.601,93.65z"/>
				<rect x="330.393" y="39.202" style="fill:#A04040;" width="10.416" height="8.158"/>
				
					<rect x="354.557" y="47.337" transform="matrix(0.7071 -0.7071 0.7071 0.7071 67.8884 268.9863)" style="fill:#A04040;" width="8.158" height="10.416"/>
				<rect x="363.778" y="70.349" style="fill:#4C6EA1;" width="8.158" height="10.416"/>
				
					<rect x="353.385" y="94.513" transform="matrix(0.7071 -0.7071 0.7071 0.7071 35.3144 282.4405)" style="fill:#A04040;" width="10.416" height="8.158"/>
				<rect x="331.063" y="104.423" style="fill:#A04040;" width="10.416" height="8.158"/>
				
					<rect x="309.157" y="94.03" transform="matrix(0.7071 -0.7071 0.7071 0.7071 21.5719 250.5558)" style="fill:#A04040;" width="8.158" height="10.416"/>
				<rect x="299.936" y="71.019" style="fill:#A04040;" width="8.158" height="10.416"/>
				
					<rect x="308.071" y="49.112" transform="matrix(0.7071 -0.7071 0.7071 0.7071 54.144 237.0996)" style="fill:#A04040;" width="10.416" height="8.158"/>
			</g>
			<g>
				<path style="fill:#D66562;" d="M341.144,44.36c-17.437,0-31.572,14.135-31.572,31.572c0,17.437,14.135,31.572,31.572,31.572
					c17.437,0,31.572-14.135,31.572-31.572C372.716,58.495,358.581,44.36,341.144,44.36z M341.144,93.65
					c-9.786,0-17.719-7.933-17.719-17.719s7.933-17.719,17.719-17.719c9.786,0,17.719,7.933,17.719,17.719
					S350.93,93.65,341.144,93.65z"/>
				<rect x="335.936" y="39.202" style="fill:#D66562;" width="10.416" height="8.158"/>
				
					<rect x="360.1" y="47.337" transform="matrix(0.7071 -0.7071 0.7071 0.7071 69.5105 272.9039)" style="fill:#D66562;" width="8.158" height="10.416"/>
				<rect x="369.321" y="70.349" style="fill:#D66562;" width="8.158" height="10.416"/>
				
					<rect x="358.928" y="94.513" transform="matrix(0.7071 -0.7071 0.7071 0.7071 36.9367 286.3578)" style="fill:#D66562;" width="10.416" height="8.158"/>
				<rect x="336.606" y="104.423" style="fill:#D66562;" width="10.416" height="8.158"/>
				
					<rect x="314.7" y="94.03" transform="matrix(0.7071 -0.7071 0.7071 0.7071 23.1954 254.4754)" style="fill:#D66562;" width="8.158" height="10.416"/>
				<rect x="305.479" y="71.019" style="fill:#D66562;" width="8.158" height="10.416"/>
				
					<rect x="313.614" y="49.112" transform="matrix(0.7071 -0.7071 0.7071 0.7071 55.7662 241.0173)" style="fill:#D66562;" width="10.416" height="8.158"/>
			</g>
		</g>
		<g>
			<path style="fill:#A04040;" d="M186.188,43.33h-51.433c-5.936,0-10.747,4.812-10.747,10.747v27.662
				c0,5.935,4.812,10.747,10.747,10.747h14.511l22.872,15.673l-7.54-15.673h21.59c5.936,0,10.747-4.812,10.747-10.747V54.077
				C196.936,48.142,192.124,43.33,186.188,43.33z"/>
			<path style="fill:#D66562;" d="M180.841,43.33h-51.433c-5.936,0-10.747,4.812-10.747,10.747v27.662
				c0,5.935,4.812,10.747,10.747,10.747h14.511l22.872,15.673l-7.54-15.673h21.59c5.936,0,10.747-4.812,10.747-10.747V54.077
				C191.588,48.142,186.776,43.33,180.841,43.33z"/>
			<path style="fill:#FFFFFF;" d="M140.051,68.575c0,2.743-2.223,4.966-4.966,4.966c-2.742,0-4.966-2.223-4.966-4.966
				c0-2.743,2.223-4.966,4.966-4.966C137.828,63.609,140.051,65.832,140.051,68.575z"/>
			<path style="fill:#FFFFFF;" d="M160.09,68.575c0,2.743-2.223,4.966-4.966,4.966c-2.743,0-4.966-2.223-4.966-4.966
				c0-2.743,2.223-4.966,4.966-4.966C157.867,63.609,160.09,65.832,160.09,68.575z"/>
			<path style="fill:#FFFFFF;" d="M180.128,68.575c0,2.743-2.223,4.966-4.966,4.966c-2.743,0-4.966-2.223-4.966-4.966
				c0-2.743,2.223-4.966,4.966-4.966C177.905,63.609,180.128,65.832,180.128,68.575z"/>
			<polygon style="fill:#A04040;" points="172.138,108.16 166.79,108.16 159.25,92.487 164.598,92.487 			"/>
		</g>
		<g>
			<path style="fill:#EFEEE4;" d="M167.804,131.869c-3.002-2.854-6.795-4.802-10.7-6.102c-0.026-0.009-0.086-0.026-0.175-0.049
				c-3.537-0.947-7.266-0.947-10.803,0c-0.089,0.024-0.149,0.041-0.175,0.049c-3.905,1.301-7.698,3.248-10.7,6.102
				c-8.935,8.495-7.484,23.915,1.218,32.051c2.441,2.282,3.513,5.229,4.26,8.477c0.225,0.978,1.52,11.182,1.069,11.182
				c4.367,0,9.73,0,9.73,0s5.363,0,9.729,0c-0.451,0,0.844-10.204,1.069-11.182c0.747-3.248,1.819-6.194,4.26-8.477
				C175.287,155.784,176.738,140.364,167.804,131.869z"/>
			<polyline style="fill:none;stroke:#723328;stroke-width:1.965;stroke-linecap:round;stroke-miterlimit:10;" points="
				151.527,183.579 151.527,159.783 159.481,155.198 143.762,151.05 151.527,147.557 151.527,139.479 			"/>
			<path style="fill:#D66562;" d="M163.193,186.854c0,0.723-0.586,1.31-1.31,1.31h-21.395c-0.723,0-1.31-0.587-1.31-1.31l0,0
				c0-0.723,0.587-1.31,1.31-1.31h21.395C162.606,185.544,163.193,186.13,163.193,186.854L163.193,186.854z"/>
			<path style="fill:#D66562;" d="M163.193,190.783c0,0.724-0.586,1.31-1.31,1.31h-21.395c-0.723,0-1.31-0.587-1.31-1.31l0,0
				c0-0.723,0.587-1.31,1.31-1.31h21.395C162.606,189.474,163.193,190.06,163.193,190.783L163.193,190.783z"/>
			<path style="fill:#D66562;" d="M163.193,194.713c0,0.723-0.586,1.31-1.31,1.31h-21.395c-0.723,0-1.31-0.586-1.31-1.31l0,0
				c0-0.723,0.587-1.31,1.31-1.31h21.395C162.606,193.403,163.193,193.99,163.193,194.713L163.193,194.713z"/>
			<path style="fill:#D66562;" d="M151.185,205.193c4.22,0,7.641-3.421,7.641-7.641h-15.282
				C143.544,201.771,146.965,205.193,151.185,205.193z"/>
		</g>
		<g>
			<g>
				<rect x="321.721" y="156.415" style="fill:#EFEEE4;" width="54.352" height="36.036"/>
				<polygon style="fill:#EFEEE4;" points="321.721,156.415 348.897,174.433 376.073,156.415 				"/>
				<polyline style="fill:none;stroke:#723328;stroke-width:1.1573;stroke-miterlimit:10;" points="321.721,156.415 
					348.897,174.433 376.073,156.415 				"/>
			</g>
			<g>
				<polygon style="fill:#D66562;" points="325.849,137.245 349.412,137.245 337.631,149.182 				"/>
				<rect x="333.374" y="130.424" style="fill:#D66562;" width="8.513" height="8.811"/>
			</g>
			<g>
				<polygon style="fill:#EFEEE4;" points="372.598,142.361 349.036,142.361 360.817,130.424 				"/>
				<rect x="356.56" y="140.372" style="fill:#EFEEE4;" width="8.513" height="8.811"/>
			</g>
		</g>
		<g>
			<path style="fill:#EFEEE4;" d="M247.818,79.577c0,0,12.54-31.656,0-31.656C235.277,47.921,247.818,79.577,247.818,79.577z"/>
			<path style="fill:#EFEEE4;" d="M255.642,80.498c0,0,16.766-18.856,8.035-22.039C254.947,55.277,255.642,80.498,255.642,80.498z"
				/>
			<path style="fill:#EFEEE4;" d="M241.498,80.5c0,0-3.772-17.02-9.088-13.42C227.094,70.681,241.498,80.5,241.498,80.5z"/>
		</g>
	</g>
	<g>
		<g>
			<path style="fill:#D59880;" d="M255.473,208.452c0,0,32.717-21.461,56.497-12.712c17.145,6.308,43.217,91.161,56.431,138.021
				c4.329,15.35-7.214,30.58-23.162,30.58h-13.453l-33.908-106.128l-2.642,7.927c0,0,5.725,20.257-3.083,34.349
				c10.128,57.248,10.128,63.853,10.128,63.853h-53.898V215.498L255.473,208.452z"/>
			<path style="fill:#D59880;" d="M241.295,208.452c0,0-32.717-21.461-56.497-12.712c-17.145,6.308-43.217,91.161-56.431,138.021
				c-4.328,15.35,7.214,30.58,23.162,30.58h13.453l33.908-106.128l2.642,7.927c0,0-5.725,20.257,3.083,34.349
				c-10.128,57.248-10.128,63.853-10.128,63.853h53.898V215.498L241.295,208.452z"/>
			<path style="fill:#EFEEE4;" d="M292.153,300.489c8.807-14.092,3.083-34.348,3.083-34.348
				c-11.614-23.426-9.74-57.973-8.509-70.978c-16.727,3.771-31.254,13.29-31.254,13.29l-7.089,7.046l-7.089-7.046
				c0,0-14.527-9.518-31.254-13.29c1.231,13.004,3.105,47.552-8.509,70.978c0,0-5.725,20.257,3.083,34.348
				c-10.128,57.248-10.128,63.853-10.128,63.853h53.898h53.898C302.282,364.342,302.282,357.737,292.153,300.489z"/>
			<g>
				<defs>
					<path id="SVGID_00000105412322232106079260000013666999915414024887_" d="M292.153,300.489
						c8.807-14.092,3.083-34.348,3.083-34.348c-11.614-23.426-9.74-57.973-8.509-70.978c-16.727,3.771-31.254,13.29-31.254,13.29
						l-7.089,7.046l-7.089-7.046c0,0-14.527-9.518-31.254-13.29c1.231,13.004,3.105,47.552-8.509,70.978
						c0,0-5.725,20.257,3.083,34.348c-10.128,57.248-10.128,63.853-10.128,63.853h53.898h53.898
						C302.282,364.342,302.282,357.737,292.153,300.489z"/>
				</defs>
				<clipPath id="SVGID_00000085967747488432013700000000049433133794257569_">
					<use xlink:href="#SVGID_00000105412322232106079260000013666999915414024887_"  style="overflow:visible;"/>
				</clipPath>
				<g style="clip-path:url(#SVGID_00000085967747488432013700000000049433133794257569_);">
					<rect x="160.924" y="207.326" style="fill:#D66562;" width="170.862" height="8.612"/>
					<rect x="160.924" y="233.1" style="fill:#D66562;" width="170.862" height="8.612"/>
					<rect x="160.924" y="258.874" style="fill:#D66562;" width="170.862" height="8.612"/>
					<rect x="160.924" y="284.648" style="fill:#D66562;" width="170.862" height="8.612"/>
					<rect x="160.924" y="310.422" style="fill:#D66562;" width="170.862" height="8.612"/>
				</g>
			</g>
			<path style="fill:#D59880;" d="M223.407,199.389c10.407,4.162,17.889,9.064,17.889,9.064l7.089,7.046v20.257
				C224.247,235.755,223.15,208.127,223.407,199.389z"/>
			<path style="fill:#D59880;" d="M273.362,199.389c-10.407,4.162-17.889,9.064-17.889,9.064l-7.089,7.046v20.257
				C272.521,235.755,273.618,208.127,273.362,199.389z"/>
			<path style="fill:#381612;" d="M227.841,103.585c0,0-11.74-6.117-17.653,4.485s-13.252,48.32-13.252,48.32l31.398,5.505
				l12.648-21.819l-9.182-35.064L227.841,103.585z"/>
			<path style="fill:#381612;" d="M233.269,119.916l-5.428-16.331c0,0,22.92-21,45.551-8.563
				c22.631,12.437,29.971,52.645,23.447,83.308c-14.476-2.774-14.476-2.774-14.476-2.774l1.223-8.563l-4.078,7.65l-16.958-3.368
				l-19.157-16.764C243.394,154.511,231.883,135.432,233.269,119.916z"/>
			<g>
				<ellipse style="fill:#B26D57;" cx="214.545" cy="155.97" rx="7.823" ry="9.201"/>
				<path style="fill:#D59880;" d="M208.93,151.398c-0.42,0-0.83,0.05-1.232,0.125c-0.621,1.319-0.976,2.834-0.976,4.448
					c0,5.082,3.502,9.201,7.823,9.201c0.42,0,0.83-0.05,1.232-0.125c0.621-1.319,0.976-2.834,0.976-4.448
					C216.754,155.517,213.251,151.398,208.93,151.398z"/>
				<ellipse style="fill:#B26D57;" cx="282.287" cy="155.97" rx="7.823" ry="9.201"/>
				<path style="fill:#D59880;" d="M287.902,151.398c0.42,0,0.83,0.05,1.232,0.125c0.621,1.319,0.976,2.834,0.976,4.448
					c0,5.082-3.503,9.201-7.823,9.201c-0.42,0-0.83-0.05-1.232-0.125c-0.621-1.319-0.976-2.834-0.976-4.448
					C280.079,155.517,283.581,151.398,287.902,151.398z"/>
			</g>
			<path style="fill:#D59880;" d="M260.887,186.214l-12.44,1.32l-12.44-1.32l-2.594,33.027c0,0,2.814,11.45,15.035,11.45
				c12.22,0,15.035-11.45,15.035-11.45L260.887,186.214z"/>
			<path style="fill:#312A2E;" d="M261.287,191.297l-0.399-5.083l-12.44,1.32l-12.44-1.32l-1.658,21.112
				C248.441,203.317,258.013,194.626,261.287,191.297z"/>
			<path style="fill:#D59880;" d="M233.269,119.916c-7.815,5.989-15.331,16.101-13.294,32.397
				c3.976,31.806,18.044,43.427,28.442,43.427s24.466-11.621,28.442-43.427c0.13-1.042,0.219-2.058,0.274-3.051
				C245.292,153.471,234.915,125.185,233.269,119.916z"/>
			<path style="fill:#EFEEE4;" d="M270.729,157.605c0.313,2.252-3.095,4.587-7.611,5.215c-4.517,0.628-8.433-0.688-8.746-2.941
				c-0.313-2.252,3.095-4.587,7.611-5.215C266.501,154.036,270.416,155.352,270.729,157.605z"/>
			<path style="fill:#381612;" d="M264.26,154.511c-0.731-0.003-1.493,0.044-2.276,0.153c-0.786,0.109-1.535,0.273-2.239,0.476
				c-1.873,1.065-3.139,3.075-3.139,5.383c0,0.624,0.094,1.225,0.266,1.793c1.611,0.617,3.84,0.838,6.246,0.503
				c2.404-0.334,4.486-1.154,5.868-2.185c0.001-0.037,0.006-0.073,0.006-0.111C268.992,157.607,266.974,155.169,264.26,154.511z"/>
			<path style="fill:#EFEEE4;" d="M248.416,181.165c1.485,0,2.923,0.166,4.294,0.474c0.991,0.222,1.595-1.11,0.775-1.71
				c-1.361-0.996-3.131-1.598-5.069-1.598c-1.938,0-3.708,0.602-5.069,1.598c-0.82,0.6-0.217,1.932,0.775,1.71
				C245.493,181.331,246.931,181.165,248.416,181.165z"/>
			<path style="fill:#381612;" d="M240.589,145.784c-2.282,2.156-7.347,5.106-16.468,2.019c6.311-0.163,11.103-4.502,12.616-6.05
				c0.434-0.444,1.004-0.739,1.621-0.808c0.019-0.002,0.038-0.004,0.057-0.006C241.039,140.675,242.506,143.971,240.589,145.784z"/>
			<path style="fill:#EFEEE4;" d="M231.232,126.272c0,0-4.295,8.303,0,8.303C235.527,134.575,231.232,126.272,231.232,126.272z"/>
			<line style="fill:none;stroke:#723328;stroke-miterlimit:10;" x1="233.269" y1="119.916" x2="227.841" y2="103.585"/>
			<path style="fill:none;stroke:#381612;stroke-width:1.8519;stroke-linecap:round;stroke-miterlimit:10;" d="M254.372,159.879
				c-0.313-2.252,3.095-4.587,7.611-5.215c4.517-0.628,8.432,0.688,8.746,2.941"/>
			<path style="fill:#B26D57;" d="M251.211,173.945c0,0-5.654,2.856-7.883,0.875c-2.229-1.982,0.006-7.844-0.303-10.321
				c-0.308-2.477-0.832-6.271-1.875-7.305c2.466,0.635,3.72,6.637,3.059,10.765C243.549,172.087,244.071,175.852,251.211,173.945z"
				/>
			<path style="fill:none;stroke:#723328;stroke-width:0.75;stroke-linecap:round;stroke-miterlimit:10;" d="M243.025,158.743
				c0,0,2.132,6.073,0.883,10.878c-1.249,4.804,5.285,5.958,7.303,4.324"/>
			<path style="fill:#EFEEE4;" d="M226.103,157.605c-0.313,2.252,3.095,4.587,7.611,5.215c4.517,0.628,8.432-0.688,8.746-2.941
				c0.313-2.252-3.095-4.587-7.612-5.215C230.332,154.036,226.416,155.352,226.103,157.605z"/>
			<path style="fill:#381612;" d="M232.572,154.511c0.731-0.003,1.493,0.044,2.276,0.153c0.786,0.109,1.535,0.273,2.239,0.476
				c1.873,1.065,3.139,3.075,3.139,5.383c0,0.624-0.094,1.225-0.266,1.793c-1.611,0.617-3.84,0.838-6.246,0.503
				c-2.404-0.334-4.486-1.154-5.868-2.185c-0.001-0.037-0.006-0.073-0.006-0.111C227.841,157.607,229.859,155.169,232.572,154.511z"
				/>
			<path style="fill:none;stroke:#381612;stroke-width:1.8519;stroke-linecap:round;stroke-miterlimit:10;" d="M242.46,159.879
				c0.313-2.252-3.095-4.587-7.612-5.215c-4.517-0.628-8.432,0.688-8.746,2.941"/>
			<path style="fill:none;stroke:#723328;stroke-miterlimit:10;" d="M235.257,98.212c0,0,9.337,45.177,50.731,37.635"/>
			<path style="fill:none;stroke:#723328;stroke-miterlimit:10;" d="M247.118,92.803c0,0,9.525,24.964,35.691,28.927"/>
			<path style="fill:none;stroke:#723328;stroke-miterlimit:10;" d="M270.729,93.716c0,0,18.782,32.918,15.259,54.149"/>
			<path style="fill:none;stroke:#723328;stroke-miterlimit:10;" d="M229.324,108.047c0,0-16.436-5.636-26.564,49.147"/>
			<path style="opacity:0.21;fill:#863627;" d="M368.401,333.762c-0.622-2.207-1.273-4.498-1.95-6.861
				c-5.37,3.229-22.62,15.521-16.456,36.968C363.386,361.206,372.285,347.536,368.401,333.762z"/>
			<path style="fill:#D59880;" d="M341.474,364.342H216.754c0,0-6.508-17.615,33.565-22.459c40.073-4.844,81.468-12.33,81.468-12.33
				S350.722,344.526,341.474,364.342z"/>
			<line style="fill:none;stroke:#924D3E;stroke-miterlimit:10;" x1="321.257" y1="331.387" x2="345.438" y2="326.901"/>
			<path style="opacity:0.21;fill:#863627;" d="M128.367,333.762c0.622-2.207,1.273-4.498,1.95-6.861
				c5.37,3.229,22.62,15.521,16.456,36.968C133.382,361.206,124.483,347.536,128.367,333.762z"/>
			<path style="fill:#D59880;" d="M155.294,364.342h124.721c0,0,6.508-17.615-33.565-22.459
				c-40.073-4.844-81.468-12.33-81.468-12.33S146.046,344.526,155.294,364.342z"/>
			<line style="fill:none;stroke:#924D3E;stroke-miterlimit:10;" x1="175.511" y1="331.387" x2="151.331" y2="326.901"/>
			<g>
				<path style="fill:#B26459;" d="M240.982,164.7c-0.284,0.946-1.146,1.615-1.999,2.06c-0.874,0.454-1.829,0.704-2.78,0.847
					c-0.478,0.054-0.957,0.092-1.434,0.11c-0.477-0.02-0.955,0.006-1.427-0.056c-0.947-0.081-1.88-0.266-2.787-0.556
					c0.95-0.124,1.875-0.159,2.794-0.225c0.917-0.07,1.824-0.137,2.716-0.264c0.894-0.115,1.766-0.303,2.611-0.571
					C239.508,165.755,240.347,165.405,240.982,164.7z"/>
			</g>
			<g>
				<path style="fill:#B26459;" d="M255.85,164.7c0.635,0.705,1.474,1.056,2.306,1.346c0.845,0.268,1.718,0.456,2.611,0.571
					c0.892,0.127,1.799,0.194,2.716,0.264c0.919,0.066,1.844,0.1,2.794,0.225c-0.907,0.29-1.84,0.475-2.787,0.556
					c-0.473,0.062-0.95,0.036-1.427,0.056c-0.477-0.018-0.956-0.056-1.434-0.11c-0.951-0.143-1.906-0.392-2.78-0.847
					C256.997,166.315,256.134,165.645,255.85,164.7z"/>
			</g>
			<circle style="fill:#D66562;" cx="215.107" cy="166.012" r="3.036"/>
			<path style="fill:#D66562;" d="M285.323,166.012c0,1.677-1.359,3.036-3.036,3.036c-1.677,0-3.036-1.359-3.036-3.036
				c0-1.677,1.359-3.036,3.036-3.036C283.964,162.975,285.323,164.335,285.323,166.012z"/>
			<path style="fill:none;stroke:#924D3E;stroke-width:2;stroke-miterlimit:10;" d="M286.727,195.163c0,0-4.262,51.602,8.509,70.978
				"/>
			<path style="fill:none;stroke:#924D3E;stroke-width:2;stroke-miterlimit:10;" d="M273.362,199.389
				c0,0,3.033,36.367-24.978,36.367s-24.978-36.367-24.978-36.367"/>
			<path style="fill:none;stroke:#924D3E;stroke-width:2;stroke-miterlimit:10;" d="M210.041,195.163c0,0,4.992,44.918-8.509,70.978
				"/>
			<line style="fill:none;stroke:#924D3E;stroke-miterlimit:10;" x1="297.878" y1="258.214" x2="293.915" y2="244.122"/>
			<line style="fill:none;stroke:#924D3E;stroke-miterlimit:10;" x1="198.89" y1="258.214" x2="202.853" y2="244.122"/>
			<polygon style="fill:#9B9889;" points="248.384,279.752 158.156,279.752 181.936,357.957 248.384,357.957 314.832,357.957 
				338.612,279.752 			"/>
			<polygon style="fill:#D3D1C5;" points="333.273,274.067 248.384,274.067 163.496,274.067 158.156,279.752 248.384,279.752 
				338.612,279.752 			"/>
			<ellipse style="fill:#D3D1C5;" cx="251.211" cy="316.963" rx="24.181" ry="12.181"/>
			<rect x="181.707" y="357.203" style="fill:#7C796B;" width="133.456" height="6.333"/>
			<path style="opacity:0.31;fill:#EFEEE4;" d="M276.858,152.313c0.13-1.042,0.219-2.058,0.274-3.051
				c-31.839,4.209-42.216-24.078-43.863-29.346c-2.859,2.191-5.672,4.94-7.997,8.335c-0.023,0.487-3.082,66.603,30.058,65.863
				C264.281,189.958,273.717,177.436,276.858,152.313z"/>
			<path style="opacity:0.13;fill:#EFEEE4;" d="M311.97,195.74c-0.81-0.298-1.632-0.554-2.46-0.784
				c-2.707,4.745-4.69,13.192-0.658,27.588c7.522,26.861,68.4,114.928,52.718,135.41c6.324-5.862,9.423-15.004,6.832-24.192
				C355.187,286.901,329.115,202.048,311.97,195.74z"/>
			<path style="opacity:0.08;fill:#924D3E;" d="M184.862,195.74c0.81-0.298,1.632-0.554,2.46-0.784
				c2.707,4.745,4.69,13.192,0.658,27.588c-7.522,26.861-68.4,114.928-52.718,135.41c-6.324-5.862-9.423-15.004-6.832-24.192
				C141.646,286.901,167.718,202.048,184.862,195.74z"/>
		</g>
		<g>
			<g>
				<circle style="opacity:0.24;fill:#FFF6E7;" cx="231.906" cy="160.712" r="12.708"/>
				
					<linearGradient id="SVGID_00000169527647569340190410000003646871801722331035_" gradientUnits="userSpaceOnUse" x1="223.565" y1="167.603" x2="232.8002" y2="141.8623">
					<stop  offset="0" style="stop-color:#FFFFFF"/>
					<stop  offset="1" style="stop-color:#000000"/>
				</linearGradient>
				<path style="opacity:0.35;fill:url(#SVGID_00000169527647569340190410000003646871801722331035_);" d="M237.724,149.423
					c-1.745-0.901-3.719-1.419-5.818-1.419c-7.018,0-12.708,5.69-12.708,12.708c0,5.481,3.476,10.137,8.338,11.921L237.724,149.423z
					"/>
				<circle style="fill:none;stroke:#312A2E;stroke-width:1.1899;stroke-miterlimit:10;" cx="231.906" cy="160.712" r="12.708"/>
			</g>
			<g>
				<circle style="opacity:0.24;fill:#FFF6E7;" cx="264.855" cy="160.712" r="12.708"/>
				
					<linearGradient id="SVGID_00000145747210628511613640000010915286849542804897_" gradientUnits="userSpaceOnUse" x1="256.5144" y1="167.603" x2="265.7496" y2="141.8623">
					<stop  offset="0" style="stop-color:#FFFFFF"/>
					<stop  offset="1" style="stop-color:#000000"/>
				</linearGradient>
				<path style="opacity:0.35;fill:url(#SVGID_00000145747210628511613640000010915286849542804897_);" d="M270.673,149.423
					c-1.745-0.901-3.719-1.419-5.818-1.419c-7.018,0-12.708,5.69-12.708,12.708c0,5.481,3.476,10.137,8.339,11.921L270.673,149.423z
					"/>
				<circle style="fill:none;stroke:#312A2E;stroke-width:1.1899;stroke-miterlimit:10;" cx="264.855" cy="160.712" r="12.708"/>
			</g>
			<path style="fill:none;stroke:#312A2E;stroke-width:1.1899;stroke-miterlimit:10;" d="M244.596,161.39c0,0,2.796-1.865,7.57,0"/>
		</g>
	</g>
	<g>
		<ellipse style="fill:#381612;" cx="93.259" cy="322.378" rx="28.404" ry="3.524"/>
		<g>
			<path style="fill:#D66562;" d="M84.628,206.5c0,0-6.106-10.988-11.322-7.522C68.091,202.445,75.58,208.846,84.628,206.5z"/>
			<path style="fill:#D66562;" d="M90.166,232.98c0,0,1.067-12.525-5.195-12.56C78.708,220.385,81.348,229.876,90.166,232.98z"/>
			<path style="fill:#D66562;" d="M94.767,205.427c0,0,1.067-12.525-5.195-12.561C83.309,192.832,85.949,202.323,94.767,205.427z"/>
			<path style="fill:#D66562;" d="M100.66,243.477c0,0,11.556-4.947,8.643-10.491C106.39,227.443,99.254,234.235,100.66,243.477z"/>
			<path style="fill:none;stroke:#381612;stroke-width:0.7473;stroke-linecap:round;stroke-miterlimit:10;" d="M100.123,266.14
				c0,0-11.226-9.03-4.233-28.763c6.993-19.733-10.866-30.606-14.829-32.716"/>
			<path style="fill:none;stroke:#381612;stroke-width:0.7473;stroke-linecap:round;stroke-miterlimit:10;" d="M94.464,216.851
				c0,0,1.715-8.865-2.024-15.279"/>
			<path style="fill:none;stroke:#381612;stroke-width:0.7473;stroke-linecap:round;stroke-miterlimit:10;" d="M95.89,237.377
				c0,0-6.92-2.745-8.844-9.721"/>
			<path style="fill:none;stroke:#381612;stroke-width:0.7473;stroke-linecap:round;stroke-miterlimit:10;" d="M93.604,250.311
				c0,0,7.129-3.409,10.153-13.099"/>
		</g>
		<g>
			<g>
				<path style="fill:#D66562;" d="M124.803,223.262c0,0-43.226,35.492-30.847,90.085
					C139.331,287.492,122.111,239.929,124.803,223.262z"/>
				<path style="fill:none;stroke:#924D3E;stroke-width:0.9716;stroke-miterlimit:10;" d="M124.803,223.262
					c0,0-28.517,56.465-30.847,90.085"/>
				<path style="fill:none;stroke:#924D3E;stroke-width:0.9716;stroke-miterlimit:10;" d="M108.33,259.628
					c0,0,9.839-5.51,17.517-5.32"/>
				<path style="fill:none;stroke:#924D3E;stroke-width:0.9716;stroke-miterlimit:10;" d="M98.88,288.101
					c0,0,9.281-8.785,23.262-7.657"/>
				<path style="fill:none;stroke:#924D3E;stroke-width:0.9716;stroke-miterlimit:10;" d="M104.159,271.696
					c0,0-1.323-6.362-6.284-9.833"/>
				<path style="fill:none;stroke:#924D3E;stroke-width:0.9716;stroke-miterlimit:10;" d="M113.948,246.839
					c0,0-0.598-6.637-2.804-8.625"/>
			</g>
			<g>
				<path style="fill:#FEFEFE;" d="M106.797,317.429c0,0,9.576-53.242-14.166-84.508c-23.743-31.267-51.892-24.49-36.018,4.869
					c15.874,29.359,39.44,80.46,42.114,103.616C106.797,317.429,106.797,317.429,106.797,317.429z"/>
				<g>
					<path style="fill:#863627;" d="M97.658,331.89c0,0-2.529-56.626-64.252-71.15C56.497,328.709,97.658,331.89,97.658,331.89z"/>
					<path style="fill:none;stroke:#D66562;stroke-width:0.7175;stroke-miterlimit:10;" d="M97.658,331.89
						c0,0-21.215-46.031-56.767-64.668"/>
					<path style="fill:none;stroke:#D66562;stroke-width:0.7175;stroke-miterlimit:10;" d="M86.748,312.674
						c0,0-12.662-2.858-22.725-1.373"/>
					<path style="fill:none;stroke:#D66562;stroke-width:0.7175;stroke-miterlimit:10;" d="M70.698,291.47
						c0,0-2.704-9.323-3.462-15.268"/>
				</g>
				<path style="fill:none;stroke:#D66562;stroke-width:0.7175;stroke-miterlimit:10;" d="M98.726,341.407
					c0,0,17.679-74.867-30.647-121.59"/>
				<path style="fill:none;stroke:#D66562;stroke-width:0.7175;stroke-miterlimit:10;" d="M86.39,243.703
					c0,0-10.959-6.51-28.434-6.267"/>
				<path style="fill:none;stroke:#D66562;stroke-width:0.7175;stroke-miterlimit:10;" d="M96.523,268.453
					c0,0,4.076-10.097,1.196-23.838"/>
				<path style="fill:none;stroke:#D66562;stroke-width:0.7175;stroke-miterlimit:10;" d="M101.03,292.303
					c0,0-6.31-11.681-20.431-16.863"/>
			</g>
		</g>
		<polygon style="fill:#381612;" points="70.698,339.38 75.385,361.537 112.546,361.537 117.751,339.024 		"/>
		<path style="fill:#723328;" d="M93.259,325.902c-15.687,0-28.404-1.578-28.404-3.524v14.862c0,1.946,12.717,3.524,28.404,3.524
			c15.687,0,28.404-1.578,28.404-3.524v-14.862C121.663,324.324,108.946,325.902,93.259,325.902z"/>
	</g>
	<path style="fill:#D3D1C5;" d="M456.592,379.696H40.287c-5.015,0-9.08-4.065-9.08-9.08l0,0c0-5.015,4.065-9.08,9.08-9.08h416.305
		c5.014,0,9.08,4.065,9.08,9.08l0,0C465.672,375.631,461.606,379.696,456.592,379.696z"/>
	<path style="fill:#F9F3E9;" d="M469.154,262.365c0,0-39.671,31.572-76.732,19.268c-12.426-40.544-12.426-40.544-12.426-40.544
		s47.635,1.225,70.46-25.568C467.144,255.969,469.154,262.365,469.154,262.365z"/>
</g>
</svg>
